<?xml version="1.0" standalone="no"?>
<!DOCTYPE svg PUBLIC "-//W3C//DTD SVG 1.1//EN" "http://www.w3.org/Graphics/SVG/1.1/DTD/svg11.dtd" >
<svg xmlns="http://www.w3.org/2000/svg" xmlns:xlink="http://www.w3.org/1999/xlink" version="1.1">
<metadata>
Created by FontForge 20170731 at Mon Jun 10 11:09:33 2019
 By Aleksey,,,
Copyright 2019 The Gayathri Project Authors (https://gitlab.com/smc/fonts/gayathri)
</metadata>
<defs>
<font id="Gayathri-Thin" horiz-adv-x="2219" >
  <font-face 
    font-family="Gayathri Thin"
    font-weight="100"
    font-stretch="normal"
    units-per-em="2048"
    panose-1="0 0 4 3 0 0 0 0 0 0"
    ascent="1638"
    descent="-410"
    x-height="976"
    cap-height="1381"
    bbox="-1549.66 -1213 4013 2036"
    underline-thickness="100"
    underline-position="-750"
    unicode-range="U+0020-25CC"
  />
<missing-glyph horiz-adv-x="692" 
d="M45 1v1118h561v-1118h-561zM102 55h450v1008h-450v-1008z" />
    <glyph glyph-name=".notdef" horiz-adv-x="692" 
d="M45 1v1118h561v-1118h-561zM102 55h450v1008h-450v-1008z" />
    <glyph glyph-name=".null" horiz-adv-x="0" 
 />
    <glyph glyph-name="nonmarkingreturn" horiz-adv-x="682" 
 />
    <glyph glyph-name="space" unicode=" " horiz-adv-x="500" 
 />
    <glyph glyph-name="exclam" unicode="!" horiz-adv-x="385" 
d="M247 355q-1 -29 -53 -29q-55 0 -56 29l-38 979q-1 47 94 47q92 0 91 -47zM193 -24q-93 0 -93 92q0 93 93 93q92 0 92 -93q0 -92 -92 -92z" />
    <glyph glyph-name="quotedbl" unicode="&#x22;" horiz-adv-x="628" 
d="M417 745q-39 0 -42 28l-29 443q-3 50 71 50q72 0 69 -50l-29 -443q-1 -28 -40 -28zM171 742q-39 0 -42 28l-29 443q-3 50 71 50q72 0 69 -50l-29 -443q-1 -28 -40 -28z" />
    <glyph glyph-name="numbersign" unicode="#" horiz-adv-x="1309" 
d="M776 3q-5 -27 -57 -27q-47 0 -45 29q0 5 1 9l70 379h-302l-73 -390q-5 -27 -49 -27q-53 0 -53 29q0 6 1 9l71 379h-179q-61 0 -61 35t61 35h192l78 420h-201q-62 0 -62 35t62 35h214l75 402q5 26 53 26q49 0 49 -28q0 -5 -1 -8l-73 -392h303l75 402q5 26 52 26
q50 0 50 -28q0 -5 -1 -8l-73 -392h195q61 0 61 -35t-61 -35h-208l-78 -420h217q62 0 62 -35t-62 -35h-230zM758 463l79 420h-303l-78 -420h302z" />
    <glyph glyph-name="dollar" unicode="$" horiz-adv-x="1102" 
d="M551 -219q-30 0 -30 14v179q-158 16 -259 98q-120 97 -159 269l-3 18q0 34 62 34q54 0 60 -30q34 -166 140 -251q58 -47 159 -68v595q-178 39 -263 114q-119 106 -119 257q0 148 118 253q100 89 264 109v94q0 14 30 14t30 -14v-93q162 -12 259 -96t127 -218q4 -16 4 -25
q0 -35 -63 -35q-53 0 -59 31q-27 136 -111 209q-57 49 -157 65v-552q206 -30 303 -116q118 -106 118 -266q0 -146 -109 -262q-115 -122 -312 -135v-178q0 -14 -30 -14zM521 763v539q-104 -26 -161 -76q-98 -87 -98 -216q0 -89 70 -153q68 -61 189 -94zM581 42q127 18 204 99
q93 98 95 229q2 99 -70 163q-80 71 -229 97v-588z" />
    <glyph glyph-name="percent" unicode="%" horiz-adv-x="1644" 
d="M494 -8q-9 -16 -38 -16q-40 0 -40 23q0 1 3 10l731 1356q9 16 37 16q41 0 41 -22q0 1 -4 -11zM408 659q-147 0 -227.5 109.5t-80.5 251.5t79.5 251.5t228.5 109.5t228.5 -110.5t79.5 -250.5t-80.5 -250.5t-227.5 -110.5zM408 728q106 0 145.5 102t39.5 190
q0 89 -39 190.5t-146 101.5q-106 -1 -145.5 -102t-39.5 -190q1 -88 40 -190t145 -102zM1236 -24q-149 0 -228.5 110t-79.5 251t80 251.5t228 110.5t228 -109.5t80 -252.5q0 -142 -79.5 -251t-228.5 -110zM1236 46q107 0 146 101.5t39 189.5q0 89 -39.5 190.5t-146.5 101.5
t-145.5 -101.5t-38.5 -190.5q0 -88 39.5 -189.5t145.5 -101.5z" />
    <glyph glyph-name="ampersand" unicode="&#x26;" horiz-adv-x="1276" 
d="M1113 -24q-37 0 -54 20q-51 61 -155 183q-184 -203 -419 -203q-148 0 -266.5 89.5t-118.5 249.5q0 164 103 262.5t228 174.5q-61 77 -136.5 175.5t-75.5 199.5q0 128 107.5 191t216.5 63q122 0 219.5 -67.5t97.5 -202.5q0 -134 -90.5 -222t-192.5 -150q64 -80 134 -164
l177 -214q58 152 60 277q0 35 61 35q61 -3 61 -34q0 -196 -104 -371l204 -242q6 -7 6 -15q0 -35 -63 -35zM522 807q81 53 148 125t67 179q0 200 -194 200q-201 0 -201 -184q0 -86 64 -170t116 -150zM485 46q202 0 349 218q-90 106 -184 220q-41 50 -81.5 100t-81.5 100
q-101 -64 -182.5 -148t-81.5 -216q0 -274 262 -274z" />
    <glyph glyph-name="quotesingle" unicode="'" horiz-adv-x="340" 
d="M171 880q-39 0 -42 28l-29 443q-3 50 71 50q72 0 69 -50l-29 -443q-1 -28 -40 -28z" />
    <glyph glyph-name="parenleft" unicode="(" horiz-adv-x="640" 
d="M477 -379q-36 0 -53 18q-324 349 -324 872q0 524 324 872q18 19 54 19q13 0 29 -4q33 -10 33 -31q0 -8 -7 -16q-310 -332 -310 -840q0 -505 310 -839q7 -7 7 -16q0 -21 -33 -31q-18 -4 -30 -4z" />
    <glyph glyph-name="parenright" unicode=")" horiz-adv-x="679" 
d="M202 -379q36 0 53 18q324 349 324 872q0 524 -324 872q-18 19 -54 19q-13 0 -29 -4q-33 -10 -33 -31q0 -8 7 -16q310 -332 310 -840q0 -505 -310 -839q-7 -7 -7 -16q0 -21 33 -31q18 -4 30 -4z" />
    <glyph glyph-name="asterisk" unicode="*" horiz-adv-x="640" 
d="M259 1015l-199 81q-10 4 -10 14q0 4 2 12q7 18 17 18q3 0 5 -1l208 -52l15 214q0 6 5 11q5 4 18 4q10 0 17 -3q5 -4 5 -12l16 -214l208 52q2 1 5 1q10 0 17 -18q2 -8 2 -12q0 -10 -10 -14l-199 -81l114 -182l3 -9q0 -1 -0.5 -2t-0.5 -2q-2 -5 -12 -13q-10 -7 -17 -7
q-5 0 -11 6l-137 164l-137 -164q-6 -6 -11 -6q-6 0 -17 7q-12 10 -12 17q0 5 3 9z" />
    <glyph glyph-name="plus" unicode="+" horiz-adv-x="1010" 
d="M162 390q-62 0 -62 35t62 35h282v355q0 35 61 35t61 -35v-355h282q62 0 62 -35t-62 -35h-282v-355q0 -35 -61 -35t-61 35v355h-282z" />
    <glyph glyph-name="comma" unicode="," horiz-adv-x="355" 
d="M165 -151q-24 -8 -39 -8q-24 0 -24 12q0 5 9 9q38 16 60 56q15 28 19 60q-18 -3 -19 -3q-91 0 -91 93t91 93q43 0 73 -31q31 -34 31 -88q0 -56 -30 -113q-31 -58 -80 -80z" />
    <glyph glyph-name="hyphen" unicode="-" horiz-adv-x="773" 
d="M612 450h-450q-62 0 -62 35q0 36 62 36h450q61 0 61 -36q0 -35 -61 -35z" />
    <glyph glyph-name="period" unicode="." horiz-adv-x="385" 
d="M193 0q-93 0 -93 93q0 92 93 92q92 0 92 -92q0 -93 -92 -93z" />
    <glyph glyph-name="slash" unicode="/" horiz-adv-x="808" 
d="M179 -9q-6 -15 -39 -15q-40 0 -40 18q0 3 2 7l527 1364q6 16 39 16q40 0 40 -18q0 1 -3 -8z" />
    <glyph glyph-name="zero" unicode="0" horiz-adv-x="1088" 
d="M544 -24q-256 0 -360 244.5t-104 457.5q0 212 103.5 457t360.5 245t360.5 -245t103.5 -457q0 -213 -103.5 -457.5t-360.5 -244.5zM544 46q205 0 270 238t65 394q0 155 -65 393.5t-270 238.5t-270 -238.5t-65 -393.5q0 -156 65 -394t270 -238z" />
    <glyph glyph-name="one" unicode="1" horiz-adv-x="577" 
d="M416 -24q-62 0 -62 36v1068q-110 -112 -239 -112q-65 0 -65 35q0 29 46 34q93 15 163 93q77 87 93 214q5 37 64 37q61 0 61 -36v-1333q0 -36 -61 -36z" />
    <glyph glyph-name="two" unicode="2" horiz-adv-x="1079" 
d="M911 0h-749q-62 0 -62 35q0 201 66 313q47 80 118 123t148 81q134 67 278.5 167t144.5 271q0 321 -309 321q-119 0 -201 -64q-113 -90 -113 -260v-20q0 -34 -60 -34q-58 0 -63 32q-3 20 -3 40q0 211 191 318q104 58 249 58q173 0 303 -106.5t130 -287.5q0 -191 -157 -301
t-308 -186q-66 -33 -129.5 -70t-102.5 -104q-52 -90 -58 -256h687q61 0 61 -35t-61 -35z" />
    <glyph glyph-name="three" unicode="3" horiz-adv-x="1069" 
d="M549 -24q-178 0 -313.5 96t-135.5 293q0 35 61 35q62 0 62 -35q0 -319 326 -319q298 0 298 318q0 243 -222 298q-37 9 -81 9l-62 -1q-61 0 -61 35q0 32 59 35q24 1 66 5q42 5 73 16q190 63 190 257q-2 290 -300 292q-297 0 -286 -306l1 -23q1 -35 -63 -35q-59 0 -60 33
v26q0 375 408 375q162 0 292 -92.5t130 -269.5q0 -198 -209 -304q247 -103 247 -352q0 -180 -126.5 -283t-293.5 -103z" />
    <glyph glyph-name="four" unicode="4" horiz-adv-x="1116" 
d="M757 -24q-61 0 -61 36v333h-584q-62 0 -62 35q0 8 6 15l642 959q18 27 59 27q62 0 62 -36v-930h185q62 0 62 -35t-62 -35h-185v-333q0 -36 -62 -36zM696 415v801l-535 -801h535z" />
    <glyph glyph-name="five" unicode="5" horiz-adv-x="1093" 
d="M993 414q0 -438 -453 -438q-362 0 -439 320q-1 3 -1 8q0 35 60 35q54 0 61 -30q62 -264 319 -264q155 0 242.5 112t87.5 257q0 149 -87 258t-245 109q-175 0 -270 -149q-23 -37 -61 -37q-64 0 -64 37q0 8 1 13l88 676q5 35 61 35h594q61 0 61 -35t-61 -35h-537l-65 -500
q113 66 253 66q455 0 455 -438z" />
    <glyph glyph-name="six" unicode="6" horiz-adv-x="1117" 
d="M581 -24q-216 0 -334 141q-88 105 -124 277q-23 114 -23 255q0 181 34 310q112 420 474 420q308 0 380 -289q0 -3 0.5 -5.5t0.5 -4.5q0 -36 -60 -36q-54 0 -61 31q-55 234 -260 234q-150 0 -234.5 -115t-118.5 -245q-21 -79 -27.5 -154t-9.5 -156q111 221 363 221
q177 0 298 -108q138 -125 138 -334q0 -166 -90 -282q-123 -160 -346 -160zM581 46q152 0 232.5 115t80.5 257t-80.5 257t-232.5 115t-232.5 -115t-80.5 -257t80.5 -257t232.5 -115z" />
    <glyph glyph-name="seven" unicode="7" horiz-adv-x="1026" 
d="M501 10q-1 -34 -64 -34q-59 0 -59 34q0 359 138 734q101 272 304 543h-708q-62 0 -62 35t62 35h802q27 0 46 -11q16 -11 16 -23q0 -8 -8 -18q-225 -286 -332 -575q-64 -173 -94.5 -354t-40.5 -366z" />
    <glyph glyph-name="eight" unicode="8" horiz-adv-x="1109" 
d="M554 -24q-170 0 -312 96.5t-142 287.5q0 243 261 351q-223 103 -223 317q0 176 129.5 264t286.5 88q158 0 287.5 -88t129.5 -264q0 -214 -223 -317q261 -108 261 -351q0 -191 -142 -287.5t-313 -96.5zM555 745q293 0 293 283q0 282 -294 282q-293 0 -293 -282
q0 -283 294 -283zM554 45q332 0 332 315q0 314 -331 314q-332 0 -332 -314q0 -315 331 -315z" />
    <glyph glyph-name="nine" unicode="9" horiz-adv-x="1117" 
d="M536 1379q216 0 334 -141q88 -105 124 -277q23 -114 23 -255q0 -181 -34 -310q-112 -420 -474 -420q-308 0 -380 289q0 2 -0.5 4.5t-0.5 4.5q0 37 60 37q54 0 61 -31q55 -234 260 -234q150 0 234.5 115t118.5 245q21 80 27.5 154.5t9.5 155.5q-111 -221 -363 -221
q-178 0 -298 108q-138 123 -138 334q0 164 90 282q124 160 346 160zM536 1309q-152 0 -232.5 -115t-80.5 -257t80.5 -257t232.5 -115t232.5 115t80.5 257t-80.5 257t-232.5 115z" />
    <glyph glyph-name="colon" unicode=":" horiz-adv-x="385" 
d="M193 671q-93 0 -93 93q0 92 93 92q92 0 92 -92q0 -93 -92 -93zM193 150q-93 0 -93 93q0 92 93 92q92 0 92 -92q0 -93 -92 -93z" />
    <glyph glyph-name="semicolon" unicode=";" horiz-adv-x="395" 
d="M193 497q-93 0 -93 92q0 93 93 93q92 0 92 -93q0 -92 -92 -92zM185 -152q-24 -8 -39 -8q-24 0 -24 12q0 5 9 9q38 16 60 56q15 28 19 60q-18 -3 -19 -3q-91 0 -91 93t91 93q43 0 73 -31q31 -34 31 -88q0 -56 -30 -113q-31 -58 -80 -80z" />
    <glyph glyph-name="less" unicode="&#x3c;" horiz-adv-x="1156" 
d="M995 80q-24 0 -42 9l-833 438q-20 10 -20 26q0 15 20 25l833 438q18 9 42 9q26 0 45 -11q16 -10 16 -24q0 -15 -20 -26l-784 -411l784 -412q20 -11 20 -26q0 -14 -16 -24q-19 -11 -45 -11z" />
    <glyph glyph-name="equal" unicode="=" horiz-adv-x="1028" 
d="M866 720h-704q-62 0 -62 35q0 36 62 36h704q62 0 62 -36q0 -35 -62 -35zM866 380h-704q-62 0 -62 35q0 36 62 36h704q62 0 62 -36q0 -35 -62 -35z" />
    <glyph glyph-name="greater" unicode="&#x3e;" horiz-adv-x="1196" 
d="M201 80q24 0 42 9l833 438q20 10 20 26q0 15 -20 25l-833 438q-18 9 -42 9q-26 0 -45 -11q-16 -10 -16 -24q0 -15 20 -26l784 -411l-784 -412q-20 -11 -20 -26q0 -14 16 -24q19 -11 45 -11z" />
    <glyph glyph-name="question" unicode="?" horiz-adv-x="1056" 
d="M524 235q-60 0 -63 34q-2 40 -2 62q0 119 44 192q29 47 75.5 94t86.5 85q168 159 168 315q0 294 -296 294q-159 0 -242 -101q-70 -87 -72 -222q0 -34 -59 -34q-64 0 -64 34q0 149 84 252q115 141 353 141q158 0 288.5 -94t130.5 -270q0 -114 -54 -196t-132 -155
q-119 -112 -153 -169q-36 -63 -34 -156l1 -71q0 -35 -60 -35zM525 -24q-92 0 -92 93q0 92 92 92t92 -92q0 -93 -92 -93z" />
    <glyph glyph-name="at" unicode="@" horiz-adv-x="1907" 
d="M929 -403q-280 0 -494 151q-335 237 -335 713q0 411 241 660q249 256 637 256q363 0 594 -225q235 -229 235 -619q0 -237 -114 -398q-112 -160 -291 -160q-149 0 -200 156q-120 -156 -286 -157q-193 0 -296 139t-103 320t102.5 330.5t299.5 149.5q244 0 324 -196l23 163
q4 36 64 33q63 -4 58 -34l-84 -578q-7 -45 -7 -92q0 -169 106 -164q97 5 176 116q106 148 106 372q2 369 -220 584q-194 189 -483 191q-318 0 -533 -221q-226 -233 -226 -626q0 -452 307 -670q178 -125 399 -125q114 0 222 36q12 4 31 4q36 0 53 -17q8 -8 8 -17
q0 -21 -31 -31q-138 -44 -283 -44zM916 45q146 0 213 143.5t67 265.5q0 125 -62.5 257t-214.5 132q-144 0 -211.5 -143.5t-67.5 -266.5q0 -125 63.5 -256.5t212.5 -131.5z" />
    <glyph glyph-name="A" unicode="A" horiz-adv-x="1333" 
d="M1239 -24q-58 0 -70 27l-190 445h-685l-192 -457q-6 -15 -41 -15q-36 0 -36 18q0 1 2 7l567 1355q11 25 70 25q60 0 71 -27l569 -1333q4 -8 4 -12q0 -33 -69 -33zM949 518l-316 741l-310 -741h626z" />
    <glyph glyph-name="B" unicode="B" horiz-adv-x="1225" 
d="M779 0h-617q-62 0 -62 35v1287q0 35 62 35h560q148 0 255.5 -101.5t107.5 -255.5q0 -193 -176 -308q241 -98 241 -335q0 -156 -111 -256.5t-260 -100.5zM722 713q107 0 173.5 93.5t66.5 193.5q0 101 -66.5 194t-173.5 93h-499v-574h499zM779 70q109 0 178.5 91.5
t69.5 195.5t-69.5 195t-178.5 91h-556v-573h556z" />
    <glyph glyph-name="C" unicode="C" horiz-adv-x="1302" 
d="M1252 404q0 -6 -4 -24q-41 -194 -211.5 -299t-359.5 -105q-313 0 -470 207t-157 499q0 294 167 496.5t476 202.5q185 0 352 -104t201 -299q4 -16 4 -26q0 -34 -63 -34q-55 0 -60 32q-22 164 -150 262.5t-284 98.5q-264 0 -392 -196t-128 -433q0 -233 119.5 -434.5
t384.5 -201.5q160 0 293 100.5t160 261.5q5 30 60 30q62 0 62 -34z" />
    <glyph glyph-name="D" unicode="D" horiz-adv-x="1275" 
d="M627 0h-466q-61 0 -61 35v1287q0 35 61 35h466q288 0 443 -204.5t155 -478.5t-155.5 -474t-442.5 -200zM627 70q242 0 359 194t117 411q0 215 -117 413.5t-359 198.5h-404v-1217h404z" />
    <glyph glyph-name="E" unicode="E" horiz-adv-x="1204" 
d="M1067 0h-898q-69 0 -69 39v1280q0 39 69 39h898q62 0 62 -35t-62 -35h-844v-573h717q61 0 61 -35t-61 -35h-717v-575h844q62 0 62 -35t-62 -35z" />
    <glyph glyph-name="F" unicode="F" horiz-adv-x="1113" 
d="M161 -24q-61 0 -61 35v1311q0 35 61 35h841q61 0 61 -35t-61 -35h-779v-580h660q62 0 62 -35t-62 -35h-660v-626q0 -35 -62 -35z" />
    <glyph glyph-name="G" unicode="G" horiz-adv-x="1411" 
d="M1140 105q-179 -129 -417 -129q-317 0 -495 196t-178 506q0 311 185 507t501 196q185 0 366.5 -96.5t224.5 -291.5q7 -26 7 -40q0 -35 -61 -35q-58 0 -62 32q-23 173 -168.5 267t-306.5 94q-271 0 -417 -189.5t-146 -443.5q0 -253 138 -442.5t412 -189.5q181 0 321 102
q170 123 170 259v196h-486q-62 0 -62 35t62 35h547q61 0 61 -35v-232q0 -79 -67.5 -168t-128.5 -133z" />
    <glyph glyph-name="H" unicode="H" horiz-adv-x="1306" 
d="M1144 -24q-61 0 -61 35v632h-860v-632q0 -35 -61 -35q-62 0 -62 35v1335q0 35 62 35q61 0 61 -35v-633h860v633q0 35 61 35q62 0 62 -35v-1335q0 -35 -62 -35z" />
    <glyph glyph-name="I" unicode="I" horiz-adv-x="223" 
d="M111 -23q-61 0 -61 35v1334q0 35 61 35q62 0 62 -35v-1334q0 -35 -62 -35z" />
    <glyph glyph-name="J" unicode="J" horiz-adv-x="886" 
d="M404 -24q-154 -1 -266.5 92t-112.5 258q0 35 62 35q61 0 61 -35q0 -280 256 -280q259 0 259 285v1016q0 35 61 35q62 0 62 -35v-1016q0 -166 -112.5 -260.5t-269.5 -94.5z" />
    <glyph glyph-name="K" unicode="K" horiz-adv-x="1187" 
d="M1084 -24q-58 0 -77 26l-518 713l-266 -252v-457q0 -30 -62 -30q-61 0 -61 30v1344q0 30 61 30q62 0 62 -30v-781l842 798q14 13 45 13q14 0 24 -3q26 -8 26 -21q0 -5 -6 -11l-565 -535l568 -782q5 -6 5 -14q0 -27 -52 -36q-16 -2 -26 -2z" />
    <glyph glyph-name="L" unicode="L" horiz-adv-x="1019" 
d="M932 0h-770q-62 0 -62 35v1311q0 35 62 35q61 0 61 -35v-1276h709q62 0 62 -35t-62 -35z" />
    <glyph glyph-name="M" unicode="M" horiz-adv-x="1509" 
d="M758 -24q-59 0 -71 27l-509 1170v-1179q0 -17 -39 -17t-39 17v1352q0 35 80 35q53 0 64 -26l542 -1249l495 1250q10 25 66 25q62 0 62 -35v-1336q0 -33 -61 -33q-62 0 -62 33v1156l-459 -1164q-10 -26 -69 -26z" />
    <glyph glyph-name="N" unicode="N" horiz-adv-x="1318" 
d="M1138 -24q-56 0 -74 25l-886 1230v-1235q0 -20 -39 -20t-39 20v1340q0 45 80 45q55 0 73 -26l887 -1229v1234q0 21 39 21t39 -21v-1340q0 -44 -80 -44z" />
    <glyph glyph-name="O" unicode="O" horiz-adv-x="1406" 
d="M703 -24q-301 0 -477 203t-176 499t176 499.5t477 203.5t477 -203.5t176 -499.5t-176 -499t-477 -203zM703 46q259 0 394.5 195.5t135.5 436.5q0 242 -135.5 437.5t-394.5 195.5t-394.5 -195.5t-135.5 -437.5q0 -241 135.5 -436.5t394.5 -195.5z" />
    <glyph glyph-name="P" unicode="P" horiz-adv-x="1232" 
d="M162 -24q-62 0 -62 35v1311q0 35 62 35h629q151 0 271 -99.5t120 -261.5q0 -161 -120 -261t-271 -100h-568v-624q0 -35 -61 -35zM791 705q113 0 190.5 89.5t77.5 201.5t-77.5 201.5t-190.5 89.5h-568v-582h568z" />
    <glyph glyph-name="Q" unicode="Q" horiz-adv-x="1439" 
d="M1329 -24q-21 0 -36 6q-100 38 -185 128q-178 -134 -405 -134q-301 0 -477 203t-176 499q0 297 176 500t477 203t477 -203t176 -500q0 -291 -171 -493q77 -107 177 -145q27 -11 27 -30q0 -11 -11 -19q-16 -15 -49 -15zM703 46q205 0 348 142q-75 119 -138.5 205.5
t-221.5 103.5q-50 6 -50 34q0 35 73 35q144 0 242.5 -84.5t168.5 -200.5q108 194 108 397q0 242 -135.5 437.5t-394.5 195.5t-394.5 -195.5t-135.5 -437.5q0 -241 135.5 -436.5t394.5 -195.5z" />
    <glyph glyph-name="R" unicode="R" horiz-adv-x="1303" 
d="M1192 -24q-24 0 -41 9q-107 56 -163.5 152t-100.5 198q-42 95 -102.5 197.5t-182.5 102.5h-379v-624q0 -35 -62 -35q-61 0 -61 35v1310q0 35 61 35h619q152 0 276.5 -98.5t124.5 -262.5q0 -148 -110 -248t-249 -111q73 -61 110 -129.5t74 -154.5q41 -94 91 -182t136 -133
q20 -9 20 -26q0 -13 -16 -23q-21 -12 -45 -12zM780 705q278 0 278 290q0 291 -278 291h-557v-581h557z" />
    <glyph glyph-name="S" unicode="S" horiz-adv-x="1200" 
d="M604 -24q-187 0 -342 89t-209 285q-3 12 -3 14q0 33 60 33q55 0 62 -29q84 -322 432 -322q141 0 282 83.5t141 246.5q0 116 -140 183q-105 50 -257 66q-90 9 -185.5 28.5t-176.5 62.5q-183 97 -183 297q0 197 180 282.5t344 85.5q163 0 309.5 -78t189.5 -250q3 -15 3 -14
q0 -33 -61 -33q-53 0 -61 30q-65 275 -380 275q-132 0 -266.5 -71.5t-134.5 -226.5q0 -112 155 -179q116 -51 276 -67q92 -10 192 -31t178 -72q141 -93 141 -288q0 -205 -185 -302.5t-361 -97.5z" />
    <glyph glyph-name="T" unicode="T" horiz-adv-x="1185" 
d="M593 -12q-62 0 -62 35v1276h-445q-61 0 -61 35t61 35h1013q61 0 61 -35t-61 -35h-445v-1276q0 -35 -61 -35z" />
    <glyph glyph-name="U" unicode="U" horiz-adv-x="1269" 
d="M1046 1346q0 35 62 35q61 0 61 -35v-922q0 -211 -174.5 -329.5t-361.5 -118.5t-360 119.5t-173 328.5v922q0 35 61 35q62 0 62 -35v-922q0 -164 128.5 -271t281.5 -107q154 0 283.5 106.5t129.5 271.5v922z" />
    <glyph glyph-name="V" unicode="V" horiz-adv-x="1298" 
d="M645 -25q-54 0 -64 26l-553 1340q-3 6 -3 12q0 28 68 28q53 0 63 -26l517 -1252l523 1263q6 15 37 15q40 0 40 -17q0 -3 -2 -7l-559 -1352q-12 -30 -67 -30z" />
    <glyph glyph-name="W" unicode="W" horiz-adv-x="1837" 
d="M1358 5q-9 -29 -72 -29q-56 0 -63 28l-305 1196l-301 -1194q-7 -30 -69 -30q-57 0 -66 26l-454 1333l-3 15q0 31 69 31q52 0 62 -30l415 -1218l307 1221q7 27 68 27q59 0 66 -30l310 -1217l412 1231q6 16 41 16q37 0 37 -17q0 -1 -2 -7z" />
    <glyph glyph-name="X" unicode="X" horiz-adv-x="1212" 
d="M69 -24q-11 0 -17 2q-27 4 -27 18q0 4 3 8l517 656l-512 674q-5 7 -5 12q0 23 45 32q14 2 25 2q49 0 67 -22l457 -601l480 609q11 14 41 14q7 0 17 -2q27 -6 27 -19q0 -2 -3 -7l-516 -655l511 -672q5 -7 5 -12q0 -23 -45 -32q-14 -2 -25 -2q-50 0 -67 22l-455 599
l-482 -611q-10 -13 -41 -13z" />
    <glyph glyph-name="Y" unicode="Y" horiz-adv-x="1217" 
d="M608 -24q-61 0 -61 34v635l-517 690q-5 6 -5 13q0 33 69 33q50 0 68 -23l474 -633l470 642q10 13 41 13q45 0 45 -20q0 -2 -3 -7l-519 -708v-635q0 -34 -62 -34z" />
    <glyph glyph-name="Z" unicode="Z" horiz-adv-x="1238" 
d="M1143 0h-1048q-24 0 -48 10q-22 10 -22 24q0 8 5 13l1008 1240h-919q-70 0 -70 35q0 34 70 34h1022q28 0 51 -11q19 -9 19 -23q0 -6 -5 -13l-1008 -1241h945q70 0 70 -34t-70 -34z" />
    <glyph glyph-name="bracketleft" unicode="[" horiz-adv-x="734" 
d="M572 -400h-410q-62 0 -62 35v1710q0 35 62 35h410q62 0 62 -35t-62 -35h-349v-1640h349q62 0 62 -35t-62 -35z" />
    <glyph glyph-name="backslash" unicode="\" horiz-adv-x="912" 
d="M733 -9q6 -15 39 -15q40 0 40 18q0 3 -2 7l-527 1364q-6 16 -39 16q-40 0 -40 -18q0 1 3 -8z" />
    <glyph glyph-name="bracketright" unicode="]" horiz-adv-x="751" 
d="M179 -400h410q62 0 62 35v1710q0 35 -62 35h-410q-62 0 -62 -35t62 -35h349v-1640h-349q-62 0 -62 -35t62 -35z" />
    <glyph glyph-name="asciicircum" unicode="^" horiz-adv-x="728" 
d="M628 1098q0 -18 -39 -18q-29 0 -35 14l-190 408l-190 -408q-6 -14 -35 -14q-39 0 -39 18q0 4 2 6l225 485q6 14 37 14q29 0 36 -15l226 -484q2 -4 2 -6z" />
    <glyph glyph-name="underscore" unicode="_" horiz-adv-x="1235" 
d="M1074 0h-913q-61 0 -61 36q0 35 61 35h913q61 0 61 -35q0 -36 -61 -36z" />
    <glyph glyph-name="grave" unicode="`" horiz-adv-x="483" 
d="M438 1080q-7 0 -16 6l-408 301q-14 10 -14 29q0 24 21 52q29 36 58 36q14 0 24 -10l371 -346q9 -9 9 -18q0 -12 -15 -31t-30 -19z" />
    <glyph glyph-name="a" unicode="a" horiz-adv-x="1066" 
d="M979 -24q-25 0 -44 11q-83 49 -100 147q-134 -158 -382 -158q-127 0 -252.5 63.5t-125.5 217.5q0 177 129.5 223.5t267.5 46.5q35 0 75.5 -2.5t81.5 -2.5q131 0 196 42v108q0 256 -299 258q-116 0 -202 -58q-96 -66 -97 -155q0 -35 -62 -35q-60 0 -60 35q1 116 125 200
q120 83 296 83q152 0 287 -76t135 -252v-450q0 -142 76 -187q17 -10 17 -24t-19 -25q-20 -10 -43 -10zM453 47q123 0 247.5 80.5t124.5 223.5v121q-86 -19 -186 -19q-43 0 -87 2t-88 2q-266 0 -266 -200q0 -210 255 -210z" />
    <glyph glyph-name="b" unicode="b" horiz-adv-x="1094" 
d="M162 -24q-62 0 -62 35v1336q0 35 62 35q61 0 61 -35v-519q111 174 349 174q219 0 345.5 -148.5t126.5 -364.5q0 -215 -126.5 -363.5t-345.5 -148.5q-248 0 -349 174v-140q0 -35 -61 -35zM572 47q175 0 262 142t87 300q0 159 -87 301t-262 142t-262 -142t-87 -301
q0 -158 87 -300t262 -142z" />
    <glyph glyph-name="c" unicode="c" horiz-adv-x="1044" 
d="M994 292q0 -75 -78 -163q-135 -153 -374 -153q-492 0 -492 507q0 226 136 371.5t365 145.5q267 0 390 -180q51 -73 51 -137q0 -34 -61 -34q-57 0 -61 32q-35 249 -319 249q-190 0 -284 -135.5t-94 -309.5q0 -173 90 -306t279 -133q285 0 330 249q5 32 61 32q61 0 61 -35z
" />
    <glyph glyph-name="d" unicode="d" horiz-adv-x="1094" 
d="M932 -24q-61 0 -61 35v140q-101 -174 -349 -174q-219 0 -345.5 148.5t-126.5 363.5q0 216 126.5 364.5t345.5 148.5q238 0 349 -174v519q0 35 61 35q62 0 62 -35v-1336q0 -35 -62 -35zM522 47q175 0 262 142t87 300q0 159 -87 301t-262 142t-262 -142t-87 -301
q0 -158 87 -300t262 -142z" />
    <glyph glyph-name="e" unicode="e" horiz-adv-x="1107" 
d="M551 -24q-501 0 -501 503q0 225 140 373t368 148q499 0 499 -468q0 -35 -61 -35h-823q0 -171 94.5 -311t283.5 -140q135 0 243 73q110 75 121 176q4 33 61 33q62 0 62 -34q0 -32 -23 -80q-37 -79 -126 -140q-143 -98 -338 -98zM934 567q-28 363 -376 363
q-311 0 -378 -363h754z" />
    <glyph glyph-name="f" unicode="f" horiz-adv-x="726" 
d="M297 -24q-62 0 -62 35v920h-149q-61 0 -61 35t61 35h149v118q0 260 296 262q56 0 114 -11q56 -9 56 -35q0 -35 -63 -35q-25 0 -51.5 5.5t-55.5 5.5q-173 -1 -173 -192v-118h211q61 0 61 -35t-61 -35h-211v-920q0 -35 -61 -35z" />
    <glyph glyph-name="g" unicode="g" horiz-adv-x="1094" 
d="M994 19q0 -223 -146.5 -323t-349.5 -100q-111 0 -244 38.5t-198 135.5q-5 8 -5 14q0 34 62 34q43 0 57 -22q48 -72 146.5 -101t181.5 -29q372 0 372 353v129q-112 -172 -348 -172q-219 0 -345.5 148.5t-126.5 364.5q0 215 126.5 363.5t345.5 148.5q237 0 349 -172v137
q0 35 61 35q62 0 62 -35v-947zM522 46q175 0 262 142t87 301q0 158 -87 300t-262 142t-262 -142t-87 -300q0 -159 87 -301t262 -142z" />
    <glyph glyph-name="h" unicode="h" horiz-adv-x="1030" 
d="M918 -24q-61 0 -61 35v540q0 142 -76 259.5t-230 117.5q-166 0 -247 -128t-81 -276v-513q0 -35 -61 -35q-62 0 -62 35v1336q0 35 62 35q61 0 61 -35v-522q95 176 328 176q192 0 310.5 -130.5t118.5 -318.5v-541q0 -35 -62 -35z" />
    <glyph glyph-name="i" unicode="i" horiz-adv-x="300" 
d="M150 1143q-75 0 -75 75t75 75t75 -75t-75 -75zM150 -24q-62 0 -62 35v954q0 35 62 35t62 -35v-954q0 -35 -62 -35z" />
    <glyph glyph-name="j" unicode="j" horiz-adv-x="612" 
d="M436 1139q-76 0 -76 76t76 76t76 -76t-76 -76zM435 1020q63 0 63 -35v-1131q0 -262 -303 -262q-56 0 -114 11q-56 9 -56 35q0 35 63 35q25 0 52 -5.5t55 -5.5q178 1 178 192v1131q0 35 62 35z" />
    <glyph glyph-name="k" unicode="k" horiz-adv-x="1028" 
d="M923 -24q-53 0 -73 23l-447 493l-180 -157v-324q0 -35 -61 -35q-62 0 -62 35v1335q0 35 62 35q61 0 61 -35v-911l627 552q13 12 43 12q16 0 26 -3q25 -7 25 -20q0 -6 -7 -12l-437 -387l496 -546q7 -8 7 -16q0 -25 -46 -36q-15 -3 -34 -3z" />
    <glyph glyph-name="l" unicode="l" horiz-adv-x="273" 
d="M136 -26q-61 0 -61 36v1336q0 35 61 35q62 0 62 -35v-1336q0 -36 -62 -36z" />
    <glyph glyph-name="m" unicode="m" horiz-adv-x="1685" 
d="M1523 -24q-61 0 -61 35v544q0 139 -62 255.5t-218 116.5t-216.5 -117.5t-60.5 -254.5v-544q0 -35 -62 -35q-61 0 -61 35v544q0 139 -58 255.5t-215 116.5q-155 0 -220.5 -134.5t-65.5 -271.5v-510q0 -35 -61 -35q-62 0 -62 35v954q0 35 62 35q61 0 61 -35v-142
q82 177 286 177q226 0 334 -191q97 191 339 191q189 0 296 -129.5t107 -315.5v-544q0 -35 -62 -35z" />
    <glyph glyph-name="n" unicode="n" horiz-adv-x="1080" 
d="M918 -24q-61 0 -61 35v539q0 142 -76 260t-230 118q-164 0 -246 -128t-82 -277v-512q0 -35 -61 -35q-62 0 -62 35v954q0 35 62 35q61 0 61 -35v-141q95 176 328 176q161 -1 295 -115.5t134 -333.5v-540q0 -35 -62 -35z" />
    <glyph glyph-name="o" unicode="o" horiz-adv-x="1110" 
d="M555 1000q222 0 363.5 -142t141.5 -370t-141.5 -370t-363.5 -142t-363.5 142t-141.5 370t141.5 370t363.5 142zM555 930q-181 0 -281.5 -134t-100.5 -308q0 -173 100.5 -307.5t281.5 -134.5q182 0 282 134.5t100 307.5q0 174 -100 308t-282 134z" />
    <glyph glyph-name="p" unicode="p" horiz-adv-x="1094" 
d="M162 -404q-62 0 -62 35v1336q0 35 62 35q61 0 61 -35v-140q100 174 349 174q219 0 345.5 -148.5t126.5 -363.5q0 -216 -126.5 -364t-345.5 -148q-239 0 -349 173v-519q0 -35 -61 -35zM572 47q175 0 262 141.5t87 300.5q0 158 -87 300t-262 142t-262 -142t-87 -300
q0 -159 87 -300.5t262 -141.5z" />
    <glyph glyph-name="q" unicode="q" horiz-adv-x="1094" 
d="M932 999q-61 0 -61 -35v-140q-101 174 -349 174q-219 0 -345.5 -148.5t-126.5 -363.5q0 -216 126.5 -364.5t345.5 -148.5q238 0 349 174v-519q0 -35 61 -35q62 0 62 35v1336q0 35 -62 35zM522 928q175 0 262 -142t87 -300q0 -159 -87 -301t-262 -142t-262 142t-87 301
q0 158 87 300t262 142z" />
    <glyph glyph-name="r" unicode="r" horiz-adv-x="724" 
d="M161 -24q-61 0 -61 35v954q0 35 61 35q62 0 62 -35v-141q26 51 92.5 113.5t189.5 62.5q103 0 179 -51q15 -10 15 -26q0 -21 -23 -36q-16 -11 -31 -11q-14 0 -23 8q-55 42 -133 42q-163 0 -214.5 -160.5t-51.5 -274.5v-480q0 -35 -62 -35z" />
    <glyph glyph-name="s" unicode="s" horiz-adv-x="917" 
d="M459 -24q-322 0 -402 262q-7 21 -7 25q0 35 61 35q53 0 61 -30q56 -222 289 -222q98 0 190.5 58t92.5 169q0 74 -101 118q-70 32 -171 46q-73 11 -145.5 24t-135.5 57q-116 82 -116 209q0 145 134.5 209t255.5 64q296 0 368 -226q7 -28 7 -29q0 -34 -62 -34
q-52 -3 -61 31q-45 188 -252 188q-89 0 -178 -49.5t-89 -153.5q0 -70 112 -117q68 -28 168 -44q73 -11 142 -25.5t133 -56.5q114 -74 114 -211q0 -154 -137.5 -225.5t-270.5 -71.5z" />
    <glyph glyph-name="t" unicode="t" horiz-adv-x="729" 
d="M648 -14q-56 -10 -114 -10q-296 0 -296 262v691h-152q-61 0 -61 35t61 35h152v346q0 35 62 35q61 0 61 -35v-346h208q61 0 61 -35t-61 -35h-208v-691q0 -192 173 -193q29 0 55.5 6t51.5 6q63 0 63 -36q0 -26 -56 -35z" />
    <glyph glyph-name="u" unicode="u" horiz-adv-x="1080" 
d="M162 1000q61 0 61 -35v-539q0 -142 76 -260t230 -118q164 0 246 128t82 277v512q0 35 61 35q62 0 62 -35v-954q0 -35 -62 -35q-61 0 -61 35v141q-95 -176 -328 -176q-161 1 -295 115.5t-134 333.5v540q0 35 62 35z" />
    <glyph glyph-name="v" unicode="v" horiz-adv-x="997" 
d="M498 -24q-55 0 -66 26l-402 951q-5 13 -5 15q0 31 63 31q57 0 68 -25l370 -876l369 887q6 15 40 15q37 0 37 -18q0 -1 -3 -10l-403 -970q-10 -26 -68 -26z" />
    <glyph glyph-name="w" unicode="w" horiz-adv-x="1562" 
d="M1090 -24q-56 0 -65 28l-242 834l-252 -832q-9 -30 -68 -30q-54 0 -65 27l-369 951q-4 10 -4 13q0 32 64 32q57 0 67 -26l331 -853l257 851q9 28 69 28q56 0 64 -27l248 -852l334 865q6 15 41 15q37 0 37 -18q0 -2 -2 -8l-376 -969q-11 -29 -69 -29z" />
    <glyph glyph-name="x" unicode="x" horiz-adv-x="966" 
d="M71 -24q-7 0 -17 2q-26 7 -26 19q0 5 3 8l391 466l-392 482q-5 6 -5 13q0 25 43 31q12 3 29 3q46 0 64 -22l336 -414l356 422q13 14 42 14q7 0 17 -2q26 -6 26 -20q0 -2 -3 -7l-390 -465l391 -482q5 -6 5 -13q0 -23 -43 -31q-13 -4 -27 -4q-48 0 -66 22l-336 414
l-356 -422q-13 -14 -42 -14z" />
    <glyph glyph-name="y" unicode="y" horiz-adv-x="1080" 
d="M516 -400q-109 0 -226.5 39.5t-182.5 136.5q-4 7 -4 13q0 34 62 34q42 0 57 -22q87 -131 294 -131q340 0 340 354v100q-109 -142 -313 -142q-443 0 -443 447v542q0 35 62 35q61 0 61 -35v-542q0 -146 82.5 -261.5t237.5 -115.5q149 0 231.5 117.5t82.5 259.5v542
q0 35 61 35q62 0 62 -35v-947q0 -424 -464 -424z" />
    <glyph glyph-name="z" unicode="z" horiz-adv-x="969" 
d="M882 0h-780q-31 0 -57 13q-20 10 -20 24q0 6 6 13l737 855h-658q-61 0 -61 36q0 35 61 35h760q29 0 53 -13q20 -11 20 -25q0 -7 -5 -13l-738 -855h682q62 0 62 -35t-62 -35z" />
    <glyph glyph-name="braceleft" unicode="{" horiz-adv-x="608" 
d="M498 -370h-34q-131 0 -192 58q-52 49 -52 116v527q0 155 -111 155q-59 0 -59 34t59 34q111 0 111 155v527q0 67 52 116q61 58 192 58h34q60 0 60 -34q0 -37 -60 -34l-48 1q-46 2 -76 -26q-34 -32 -34 -81v-518q0 -154 -84 -198q84 -44 84 -198v-518q0 -49 34 -81
q28 -26 76 -26l48 1q60 3 60 -34q0 -34 -60 -34z" />
    <glyph glyph-name="bar" unicode="|" horiz-adv-x="275" 
d="M137 -428q-37 0 -37 18v1742q0 18 37 18q38 0 38 -18v-1742q0 -18 -38 -18z" />
    <glyph glyph-name="braceright" unicode="}" horiz-adv-x="649" 
d="M151 -370h34q131 0 192 58q52 49 52 116v527q0 155 111 155q59 0 59 34t-59 34q-111 0 -111 155v527q0 67 -52 116q-61 58 -192 58h-34q-60 0 -60 -34q0 -37 60 -34l48 1q46 2 76 -26q34 -32 34 -81v-518q0 -154 84 -198q-84 -44 -84 -198v-518q0 -49 -34 -81
q-28 -26 -76 -26l-48 1q-60 3 -60 -34q0 -34 60 -34z" />
    <glyph glyph-name="asciitilde" unicode="~" horiz-adv-x="1235" 
d="M870 1060q-104 0 -172 47t-139 116q-37 36 -86 77.5t-103 41.5q-73 0 -106.5 -88t-40.5 -145q-4 -34 -66 -34q-57 3 -57 37q2 125 81 215q79 88 189 88q94 0 161 -45t134 -110q39 -38 93 -82.5t112 -44.5q74 0 105 94t37 155q3 34 62 34q61 0 61 -36q0 -124 -70 -223
q-67 -97 -195 -97z" />
    <glyph glyph-name="uni00A0" unicode="&#xa0;" horiz-adv-x="500" 
 />
    <glyph glyph-name="pound" unicode="&#xa3;" horiz-adv-x="1195" 
d="M131 -24q-20 0 -35 7q-26 11 -26 29q0 11 11 19q101 82 180.5 186t79.5 243q0 73 -30 175h-200q-61 0 -61 35t61 35h179q-23 71 -42 143t-19 148q0 176 129.5 280.5t292.5 104.5q307 0 387 -318q8 -32 8 -39q3 -33 -63 -33q-53 0 -60 31q-20 107 -85 198t-187 91
q-125 0 -213 -96.5t-87 -219.5q0 -75 20.5 -147t42.5 -143h336q61 0 61 -35t-61 -35h-314q28 -103 28 -175q0 -162 -136 -330q76 10 114 10q105 1 200 -40.5t199 -41.5q96 0 200 56q20 10 43 10q25 0 44 -11q17 -10 17 -25q0 -14 -19 -25q-146 -80 -285 -80
q-109 0 -204 43.5t-195 43.5q-117 0 -265 -82q-21 -12 -46 -12z" />
    <glyph glyph-name="yen" unicode="&#xa5;" horiz-adv-x="1024" 
d="M512 -24q-26 0 -44 10t-18 24v377h-301q-62 0 -62 34q0 35 62 35h301v194h-301q-62 0 -62 34t62 34h259l-354 617q-4 7 -4 13q0 33 68 33q55 0 68 -23l353 -632l350 641q8 14 38 14q47 0 47 -21q0 -3 -3 -9l-356 -633h259q62 0 62 -34t-62 -34h-301v-194h301q62 0 62 -35
q0 -34 -62 -34h-301v-377q0 -34 -61 -34z" />
    <glyph glyph-name="dieresis" unicode="&#xa8;" horiz-adv-x="584" 
d="M173 1080q-93 0 -93 93q0 92 93 92q92 0 92 -92q0 -93 -92 -93zM412 1080q-93 0 -93 93q0 92 93 92q92 0 92 -92q0 -93 -92 -93z" />
    <glyph glyph-name="copyright" unicode="&#xa9;" horiz-adv-x="1291" 
d="M646 -24q-229 0 -387.5 138t-158.5 374t158.5 374t387.5 138q228 0 386.5 -138t158.5 -374t-158.5 -374t-386.5 -138zM646 30q450 0 450 458q0 198 -125 328.5t-325 130.5t-325.5 -130.5t-125.5 -328.5q0 -458 451 -458zM961 337q-45 -209 -302 -209q-332 0 -332 358
q0 362 340 362q254 0 294 -206q2 -10 2 -16q0 -23 -42 -23q-40 0 -42 22q-22 176 -212 176q-130 0 -193 -99t-63 -216q0 -115 58.5 -213t189.5 -98q192 0 222 177q4 21 42 21q40 0 40 -22q0 -2 -2 -14z" />
    <glyph glyph-name="guillemotleft" unicode="&#xab;" horiz-adv-x="903" 
d="M450 380q-20 0 -31 11l-314 306q-5 5 -5 11q0 7 6 11l313 305q11 11 32 11q11 0 20 -3q18 -8 18 -19q0 -6 -5 -11l-303 -294l303 -295q5 -5 5 -11q0 -12 -18 -18q-12 -4 -21 -4zM765 380q-19 0 -32 11l-314 306q-5 5 -5 11q0 7 6 11l313 305q11 11 33 11q12 0 19 -3
q18 -8 18 -19q0 -6 -5 -11l-303 -294l303 -295q5 -5 5 -11q0 -12 -18 -18q-12 -4 -20 -4z" />
    <glyph glyph-name="uni00AD" unicode="&#xad;" horiz-adv-x="40" 
 />
    <glyph glyph-name="registered" unicode="&#xae;" horiz-adv-x="1291" 
d="M646 -24q-229 0 -387.5 138t-158.5 374t158.5 374t387.5 138q228 0 386.5 -138t158.5 -374t-158.5 -374t-386.5 -138zM646 30q450 0 450 458q0 198 -125 328.5t-325 130.5t-325.5 -130.5t-125.5 -328.5q0 -458 451 -458zM404 163q-38 0 -38 22v607q0 21 38 21h291
q198 0 198 -172q0 -145 -163 -170q38 -31 81 -127q51 -117 104 -143q12 -6 12 -16q0 -8 -10 -14q-11 -7 -29 -7q-16 0 -25 5q-68 34 -127 165q-60 135 -124 135h-170v-284q0 -22 -38 -22zM695 511q122 0 122 130q0 129 -122 129h-253v-259h253z" />
    <glyph glyph-name="macron" unicode="&#xaf;" horiz-adv-x="629" 
d="M50 1314q0 71 48 71h425q56 0 56 -71q0 -70 -56 -70h-417q-56 0 -56 70z" />
    <glyph glyph-name="degree" unicode="&#xb0;" horiz-adv-x="553" 
d="M277 1080q-277 0 -277 267q0 268 276 268q277 0 277 -268q0 -267 -276 -267zM277 1134q183 0 183 213q0 214 -184 214q-183 0 -183 -214q0 -213 184 -213z" />
    <glyph glyph-name="two_super" unicode="&#xb2;" horiz-adv-x="428" 
d="M385 1000h-345q-40 0 -40 23q0 94 31 147q26 46 126 97q60 30 125.5 75.5t65.5 122.5q0 142 -131 142q-49 0 -83 -27q-50 -39 -50 -125q0 -23 -39 -23q-37 0 -41 21q-1 6 -1 19q0 101 91 152q52 29 123 29q211 0 211 -190q0 -89 -73.5 -141.5t-144.5 -88.5
q-84 -43 -104 -77q-20 -35 -26 -110h305q40 0 40 -23t-40 -23z" />
    <glyph glyph-name="three_super" unicode="&#xb3;" horiz-adv-x="432" 
d="M223 1000q-223 0 -223 191q0 23 41 23t41 -23q0 -144 141 -144q128 0 128 144q0 137 -132 137h-27q-41 0 -41 24q0 20 38 23q8 1 15 1t14 1q115 14 115 122q0 130 -131 132q-55 0 -89 -43q-31 -38 -31 -96v-11q0 -20 -39 -23q-42 0 -42 23v13q0 82 54 130q59 53 150 53
q209 0 209 -178q0 -90 -90 -143q108 -55 108 -166q0 -190 -209 -190z" />
    <glyph glyph-name="acute" unicode="&#xb4;" horiz-adv-x="563" 
d="M125 1080q-15 0 -30 19t-15 31q0 9 9 18l371 346q10 10 24 10q29 0 58 -36q21 -28 21 -52q0 -19 -14 -29l-408 -301q-9 -6 -16 -6z" />
    <glyph glyph-name="paragraph" unicode="&#xb6;" horiz-adv-x="1011" 
d="M761 -24q-38 0 -38 17v1317h-321v-1317q0 -17 -38 -17q-37 0 -37 17v821q-227 53 -227 281q0 285 266 285h484q61 0 61 -35t-61 -35h-52v-1317q0 -17 -37 -17z" />
    <glyph glyph-name="cedilla" unicode="&#xb8;" horiz-adv-x="411" 
d="M165 -790q-117 0 -160 43q-5 5 -5 9q0 12 20 18q12 3 22 3q32 0 52.5 -15.5t70.5 -15.5q46 0 103.5 22t57.5 83q0 93 -135 95q-21 2 -32 7q-11 6 -11 13q0 6 5 16l50 137q6 18 44 18q49 0 41 -21l-49 -132q53 -8 112.5 -36.5t59.5 -96.5q0 -85 -91.5 -116t-154.5 -31z
" />
    <glyph glyph-name="one_super" unicode="&#xb9;" horiz-adv-x="224" 
d="M183 1000q-40 0 -40 24v481q-38 -37 -100 -37q-43 0 -43 23q0 19 30 22q39 6 69 41q35 37 43 98q3 24 41 24q41 0 41 -24v-628q0 -24 -41 -24z" />
    <glyph glyph-name="guillemotright" unicode="&#xbb;" horiz-adv-x="930" 
d="M481 380q20 0 31 11l314 306q5 5 5 11q0 7 -6 11l-313 305q-11 11 -32 11q-11 0 -20 -3q-18 -8 -18 -19q0 -6 5 -11l303 -294l-303 -295q-5 -5 -5 -11q0 -12 18 -18q12 -4 21 -4zM166 380q19 0 32 11l314 306q5 5 5 11q0 7 -6 11l-313 305q-11 11 -33 11q-12 0 -19 -3
q-18 -8 -18 -19q0 -6 5 -11l303 -294l-303 -295q-5 -5 -5 -11q0 -12 18 -18q12 -4 20 -4z" />
    <glyph glyph-name="questiondown" unicode="&#xbf;" horiz-adv-x="849" 
d="M375 1029q60 0 63 -34q2 -40 2 -62q0 -119 -44 -192q-29 -47 -75.5 -94t-86.5 -85q-168 -159 -168 -315q0 -294 296 -294q159 0 242 101q70 87 72 222q0 34 59 34q64 0 64 -34q0 -149 -84 -252q-115 -141 -353 -141q-158 0 -288.5 94t-130.5 270q0 114 54 196t132 155
q119 112 153 169q36 63 34 156l-1 71q0 35 60 35zM374 1288q92 0 92 -93q0 -92 -92 -92t-92 92q0 93 92 93z" />
    <glyph glyph-name="Agrave" unicode="&#xc0;" horiz-adv-x="1333" 
d="M1239 -24q-58 0 -70 27l-190 445h-685l-192 -457q-6 -15 -41 -15q-36 0 -36 18q0 1 2 7l567 1355q11 25 70 25q60 0 71 -27l569 -1333q4 -8 4 -12q0 -33 -69 -33zM949 518l-316 741l-310 -741h626zM638 1470q-7 0 -16 6l-408 301q-14 10 -14 29q0 24 21 52q29 36 58 36
q14 0 24 -10l371 -346q9 -9 9 -18q0 -12 -15 -31t-30 -19z" />
    <glyph glyph-name="Aacute" unicode="&#xc1;" horiz-adv-x="1333" 
d="M1239 -24q-58 0 -70 27l-190 445h-685l-192 -457q-6 -15 -41 -15q-36 0 -36 18q0 1 2 7l567 1355q11 25 70 25q60 0 71 -27l569 -1333q4 -8 4 -12q0 -33 -69 -33zM949 518l-316 741l-310 -741h626zM635 1457q-15 0 -30 19t-15 31q0 9 9 18l371 346q10 10 24 10
q29 0 58 -36q21 -28 21 -52q0 -19 -14 -29l-408 -301q-9 -6 -16 -6z" />
    <glyph glyph-name="Acircumflex" unicode="&#xc2;" horiz-adv-x="1333" 
d="M1239 -24q-58 0 -70 27l-190 445h-685l-192 -457q-6 -15 -41 -15q-36 0 -36 18q0 1 2 7l567 1355q11 25 70 25q60 0 71 -27l569 -1333q4 -8 4 -12q0 -33 -69 -33zM949 518l-316 741l-310 -741h626zM928 1488q0 -18 -39 -18q-29 0 -35 14l-190 408l-190 -408
q-6 -14 -35 -14q-39 0 -39 18q0 4 2 6l225 485q6 14 37 14q29 0 36 -15l226 -484q2 -4 2 -6z" />
    <glyph glyph-name="Atilde" unicode="&#xc3;" horiz-adv-x="1333" 
d="M1239 -24q-58 0 -70 27l-190 445h-685l-192 -457q-6 -15 -41 -15q-36 0 -36 18q0 1 2 7l567 1355q11 25 70 25q60 0 71 -27l569 -1333q4 -8 4 -12q0 -33 -69 -33zM949 518l-316 741l-310 -741h626zM970 1460q-104 0 -172 47t-139 116q-37 36 -86 77.5t-103 41.5
q-73 0 -106.5 -88t-40.5 -145q-4 -34 -66 -34q-57 3 -57 37q2 125 81 215q79 88 189 88q94 0 161 -45t134 -110q39 -38 93 -82.5t112 -44.5q74 0 105 94t37 155q3 34 62 34q61 0 61 -36q0 -124 -70 -223q-67 -97 -195 -97z" />
    <glyph glyph-name="Adieresis" unicode="&#xc4;" horiz-adv-x="1333" 
d="M1239 -24q-58 0 -70 27l-190 445h-685l-192 -457q-6 -15 -41 -15q-36 0 -36 18q0 1 2 7l567 1355q11 25 70 25q60 0 71 -27l569 -1333q4 -8 4 -12q0 -33 -69 -33zM949 518l-316 741l-310 -741h626zM572 1464q-93 0 -93 93q0 92 93 92q92 0 92 -92q0 -93 -92 -93z
M811 1464q-93 0 -93 93q0 92 93 92q92 0 92 -92q0 -93 -92 -93z" />
    <glyph glyph-name="Aring" unicode="&#xc5;" horiz-adv-x="1333" 
d="M1239 -24q-58 0 -70 27l-190 445h-685l-192 -457q-6 -15 -41 -15q-36 0 -36 18q0 1 2 7l567 1355q11 25 70 25q60 0 71 -27l569 -1333q4 -8 4 -12q0 -33 -69 -33zM949 518l-316 741l-310 -741h626zM658 1464q-277 0 -277 267q0 268 276 268q277 0 277 -268
q0 -267 -276 -267zM658 1518q183 0 183 213q0 214 -184 214q-183 0 -183 -214q0 -213 184 -213z" />
    <glyph glyph-name="AE" unicode="&#xc6;" horiz-adv-x="1973" 
d="M294 449l-192 -458q-6 -15 -41 -15q-36 0 -36 18q0 1 2 7l567 1331q11 25 69 25h1173q62 0 62 -35t-62 -35h-843v-573h725q61 0 61 -35t-61 -35h-725v-574h843q62 0 62 -35t-62 -35h-905q-61 0 -61 35v414h-576zM870 519v768h-220l-327 -768h547z" />
    <glyph glyph-name="Ccedilla" unicode="&#xc7;" horiz-adv-x="1302" 
d="M1252 402q0 -6 -4 -24q-39 -183 -194 -287t-334 -116l-35 -96q53 -8 112.5 -36.5t59.5 -96.5q0 -85 -91.5 -116t-154.5 -31q-118 0 -160 43q-6 5 -6 9q0 12 21 18q12 3 21 3q32 0 53 -15.5t71 -15.5q45 0 102.5 22t57.5 83q0 93 -134 95q-21 2 -32 7q-12 6 -12 13
q0 -4 5 16l36 98q-291 16 -437.5 219.5t-146.5 485.5q0 294 167 496.5t476 202.5q185 0 352 -104t202 -299q3 -24 3 -26q0 -34 -63 -34q-55 0 -60 32q-22 164 -150 262.5t-284 98.5q-264 0 -392 -196t-128 -433q0 -233 119.5 -434.5t384.5 -201.5q160 0 293 100.5t160 261.5
q6 30 60 30q62 0 62 -34z" />
    <glyph glyph-name="Egrave" unicode="&#xc8;" horiz-adv-x="1204" 
d="M1067 0h-898q-69 0 -69 39v1280q0 39 69 39h898q62 0 62 -35t-62 -35h-844v-573h717q61 0 61 -35t-61 -35h-717v-575h844q62 0 62 -35t-62 -35zM738 1414q-7 0 -16 6l-408 301q-14 10 -14 29q0 24 21 52q29 36 58 36q14 0 24 -10l371 -346q9 -9 9 -18q0 -12 -15 -31
t-30 -19z" />
    <glyph glyph-name="Eacute" unicode="&#xc9;" horiz-adv-x="1204" 
d="M1067 0h-898q-69 0 -69 39v1280q0 39 69 39h898q62 0 62 -35t-62 -35h-844v-573h717q61 0 61 -35t-61 -35h-717v-575h844q62 0 62 -35t-62 -35zM526 1424q-15 0 -30 19t-15 31q0 9 9 18l371 346q10 10 24 10q29 0 58 -36q21 -28 21 -52q0 -19 -14 -29l-408 -301
q-9 -6 -16 -6z" />
    <glyph glyph-name="Ecircumflex" unicode="&#xca;" horiz-adv-x="1204" 
d="M1067 0h-898q-69 0 -69 39v1280q0 39 69 39h898q62 0 62 -35t-62 -35h-844v-573h717q61 0 61 -35t-61 -35h-717v-575h844q62 0 62 -35t-62 -35zM868 1434q0 -18 -39 -18q-29 0 -35 14l-190 408l-190 -408q-6 -14 -35 -14q-39 0 -39 18q0 4 2 6l225 485q6 14 37 14
q29 0 36 -15l226 -484q2 -4 2 -6z" />
    <glyph glyph-name="Edieresis" unicode="&#xcb;" horiz-adv-x="1204" 
d="M1067 0h-898q-69 0 -69 39v1280q0 39 69 39h898q62 0 62 -35t-62 -35h-844v-573h717q61 0 61 -35t-61 -35h-717v-575h844q62 0 62 -35t-62 -35zM533 1514q-93 0 -93 93q0 92 93 92q92 0 92 -92q0 -93 -92 -93zM772 1514q-93 0 -93 93q0 92 93 92q92 0 92 -92
q0 -93 -92 -93z" />
    <glyph glyph-name="Igrave" unicode="&#xcc;" horiz-adv-x="223" 
d="M111 -23q-61 0 -61 35v1334q0 35 61 35q62 0 62 -35v-1334q0 -35 -62 -35zM103 1451q-7 0 -16 6l-408 301q-14 10 -14 29q0 24 21 52q29 36 58 36q14 0 24 -10l371 -346q9 -9 9 -18q0 -12 -15 -31t-30 -19z" />
    <glyph glyph-name="Iacute" unicode="&#xcd;" horiz-adv-x="263" 
d="M132 -23q61 0 61 35v1334q0 35 -61 35q-62 0 -62 -35v-1334q0 -35 62 -35zM140 1451q7 0 16 6l408 301q14 10 14 29q0 24 -21 52q-29 36 -58 36q-14 0 -24 -10l-371 -346q-9 -9 -9 -18q0 -12 15 -31t30 -19z" />
    <glyph glyph-name="Icircumflex" unicode="&#xce;" horiz-adv-x="223" 
d="M111 -23q-61 0 -61 35v1334q0 35 61 35q62 0 62 -35v-1334q0 -35 -62 -35zM375 1432q0 -18 -39 -18q-29 0 -35 14l-190 408l-190 -408q-6 -14 -35 -14q-39 0 -39 18q0 4 2 6l225 485q6 14 37 14q29 0 36 -15l226 -484q2 -4 2 -6z" />
    <glyph glyph-name="Idieresis" unicode="&#xcf;" horiz-adv-x="223" 
d="M111 -23q-61 0 -61 35v1334q0 35 61 35q62 0 62 -35v-1334q0 -35 -62 -35zM28 1513q-93 0 -93 93q0 92 93 92q92 0 92 -92q0 -93 -92 -93zM267 1513q-93 0 -93 93q0 92 93 92q92 0 92 -92q0 -93 -92 -93z" />
    <glyph glyph-name="Eth" unicode="&#xd0;" horiz-adv-x="1512" 
d="M833 -24h-466q-62 0 -62 35v608h-163q-62 0 -62 36q0 35 62 35h163v609q0 35 62 35h466q289 0 444 -204.5t155 -478.5q0 -276 -155.5 -475.5t-443.5 -199.5zM833 46q242 0 359 194t117 411q0 215 -117 414t-359 199h-405v-574h164q62 0 62 -35q0 -36 -62 -36h-164v-573
h405z" />
    <glyph glyph-name="Ntilde" unicode="&#xd1;" horiz-adv-x="1318" 
d="M911 1448q-104 0 -172 47t-139 116q-37 36 -86 77.5t-103 41.5q-73 0 -106.5 -88t-40.5 -145q-4 -34 -66 -34q-57 3 -57 37q2 125 81 215q79 88 189 88q94 0 161 -45t134 -110q39 -38 93 -82.5t112 -44.5q74 0 105 94t37 155q3 34 62 34q61 0 61 -36q0 -124 -70 -223
q-67 -97 -195 -97zM1138 -24q-56 0 -74 25l-886 1230v-1235q0 -20 -39 -20t-39 20v1340q0 45 80 45q55 0 73 -26l887 -1229v1234q0 21 39 21t39 -21v-1340q0 -44 -80 -44z" />
    <glyph glyph-name="Ograve" unicode="&#xd2;" horiz-adv-x="1406" 
d="M724 1461q15 0 30 19t15 31q0 9 -9 18l-371 346q-10 10 -24 10q-29 0 -58 -36q-21 -28 -21 -52q0 -19 14 -29l408 -301q9 -6 16 -6zM703 -24q301 0 477 203t176 499t-176 499.5t-477 203.5t-477 -203.5t-176 -499.5t176 -499t477 -203zM703 46q-259 0 -394.5 195.5
t-135.5 436.5q0 242 135.5 437.5t394.5 195.5t394.5 -195.5t135.5 -437.5q0 -241 -135.5 -436.5t-394.5 -195.5z" />
    <glyph glyph-name="Oacute" unicode="&#xd3;" horiz-adv-x="1406" 
d="M682 1461q-15 0 -30 19t-15 31q0 9 9 18l371 346q10 10 24 10q29 0 58 -36q21 -28 21 -52q0 -19 -14 -29l-408 -301q-9 -6 -16 -6zM703 -24q-301 0 -477 203t-176 499t176 499.5t477 203.5t477 -203.5t176 -499.5t-176 -499t-477 -203zM703 46q259 0 394.5 195.5
t135.5 436.5q0 242 -135.5 437.5t-394.5 195.5t-394.5 -195.5t-135.5 -437.5q0 -241 135.5 -436.5t394.5 -195.5z" />
    <glyph glyph-name="Ocircumflex" unicode="&#xd4;" horiz-adv-x="1406" 
d="M967 1482q0 -18 -39 -18q-29 0 -35 14l-190 408l-190 -408q-6 -14 -35 -14q-39 0 -39 18q0 4 2 6l225 485q6 14 37 14q29 0 36 -15l226 -484q2 -4 2 -6zM703 -24q-301 0 -477 203t-176 499t176 499.5t477 203.5t477 -203.5t176 -499.5t-176 -499t-477 -203zM703 46
q259 0 394.5 195.5t135.5 436.5q0 242 -135.5 437.5t-394.5 195.5t-394.5 -195.5t-135.5 -437.5q0 -241 135.5 -436.5t394.5 -195.5z" />
    <glyph glyph-name="Otilde" unicode="&#xd5;" horiz-adv-x="1406" 
d="M703 -24q-301 0 -477 203t-176 499t176 499.5t477 203.5t477 -203.5t176 -499.5t-176 -499t-477 -203zM703 46q259 0 394.5 195.5t135.5 436.5q0 242 -135.5 437.5t-394.5 195.5t-394.5 -195.5t-135.5 -437.5q0 -241 135.5 -436.5t394.5 -195.5zM970 1414q-104 0 -172 47
t-139 116q-37 36 -86 77.5t-103 41.5q-73 0 -106.5 -88t-40.5 -145q-4 -34 -66 -34q-57 3 -57 37q2 125 81 215q79 88 189 88q94 0 161 -45t134 -110q39 -38 93 -82.5t112 -44.5q74 0 105 94t37 155q3 34 62 34q61 0 61 -36q0 -124 -70 -223q-67 -97 -195 -97z" />
    <glyph glyph-name="Odieresis" unicode="&#xd6;" horiz-adv-x="1406" 
d="M600 1464q-93 0 -93 93q0 92 93 92q92 0 92 -92q0 -93 -92 -93zM839 1464q-93 0 -93 93q0 92 93 92q92 0 92 -92q0 -93 -92 -93zM703 -24q-301 0 -477 203t-176 499t176 499.5t477 203.5t477 -203.5t176 -499.5t-176 -499t-477 -203zM703 46q259 0 394.5 195.5
t135.5 436.5q0 242 -135.5 437.5t-394.5 195.5t-394.5 -195.5t-135.5 -437.5q0 -241 135.5 -436.5t394.5 -195.5z" />
    <glyph glyph-name="multiply" unicode="&#xd7;" horiz-adv-x="880" 
d="M740 120q-23 0 -35 12l-265 274l-265 -274q-12 -12 -35 -12q-10 0 -19 3q-21 8 -21 21q0 6 5 11l289 299l-289 299q-5 5 -5 11q0 14 21 20q9 3 20 3q22 0 34 -12l265 -274l265 274q12 12 35 12q10 0 19 -3q21 -6 21 -20q0 -6 -5 -11l-289 -299l289 -299q5 -5 5 -11
q0 -13 -21 -21q-9 -3 -19 -3z" />
    <glyph glyph-name="Oslash" unicode="&#xd8;" horiz-adv-x="1466" 
d="M733 -24q-160 0 -288 61l-21 -39q-12 -22 -54 -22q-57 0 -57 31q0 3 5 13l38 69q-276 196 -276 589q0 297 176 500t477 203q159 0 289 -62q34 61 76 61q56 0 56 -30q0 -6 -5 -13l-38 -71q275 -195 275 -588q0 -296 -176 -499t-477 -203zM401 173l581 1073
q-111 65 -249 65q-259 0 -394.5 -195.5t-135.5 -437.5q0 -322 198 -505zM733 46q259 0 394.5 195.5t135.5 436.5q0 322 -197 505l-581 -1073q109 -64 248 -64z" />
    <glyph glyph-name="Ugrave" unicode="&#xd9;" horiz-adv-x="1269" 
d="M1046 1346q0 35 62 35q61 0 61 -35v-922q0 -211 -174.5 -329.5t-361.5 -118.5t-360 119.5t-173 328.5v922q0 35 61 35q62 0 62 -35v-922q0 -164 128.5 -271t281.5 -107q154 0 283.5 106.5t129.5 271.5v922zM668 1464q-7 0 -16 6l-408 301q-14 10 -14 29q0 24 21 52
q29 36 58 36q14 0 24 -10l371 -346q9 -9 9 -18q0 -12 -15 -31t-30 -19z" />
    <glyph glyph-name="Uacute" unicode="&#xda;" horiz-adv-x="1269" 
d="M1046 1346q0 35 62 35q61 0 61 -35v-922q0 -211 -174.5 -329.5t-361.5 -118.5t-360 119.5t-173 328.5v922q0 35 61 35q62 0 62 -35v-922q0 -164 128.5 -271t281.5 -107q154 0 283.5 106.5t129.5 271.5v922zM596 1445q-15 0 -30 19t-15 31q0 9 9 18l371 346q10 10 24 10
q29 0 58 -36q21 -28 21 -52q0 -19 -14 -29l-408 -301q-9 -6 -16 -6z" />
    <glyph glyph-name="Ucircumflex" unicode="&#xdb;" horiz-adv-x="1269" 
d="M1046 1346q0 35 62 35q61 0 61 -35v-922q0 -211 -174.5 -329.5t-361.5 -118.5t-360 119.5t-173 328.5v922q0 35 61 35q62 0 62 -35v-922q0 -164 128.5 -271t281.5 -107q154 0 283.5 106.5t129.5 271.5v922zM898 1482q0 -18 -39 -18q-29 0 -35 14l-190 408l-190 -408
q-6 -14 -35 -14q-39 0 -39 18q0 4 2 6l225 485q6 14 37 14q29 0 36 -15l226 -484q2 -4 2 -6z" />
    <glyph glyph-name="Udieresis" unicode="&#xdc;" horiz-adv-x="1269" 
d="M539 1474q-93 0 -93 93q0 92 93 92q92 0 92 -92q0 -93 -92 -93zM778 1474q-93 0 -93 93q0 92 93 92q92 0 92 -92q0 -93 -92 -93zM1046 1346q0 35 62 35q61 0 61 -35v-922q0 -211 -174.5 -329.5t-361.5 -118.5t-360 119.5t-173 328.5v922q0 35 61 35q62 0 62 -35v-922
q0 -164 128.5 -271t281.5 -107q154 0 283.5 106.5t129.5 271.5v922z" />
    <glyph glyph-name="Yacute" unicode="&#xdd;" horiz-adv-x="1216" 
d="M615 1412q-15 0 -30 19t-15 31q0 9 9 18l371 346q10 10 24 10q29 0 58 -36q21 -28 21 -52q0 -19 -14 -29l-408 -301q-9 -6 -16 -6zM608 -24q-61 0 -61 34v635l-517 690q-5 6 -5 13q0 33 69 33q50 0 68 -23l474 -633l470 642q10 13 41 13q45 0 45 -20q0 -2 -3 -7
l-519 -708v-635q0 -34 -62 -34z" />
    <glyph glyph-name="Thorn" unicode="&#xde;" horiz-adv-x="1232" 
d="M162 -24q-62 0 -62 35v1318q0 35 62 35q61 0 61 -35v-288h568q151 0 271 -99.5t120 -260.5q0 -162 -120 -261.5t-271 -99.5h-568v-309q0 -35 -61 -35zM791 390q113 0 190.5 89.5t77.5 201.5q0 111 -77.5 200.5t-190.5 89.5h-568v-581h568z" />
    <glyph glyph-name="germandbls" unicode="&#xdf;" horiz-adv-x="1099" 
d="M112 -24q-62 0 -62 35v977q0 393 408 393q125 0 239.5 -64t114.5 -207q0 -121 -77 -207.5t-77 -175.5q0 -127 195.5 -215.5t195.5 -278.5q0 -130 -112 -193t-225 -63q-132 0 -221 60q-113 75 -113 173q0 36 58 36q59 0 64 -32q16 -85 84 -131q54 -36 127 -36
q214 0 214 186q0 173 -196 255.5t-196 235.5q0 104 77 189t78 198q0 199 -230 199q-284 0 -284 -322v-977q0 -35 -62 -35z" />
    <glyph glyph-name="agrave" unicode="&#xe0;" horiz-adv-x="1066" 
d="M979 -24q-25 0 -44 11q-83 49 -100 147q-134 -158 -382 -158q-127 0 -252.5 63.5t-125.5 217.5q0 177 129.5 223.5t267.5 46.5q35 0 75.5 -2.5t81.5 -2.5q131 0 196 42v108q0 256 -299 258q-116 0 -202 -58q-96 -66 -97 -155q0 -35 -62 -35q-60 0 -60 35q1 116 125 200
q120 83 296 83q152 0 287 -76t135 -252v-450q0 -142 76 -187q17 -10 17 -24t-19 -25q-20 -10 -43 -10zM453 47q123 0 247.5 80.5t124.5 223.5v121q-86 -19 -186 -19q-43 0 -87 2t-88 2q-266 0 -266 -200q0 -210 255 -210zM515 1230q15 0 30 19t15 31q0 9 -9 18l-371 346
q-10 10 -24 10q-29 0 -58 -36q-21 -28 -21 -52q0 -19 14 -29l408 -301q9 -6 16 -6z" />
    <glyph glyph-name="aacute" unicode="&#xe1;" horiz-adv-x="1066" 
d="M557 1224q-15 0 -30 19t-15 31q0 9 9 18l371 346q10 10 24 10q29 0 58 -36q21 -28 21 -52q0 -19 -14 -29l-408 -301q-9 -6 -16 -6zM979 -24q-25 0 -44 11q-83 49 -100 147q-134 -158 -382 -158q-127 0 -252.5 63.5t-125.5 217.5q0 177 129.5 223.5t267.5 46.5
q35 0 75.5 -2.5t81.5 -2.5q131 0 196 42v108q0 256 -299 258q-116 0 -202 -58q-96 -66 -97 -155q0 -35 -62 -35q-60 0 -60 35q1 116 125 200q120 83 296 83q152 0 287 -76t135 -252v-450q0 -142 76 -187q17 -10 17 -24t-19 -25q-20 -10 -43 -10zM453 47q123 0 247.5 80.5
t124.5 223.5v121q-86 -19 -186 -19q-43 0 -87 2t-88 2q-266 0 -266 -200q0 -210 255 -210z" />
    <glyph glyph-name="acircumflex" unicode="&#xe2;" horiz-adv-x="1066" 
d="M979 -24q-25 0 -44 11q-83 49 -100 147q-134 -158 -382 -158q-127 0 -252.5 63.5t-125.5 217.5q0 177 129.5 223.5t267.5 46.5q35 0 75.5 -2.5t81.5 -2.5q131 0 196 42v108q0 256 -299 258q-116 0 -202 -58q-96 -66 -97 -155q0 -35 -62 -35q-60 0 -60 35q1 116 125 200
q120 83 296 83q152 0 287 -76t135 -252v-450q0 -142 76 -187q17 -10 17 -24t-19 -25q-20 -10 -43 -10zM453 47q123 0 247.5 80.5t124.5 223.5v121q-86 -19 -186 -19q-43 0 -87 2t-88 2q-266 0 -266 -200q0 -210 255 -210zM808 1098q0 -18 -39 -18q-29 0 -35 14l-190 408
l-190 -408q-6 -14 -35 -14q-39 0 -39 18q0 4 2 6l225 485q6 14 37 14q29 0 36 -15l226 -484q2 -4 2 -6z" />
    <glyph glyph-name="atilde" unicode="&#xe3;" horiz-adv-x="1066" 
d="M979 -24q-25 0 -44 11q-83 49 -100 147q-134 -158 -382 -158q-127 0 -252.5 63.5t-125.5 217.5q0 177 129.5 223.5t267.5 46.5q35 0 75.5 -2.5t81.5 -2.5q131 0 196 42v108q0 256 -299 258q-116 0 -202 -58q-96 -66 -97 -155q0 -35 -62 -35q-60 0 -60 35q1 116 125 200
q120 83 296 83q152 0 287 -76t135 -252v-450q0 -142 76 -187q17 -10 17 -24t-19 -25q-20 -10 -43 -10zM453 47q123 0 247.5 80.5t124.5 223.5v121q-86 -19 -186 -19q-43 0 -87 2t-88 2q-266 0 -266 -200q0 -210 255 -210zM785 1060q-104 0 -172 47t-139 116q-37 36 -86 77.5
t-103 41.5q-73 0 -106.5 -88t-40.5 -145q-4 -34 -66 -34q-57 3 -57 37q2 125 81 215q79 88 189 88q94 0 161 -45t134 -110q39 -38 93 -82.5t112 -44.5q74 0 105 94t37 155q3 34 62 34q61 0 61 -36q0 -124 -70 -223q-67 -97 -195 -97z" />
    <glyph glyph-name="adieresis" unicode="&#xe4;" horiz-adv-x="1066" 
d="M441.276 1099q-95.2988 0 -95.2988 93q0 92 95.2988 92q94.2744 0 94.2744 -92q0 -93 -94.2744 -93zM686.185 1099q-95.2988 0 -95.2988 93q0 92 95.2988 92q94.2744 0 94.2744 -92q0 -93 -94.2744 -93zM979 -24q-25 0 -44 11q-83 49 -100 147q-134 -158 -382 -158
q-127 0 -252.5 63.5t-125.5 217.5q0 177 129.5 223.5t267.5 46.5q35 0 75.5 -2.5t81.5 -2.5q131 0 196 42v108q0 256 -299 258q-116 0 -202 -58q-96 -66 -97 -155q0 -35 -62 -35q-60 0 -60 35q1 116 125 200q120 83 296 83q152 0 287 -76t135 -252v-450q0 -142 76 -187
q17 -10 17 -24t-19 -25q-20 -10 -43 -10zM453 47q123 0 247.5 80.5t124.5 223.5v121q-86 -19 -186 -19q-43 0 -87 2t-88 2q-266 0 -266 -200q0 -210 255 -210z" />
    <glyph glyph-name="aring" unicode="&#xe5;" horiz-adv-x="1066" 
d="M979 -24q-25 0 -44 11q-83 49 -100 147q-134 -158 -382 -158q-127 0 -252.5 63.5t-125.5 217.5q0 177 129.5 223.5t267.5 46.5q35 0 75.5 -2.5t81.5 -2.5q131 0 196 42v108q0 256 -299 258q-116 0 -202 -58q-96 -66 -97 -155q0 -35 -62 -35q-60 0 -60 35q1 116 125 200
q120 83 296 83q152 0 287 -76t135 -252v-450q0 -142 76 -187q17 -10 17 -24t-19 -25q-20 -10 -43 -10zM453 47q123 0 247.5 80.5t124.5 223.5v121q-86 -19 -186 -19q-43 0 -87 2t-88 2q-266 0 -266 -200q0 -210 255 -210zM537 1080q-277 0 -277 267q0 268 276 268
q277 0 277 -268q0 -267 -276 -267zM537 1134q183 0 183 213q0 214 -184 214q-183 0 -183 -214q0 -213 184 -213z" />
    <glyph glyph-name="ae" unicode="&#xe6;" horiz-adv-x="1842" 
d="M1306 -24q-272 0 -404 214q-57 -72 -123 -117q-145 -97 -326 -97q-127 0 -252.5 63.5t-125.5 217.5q0 177 129.5 223.5t267.5 46.5q35 0 75.5 -2.5t81.5 -2.5q131 0 196 42v108q0 256 -299 258q-116 0 -202 -58q-96 -66 -97 -155q0 -35 -62 -35q-60 0 -60 35
q1 116 125 200q120 83 296 83q301 0 395 -197q137 197 392 197q479 0 479 -468q0 -35 -59 -35h-790q0 -171 91 -311t272 -140q130 0 233 73q106 74 117 176q3 33 58 33q60 0 60 -34q0 -35 -22 -81q-36 -79 -121 -139q-139 -98 -325 -98zM1674 567q-26 363 -361 363
q-298 0 -363 -363h724zM453 47q123 0 247.5 80.5t124.5 223.5v121q-86 -19 -186 -19q-43 0 -87 2t-88 2q-266 0 -266 -200q0 -210 255 -210z" />
    <glyph glyph-name="ccedilla" unicode="&#xe7;" horiz-adv-x="1044" 
d="M994 292q0 -75 -78 -163q-135 -153 -374 -153q-492 0 -492 507q0 226 136 371.5t365 145.5q267 0 390 -180q51 -73 51 -137q0 -34 -61 -34q-57 0 -61 32q-35 249 -319 249q-190 0 -284 -135.5t-94 -309.5q0 -173 90 -306t279 -133q285 0 330 249q5 32 61 32q61 0 61 -35z
M445 -454q-117 0 -160 43q-5 5 -5 9q0 12 20 18q12 3 22 3q32 0 52.5 -15.5t70.5 -15.5q46 0 103.5 22t57.5 83q0 93 -135 95q-21 2 -32 7q-11 6 -11 13q0 6 5 16l50 137q6 18 44 18q49 0 41 -21l-49 -132q53 -8 112.5 -36.5t59.5 -96.5q0 -85 -91.5 -116t-154.5 -31z" />
    <glyph glyph-name="egrave" unicode="&#xe8;" horiz-adv-x="1107" 
d="M596 1100q-7 0 -16 6l-408 301q-14 10 -14 29q0 24 21 52q29 36 58 36q14 0 24 -10l371 -346q9 -9 9 -18q0 -12 -15 -31t-30 -19zM551 -24q-501 0 -501 503q0 225 140 373t368 148q499 0 499 -468q0 -35 -61 -35h-823q0 -171 94.5 -311t283.5 -140q135 0 243 73
q110 75 121 176q4 33 61 33q62 0 62 -34q0 -32 -23 -80q-37 -79 -126 -140q-143 -98 -338 -98zM934 567q-28 363 -376 363q-311 0 -378 -363h754z" />
    <glyph glyph-name="eacute" unicode="&#xe9;" horiz-adv-x="1107" 
d="M553 1234q-15 0 -30 19t-15 31q0 9 9 18l371 346q10 10 24 10q29 0 58 -36q21 -28 21 -52q0 -19 -14 -29l-408 -301q-9 -6 -16 -6zM551 -24q-501 0 -501 503q0 225 140 373t368 148q499 0 499 -468q0 -35 -61 -35h-823q0 -171 94.5 -311t283.5 -140q135 0 243 73
q110 75 121 176q4 33 61 33q62 0 62 -34q0 -32 -23 -80q-37 -79 -126 -140q-143 -98 -338 -98zM934 567q-28 363 -376 363q-311 0 -378 -363h754z" />
    <glyph glyph-name="ecircumflex" unicode="&#xea;" horiz-adv-x="1107" 
d="M551 -24q-501 0 -501 503q0 225 140 373t368 148q499 0 499 -468q0 -35 -61 -35h-823q0 -171 94.5 -311t283.5 -140q135 0 243 73q110 75 121 176q4 33 61 33q62 0 62 -34q0 -32 -23 -80q-37 -79 -126 -140q-143 -98 -338 -98zM934 567q-28 363 -376 363
q-311 0 -378 -363h754zM828 1098q0 -18 -39 -18q-29 0 -35 14l-190 408l-190 -408q-6 -14 -35 -14q-39 0 -39 18q0 4 2 6l225 485q6 14 37 14q29 0 36 -15l226 -484q2 -4 2 -6z" />
    <glyph glyph-name="edieresis" unicode="&#xeb;" horiz-adv-x="1107" 
d="M459 1101q-93 0 -93 93q0 92 93 92q92 0 92 -92q0 -93 -92 -93zM698 1101q-93 0 -93 93q0 92 93 92q92 0 92 -92q0 -93 -92 -93zM551 -24q-501 0 -501 503q0 225 140 373t368 148q499 0 499 -468q0 -35 -61 -35h-823q0 -171 94.5 -311t283.5 -140q135 0 243 73
q110 75 121 176q4 33 61 33q62 0 62 -34q0 -32 -23 -80q-37 -79 -126 -140q-143 -98 -338 -98zM934 567q-28 363 -376 363q-311 0 -378 -363h754z" />
    <glyph glyph-name="igrave" unicode="&#xec;" horiz-adv-x="273" 
d="M137 -24q-62 0 -62 35v954q0 35 62 35t62 -35v-954q0 -35 -62 -35zM138 1111q-7 0 -16 6l-408 301q-14 10 -14 29q0 24 21 52q29 36 58 36q14 0 24 -10l371 -346q9 -9 9 -18q0 -12 -15 -31t-30 -19z" />
    <glyph glyph-name="iacute" unicode="&#xed;" horiz-adv-x="273" 
d="M136 -24q62 0 62 35v954q0 35 -62 35t-62 -35v-954q0 -35 62 -35zM135 1111q7 0 16 6l408 301q14 10 14 29q0 24 -21 52q-29 36 -58 36q-14 0 -24 -10l-371 -346q-9 -9 -9 -18q0 -12 15 -31t30 -19z" />
    <glyph glyph-name="icircumflex" unicode="&#xee;" horiz-adv-x="273" 
d="M137 -24q-62 0 -62 35v954q0 35 62 35t62 -35v-954q0 -35 -62 -35zM400 1058q0 -18 -39 -18q-29 0 -35 14l-190 408l-190 -408q-6 -14 -35 -14q-39 0 -39 18q0 4 2 6l225 485q6 14 37 14q29 0 36 -15l226 -484q2 -4 2 -6z" />
    <glyph glyph-name="idieresis" unicode="&#xef;" horiz-adv-x="273" 
d="M137 -24q-62 0 -62 35v954q0 35 62 35t62 -35v-954q0 -35 -62 -35zM52 1099q-93 0 -93 93q0 92 93 92q92 0 92 -92q0 -93 -92 -93zM291 1099q-93 0 -93 93q0 92 93 92q92 0 92 -92q0 -93 -92 -93z" />
    <glyph glyph-name="eth" unicode="&#xf0;" horiz-adv-x="1170" 
d="M585 -24q-222 0 -363.5 142t-141.5 370t141.5 370t363.5 142q159 0 280 -76q-68 137 -178 260l-156 -83q-18 -9 -42 -9q-27 0 -44 10t-17 24q0 15 19 25l179 96q-35 34 -91 79q-11 8 -11 20q0 17 26 28q19 7 36 7q33 0 49 -15q56 -46 82 -70l142 75q20 10 43 10
q25 0 44 -11q17 -11 17 -24q0 -14 -20 -25l-164 -87q116 -124 190 -264q121 -227 121 -482q0 -228 -141.5 -370t-363.5 -142zM585 46q182 0 282 134t100 308q0 173 -100 307.5t-282 134.5q-181 0 -281.5 -134.5t-100.5 -307.5q0 -174 100.5 -308t281.5 -134z" />
    <glyph glyph-name="ntilde" unicode="&#xf1;" horiz-adv-x="1080" 
d="M918 -24q-61 0 -61 35v539q0 142 -76 260t-230 118q-164 0 -246 -128t-82 -277v-512q0 -35 -61 -35q-62 0 -62 35v954q0 35 62 35q61 0 61 -35v-141q95 176 328 176q161 -1 295 -115.5t134 -333.5v-540q0 -35 -62 -35zM793 1060q-104 0 -172 47t-139 116q-37 36 -86 77.5
t-103 41.5q-73 0 -106.5 -88t-40.5 -145q-4 -34 -66 -34q-57 3 -57 37q2 125 81 215q79 88 189 88q94 0 161 -45t134 -110q39 -38 93 -82.5t112 -44.5q74 0 105 94t37 155q3 34 62 34q61 0 61 -36q0 -124 -70 -223q-67 -97 -195 -97z" />
    <glyph glyph-name="ograve" unicode="&#xf2;" horiz-adv-x="1110" 
d="M577 1051q-7 0 -16 6l-408 301q-14 10 -14 29q0 24 21 52q29 36 58 36q14 0 24 -10l371 -346q9 -9 9 -18q0 -12 -15 -31t-30 -19zM555 1000q222 0 363.5 -142t141.5 -370t-141.5 -370t-363.5 -142t-363.5 142t-141.5 370t141.5 370t363.5 142zM555 930
q-181 0 -281.5 -134t-100.5 -308q0 -173 100.5 -307.5t281.5 -134.5q182 0 282 134.5t100 307.5q0 174 -100 308t-282 134z" />
    <glyph glyph-name="oacute" unicode="&#xf3;" horiz-adv-x="1110" 
d="M533 1051q7 0 16 6l408 301q14 10 14 29q0 24 -21 52q-29 36 -58 36q-14 0 -24 -10l-371 -346q-9 -9 -9 -18q0 -12 15 -31t30 -19zM555 1000q-222 0 -363.5 -142t-141.5 -370t141.5 -370t363.5 -142t363.5 142t141.5 370t-141.5 370t-363.5 142zM555 930
q181 0 281.5 -134t100.5 -308q0 -173 -100.5 -307.5t-281.5 -134.5q-182 0 -282 134.5t-100 307.5q0 174 100 308t282 134z" />
    <glyph glyph-name="ocircumflex" unicode="&#xf4;" horiz-adv-x="1110" 
d="M811 1067q0 -18 -39 -18q-29 0 -35 14l-190 408l-190 -408q-6 -14 -35 -14q-39 0 -39 18q0 4 2 6l225 485q6 14 37 14q29 0 36 -15l226 -484q2 -4 2 -6zM555 1000q222 0 363.5 -142t141.5 -370t-141.5 -370t-363.5 -142t-363.5 142t-141.5 370t141.5 370t363.5 142z
M555 930q-181 0 -281.5 -134t-100.5 -308q0 -173 100.5 -307.5t281.5 -134.5q182 0 282 134.5t100 307.5q0 174 -100 308t-282 134z" />
    <glyph glyph-name="otilde" unicode="&#xf5;" horiz-adv-x="1110" 
d="M555 1000q222 0 363.5 -142t141.5 -370t-141.5 -370t-363.5 -142t-363.5 142t-141.5 370t141.5 370t363.5 142zM555 930q-181 0 -281.5 -134t-100.5 -308q0 -173 100.5 -307.5t281.5 -134.5q182 0 282 134.5t100 307.5q0 174 -100 308t-282 134zM807 1060q-104 0 -172 47
t-139 116q-37 36 -86 77.5t-103 41.5q-73 0 -106.5 -88t-40.5 -145q-4 -34 -66 -34q-57 3 -57 37q2 125 81 215q79 88 189 88q94 0 161 -45t134 -110q39 -38 93 -82.5t112 -44.5q74 0 105 94t37 155q3 34 62 34q61 0 61 -36q0 -124 -70 -223q-67 -97 -195 -97z" />
    <glyph glyph-name="odieresis" unicode="&#xf6;" horiz-adv-x="1110" 
d="M460 1050q-93 0 -93 93q0 92 93 92q92 0 92 -92q0 -93 -92 -93zM699 1050q-93 0 -93 93q0 92 93 92q92 0 92 -92q0 -93 -92 -93zM555 1000q222 0 363.5 -142t141.5 -370t-141.5 -370t-363.5 -142t-363.5 142t-141.5 370t141.5 370t363.5 142zM555 930q-181 0 -281.5 -134
t-100.5 -308q0 -173 100.5 -307.5t281.5 -134.5q182 0 282 134.5t100 307.5q0 174 -100 308t-282 134z" />
    <glyph glyph-name="divide" unicode="&#xf7;" horiz-adv-x="923" 
d="M462 706q-76 0 -76 75t76 75q75 0 75 -75t-75 -75zM812 517h-700q-62 0 -62 36t62 36h700q61 0 61 -36t-61 -36zM462 250q-76 0 -76 75t76 75q75 0 75 -75t-75 -75z" />
    <glyph glyph-name="oslash" unicode="&#xf8;" horiz-adv-x="1291" 
d="M646 -24q-115 0 -217 37q-21 -37 -51 -37q-39 0 -39 19q0 3 1 5l23 42q-263 138 -263 446q0 236 158.5 374t387.5 138q114 0 216 -37q19 37 51 37q39 0 39 -18q0 -1 -2 -7l-22 -41q263 -136 263 -446q0 -236 -158.5 -374t-386.5 -138zM394 100l439 810q-86 37 -187 37
q-200 0 -325.5 -130.5t-125.5 -328.5q0 -261 199 -388zM646 30q450 0 450 458q0 261 -199 389l-439 -811q84 -36 188 -36z" />
    <glyph glyph-name="ugrave" unicode="&#xf9;" horiz-adv-x="1080" 
d="M617 1048q-7 0 -16 6l-408 301q-14 10 -14 29q0 24 21 52q29 36 58 36q14 0 24 -10l371 -346q9 -9 9 -18q0 -12 -15 -31t-30 -19zM162 1000q61 0 61 -35v-539q0 -142 76 -260t230 -118q164 0 246 128t82 277v512q0 35 61 35q62 0 62 -35v-954q0 -35 -62 -35q-61 0 -61 35
v141q-95 -176 -328 -176q-161 1 -295 115.5t-134 333.5v540q0 35 62 35z" />
    <glyph glyph-name="uacute" unicode="&#xfa;" horiz-adv-x="1080" 
d="M541 1178q-15 0 -30 19t-15 31q0 9 9 18l371 346q10 10 24 10q29 0 58 -36q21 -28 21 -52q0 -19 -14 -29l-408 -301q-9 -6 -16 -6zM162 1000q61 0 61 -35v-539q0 -142 76 -260t230 -118q164 0 246 128t82 277v512q0 35 61 35q62 0 62 -35v-954q0 -35 -62 -35
q-61 0 -61 35v141q-95 -176 -328 -176q-161 1 -295 115.5t-134 333.5v540q0 35 62 35z" />
    <glyph glyph-name="ucircumflex" unicode="&#xfb;" horiz-adv-x="1080" 
d="M801 1067q0 -18 -39 -18q-29 0 -35 14l-190 408l-190 -408q-6 -14 -35 -14q-39 0 -39 18q0 4 2 6l225 485q6 14 37 14q29 0 36 -15l226 -484q2 -4 2 -6zM162 1000q61 0 61 -35v-539q0 -142 76 -260t230 -118q164 0 246 128t82 277v512q0 35 61 35q62 0 62 -35v-954
q0 -35 -62 -35q-61 0 -61 35v141q-95 -176 -328 -176q-161 1 -295 115.5t-134 333.5v540q0 35 62 35z" />
    <glyph glyph-name="udieresis" unicode="&#xfc;" horiz-adv-x="1080" 
d="M429 1060q-93 0 -93 93q0 92 93 92q92 0 92 -92q0 -93 -92 -93zM668 1060q-93 0 -93 93q0 92 93 92q92 0 92 -92q0 -93 -92 -93zM162 1000q61 0 61 -35v-539q0 -142 76 -260t230 -118q164 0 246 128t82 277v512q0 35 61 35q62 0 62 -35v-954q0 -35 -62 -35q-61 0 -61 35
v141q-95 -176 -328 -176q-161 1 -295 115.5t-134 333.5v540q0 35 62 35z" />
    <glyph glyph-name="yacute" unicode="&#xfd;" horiz-adv-x="1080" 
d="M492 1186q-15 0 -30 19t-15 31q0 9 9 18l371 346q10 10 24 10q29 0 58 -36q21 -28 21 -52q0 -19 -14 -29l-408 -301q-9 -6 -16 -6zM516 -400q-109 0 -226.5 39.5t-182.5 136.5q-4 7 -4 13q0 34 62 34q42 0 57 -22q87 -131 294 -131q340 0 340 354v100
q-109 -142 -313 -142q-443 0 -443 447v542q0 35 62 35q61 0 61 -35v-542q0 -146 82.5 -261.5t237.5 -115.5q149 0 231.5 117.5t82.5 259.5v542q0 35 61 35q62 0 62 -35v-947q0 -424 -464 -424z" />
    <glyph glyph-name="thorn" unicode="&#xfe;" horiz-adv-x="1094" 
d="M162 -402q-62 0 -62 35v1714q0 35 62 35q61 0 61 -35v-519q100 174 349 174q219 0 345.5 -148.5t126.5 -363.5t-126.5 -363.5t-345.5 -148.5q-240 0 -349 174v-519q0 -35 -61 -35zM572 48q175 0 262 142t87 300t-87 300t-262 142t-262 -142t-87 -300t87 -300t262 -142z
" />
    <glyph glyph-name="ydieresis" unicode="&#xff;" horiz-adv-x="1080" 
d="M445 1068q-93 0 -93 93q0 92 93 92q92 0 92 -92q0 -93 -92 -93zM684 1068q-93 0 -93 93q0 92 93 92q92 0 92 -92q0 -93 -92 -93zM516 -400q-109 0 -226.5 39.5t-182.5 136.5q-4 7 -4 13q0 34 62 34q42 0 57 -22q87 -131 294 -131q340 0 340 354v100q-109 -142 -313 -142
q-443 0 -443 447v542q0 35 62 35q61 0 61 -35v-542q0 -146 82.5 -261.5t237.5 -115.5q149 0 231.5 117.5t82.5 259.5v542q0 35 61 35q62 0 62 -35v-947q0 -424 -464 -424z" />
    <glyph glyph-name="Amacron" unicode="&#x100;" horiz-adv-x="1333" 
d="M1239 -24q-58 0 -70 27l-190 445h-685l-192 -457q-6 -15 -41 -15q-36 0 -36 18q0 1 2 7l567 1355q11 25 70 25q60 0 71 -27l569 -1333q4 -8 4 -12q0 -33 -69 -33zM949 518l-316 741l-310 -741h626zM440 1534q0 71 48 71h425q56 0 56 -71q0 -70 -56 -70h-417q-56 0 -56 70
z" />
    <glyph glyph-name="amacron" unicode="&#x101;" horiz-adv-x="1066" 
d="M296 1171q0 71 48 71h425q56 0 56 -71q0 -70 -56 -70h-417q-56 0 -56 70zM979 -24q-25 0 -44 11q-83 49 -100 147q-134 -158 -382 -158q-127 0 -252.5 63.5t-125.5 217.5q0 177 129.5 223.5t267.5 46.5q35 0 75.5 -2.5t81.5 -2.5q131 0 196 42v108q0 256 -299 258
q-116 0 -202 -58q-96 -66 -97 -155q0 -35 -62 -35q-60 0 -60 35q1 116 125 200q120 83 296 83q152 0 287 -76t135 -252v-450q0 -142 76 -187q17 -10 17 -24t-19 -25q-20 -10 -43 -10zM453 47q123 0 247.5 80.5t124.5 223.5v121q-86 -19 -186 -19q-43 0 -87 2t-88 2
q-266 0 -266 -200q0 -210 255 -210z" />
    <glyph glyph-name="Cacute" unicode="&#x106;" horiz-adv-x="1302" 
d="M659 1456q-15 0 -30 19t-15 31q0 9 9 18l371 346q10 10 24 10q29 0 58 -36q21 -28 21 -52q0 -19 -14 -29l-408 -301q-9 -6 -16 -6zM1252 404q0 -6 -4 -24q-41 -194 -211.5 -299t-359.5 -105q-313 0 -470 207t-157 499q0 294 167 496.5t476 202.5q185 0 352 -104t201 -299
q4 -16 4 -26q0 -34 -63 -34q-55 0 -60 32q-22 164 -150 262.5t-284 98.5q-264 0 -392 -196t-128 -433q0 -233 119.5 -434.5t384.5 -201.5q160 0 293 100.5t160 261.5q5 30 60 30q62 0 62 -34z" />
    <glyph glyph-name="cacute" unicode="&#x107;" horiz-adv-x="1044" 
d="M534 1234q-15 0 -30 19t-15 31q0 9 9 18l371 346q10 10 24 10q29 0 58 -36q21 -28 21 -52q0 -19 -14 -29l-408 -301q-9 -6 -16 -6zM994 292q0 -75 -78 -163q-135 -153 -374 -153q-492 0 -492 507q0 226 136 371.5t365 145.5q267 0 390 -180q51 -73 51 -137q0 -34 -61 -34
q-57 0 -61 32q-35 249 -319 249q-190 0 -284 -135.5t-94 -309.5q0 -173 90 -306t279 -133q285 0 330 249q5 32 61 32q61 0 61 -35z" />
    <glyph glyph-name="Ccircumflex" unicode="&#x108;" horiz-adv-x="1302" 
d="M946 1482q0 -18 -39 -18q-29 0 -35 14l-190 408l-190 -408q-6 -14 -35 -14q-39 0 -39 18q0 4 2 6l225 485q6 14 37 14q29 0 36 -15l226 -484q2 -4 2 -6zM1252 404q0 -6 -4 -24q-41 -194 -211.5 -299t-359.5 -105q-313 0 -470 207t-157 499q0 294 167 496.5t476 202.5
q185 0 352 -104t201 -299q4 -16 4 -26q0 -34 -63 -34q-55 0 -60 32q-22 164 -150 262.5t-284 98.5q-264 0 -392 -196t-128 -433q0 -233 119.5 -434.5t384.5 -201.5q160 0 293 100.5t160 261.5q5 30 60 30q62 0 62 -34z" />
    <glyph glyph-name="ccircumflex" unicode="&#x109;" horiz-adv-x="1044" 
d="M994 292q0 -75 -78 -163q-135 -153 -374 -153q-492 0 -492 507q0 226 136 371.5t365 145.5q267 0 390 -180q51 -73 51 -137q0 -34 -61 -34q-57 0 -61 32q-35 249 -319 249q-190 0 -284 -135.5t-94 -309.5q0 -173 90 -306t279 -133q285 0 330 249q5 32 61 32q61 0 61 -35z
M798 1119q0 -18 -39 -18q-29 0 -35 14l-190 408l-190 -408q-6 -14 -35 -14q-39 0 -39 18q0 4 2 6l225 485q6 14 37 14q29 0 36 -15l226 -484q2 -4 2 -6z" />
    <glyph glyph-name="Cdotaccent" unicode="&#x10a;" horiz-adv-x="1302" 
d="M697 1535q-93 0 -93 93q0 92 93 92q92 0 92 -92q0 -93 -92 -93zM1252 404q0 -6 -4 -24q-41 -194 -211.5 -299t-359.5 -105q-313 0 -470 207t-157 499q0 294 167 496.5t476 202.5q185 0 352 -104t201 -299q4 -16 4 -26q0 -34 -63 -34q-55 0 -60 32q-22 164 -150 262.5
t-284 98.5q-264 0 -392 -196t-128 -433q0 -233 119.5 -434.5t384.5 -201.5q160 0 293 100.5t160 261.5q5 30 60 30q62 0 62 -34z" />
    <glyph glyph-name="cdotaccent" unicode="&#x10b;" horiz-adv-x="1044" 
d="M573 1050q-93 0 -93 93q0 92 93 92q92 0 92 -92q0 -93 -92 -93zM994 292q0 -75 -78 -163q-135 -153 -374 -153q-492 0 -492 507q0 226 136 371.5t365 145.5q267 0 390 -180q51 -73 51 -137q0 -34 -61 -34q-57 0 -61 32q-35 249 -319 249q-190 0 -284 -135.5t-94 -309.5
q0 -173 90 -306t279 -133q285 0 330 249q5 32 61 32q61 0 61 -35z" />
    <glyph glyph-name="Ccaron" unicode="&#x10c;" horiz-adv-x="1302" 
d="M956 1967q0 18 -39 18q-29 0 -35 -14l-190 -408l-190 408q-6 14 -35 14q-39 0 -39 -18q0 -4 2 -6l225 -485q6 -14 37 -14q29 0 36 15l226 484q2 4 2 6zM1252 404q0 -6 -4 -24q-41 -194 -211.5 -299t-359.5 -105q-313 0 -470 207t-157 499q0 294 167 496.5t476 202.5
q185 0 352 -104t201 -299q4 -16 4 -26q0 -34 -63 -34q-55 0 -60 32q-22 164 -150 262.5t-284 98.5q-264 0 -392 -196t-128 -433q0 -233 119.5 -434.5t384.5 -201.5q160 0 293 100.5t160 261.5q5 30 60 30q62 0 62 -34z" />
    <glyph glyph-name="ccaron" unicode="&#x10d;" horiz-adv-x="1044" 
d="M811 1556q0 18 -39 18q-29 0 -35 -14l-190 -408l-190 408q-6 14 -35 14q-39 0 -39 -18q0 -4 2 -6l225 -485q6 -14 37 -14q29 0 36 15l226 484q2 4 2 6zM994 292q0 -75 -78 -163q-135 -153 -374 -153q-492 0 -492 507q0 226 136 371.5t365 145.5q267 0 390 -180
q51 -73 51 -137q0 -34 -61 -34q-57 0 -61 32q-35 249 -319 249q-190 0 -284 -135.5t-94 -309.5q0 -173 90 -306t279 -133q285 0 330 249q5 32 61 32q61 0 61 -35z" />
    <glyph glyph-name="Dcaron" unicode="&#x10e;" horiz-adv-x="1275" 
d="M845 1968q0 18 -39 18q-29 0 -35 -14l-190 -408l-190 408q-6 14 -35 14q-39 0 -39 -18q0 -4 2 -6l225 -485q6 -14 37 -14q29 0 36 15l226 484q2 4 2 6zM627 0h-466q-61 0 -61 35v1287q0 35 61 35h466q288 0 443 -204.5t155 -478.5t-155.5 -474t-442.5 -200zM627 70
q242 0 359 194t117 411q0 215 -117 413.5t-359 198.5h-404v-1217h404z" />
    <glyph glyph-name="Emacron" unicode="&#x112;" horiz-adv-x="1204" 
d="M354 1587q0 71 48 71h425q56 0 56 -71q0 -70 -56 -70h-417q-56 0 -56 70zM1067 0h-898q-69 0 -69 39v1280q0 39 69 39h898q62 0 62 -35t-62 -35h-844v-573h717q61 0 61 -35t-61 -35h-717v-575h844q62 0 62 -35t-62 -35z" />
    <glyph glyph-name="emacron" unicode="&#x113;" horiz-adv-x="1107" 
d="M328 1170q0 71 48 71h425q56 0 56 -71q0 -70 -56 -70h-417q-56 0 -56 70zM551 -24q-501 0 -501 503q0 225 140 373t368 148q499 0 499 -468q0 -35 -61 -35h-823q0 -171 94.5 -311t283.5 -140q135 0 243 73q110 75 121 176q4 33 61 33q62 0 62 -34q0 -32 -23 -80
q-37 -79 -126 -140q-143 -98 -338 -98zM934 567q-28 363 -376 363q-311 0 -378 -363h754z" />
    <glyph glyph-name="Edotaccent" unicode="&#x116;" horiz-adv-x="1204" 
d="M627 1475q-93 0 -93 93q0 92 93 92q92 0 92 -92q0 -93 -92 -93zM1067 0h-898q-69 0 -69 39v1280q0 39 69 39h898q62 0 62 -35t-62 -35h-844v-573h717q61 0 61 -35t-61 -35h-717v-575h844q62 0 62 -35t-62 -35z" />
    <glyph glyph-name="edotaccent" unicode="&#x117;" horiz-adv-x="1107" 
d="M581 1100q-93 0 -93 93q0 92 93 92q92 0 92 -92q0 -93 -92 -93zM551 -24q-501 0 -501 503q0 225 140 373t368 148q499 0 499 -468q0 -35 -61 -35h-823q0 -171 94.5 -311t283.5 -140q135 0 243 73q110 75 121 176q4 33 61 33q62 0 62 -34q0 -32 -23 -80q-37 -79 -126 -140
q-143 -98 -338 -98zM934 567q-28 363 -376 363q-311 0 -378 -363h754z" />
    <glyph glyph-name="Ecaron" unicode="&#x11a;" horiz-adv-x="1204" 
d="M886 2018q0 18 -39 18q-29 0 -35 -14l-190 -408l-190 408q-6 14 -35 14q-39 0 -39 -18q0 -4 2 -6l225 -485q6 -14 37 -14q29 0 36 15l226 484q2 4 2 6zM1067 0h-898q-69 0 -69 39v1280q0 39 69 39h898q62 0 62 -35t-62 -35h-844v-573h717q61 0 61 -35t-61 -35h-717v-575
h844q62 0 62 -35t-62 -35z" />
    <glyph glyph-name="ecaron" unicode="&#x11b;" horiz-adv-x="1107" 
d="M824 1605q0 18 -39 18q-29 0 -35 -14l-190 -408l-190 408q-6 14 -35 14q-39 0 -39 -18q0 -4 2 -6l225 -485q6 -14 37 -14q29 0 36 15l226 484q2 4 2 6zM551 -24q-501 0 -501 503q0 225 140 373t368 148q499 0 499 -468q0 -35 -61 -35h-823q0 -171 94.5 -311t283.5 -140
q135 0 243 73q110 75 121 176q4 33 61 33q62 0 62 -34q0 -32 -23 -80q-37 -79 -126 -140q-143 -98 -338 -98zM934 567q-28 363 -376 363q-311 0 -378 -363h754z" />
    <glyph glyph-name="Gcircumflex" unicode="&#x11c;" horiz-adv-x="1411" 
d="M968 1482q0 -18 -39 -18q-29 0 -35 14l-190 408l-190 -408q-6 -14 -35 -14q-39 0 -39 18q0 4 2 6l225 485q6 14 37 14q29 0 36 -15l226 -484q2 -4 2 -6zM1140 105q-179 -129 -417 -129q-317 0 -495 196t-178 506q0 311 185 507t501 196q185 0 366.5 -96.5t224.5 -291.5
q7 -26 7 -40q0 -35 -61 -35q-58 0 -62 32q-23 173 -168.5 267t-306.5 94q-271 0 -417 -189.5t-146 -443.5q0 -253 138 -442.5t412 -189.5q181 0 321 102q170 123 170 259v196h-486q-62 0 -62 35t62 35h547q61 0 61 -35v-232q0 -79 -67.5 -168t-128.5 -133z" />
    <glyph glyph-name="gcircumflex" unicode="&#x11d;" horiz-adv-x="1094" 
d="M994 19q0 -223 -146.5 -323t-349.5 -100q-111 0 -244 38.5t-198 135.5q-5 8 -5 14q0 34 62 34q43 0 57 -22q48 -72 146.5 -101t181.5 -29q372 0 372 353v129q-112 -172 -348 -172q-219 0 -345.5 148.5t-126.5 364.5q0 215 126.5 363.5t345.5 148.5q237 0 349 -172v137
q0 35 61 35q62 0 62 -35v-947zM522 46q175 0 262 142t87 301q0 158 -87 300t-262 142t-262 -142t-87 -300q0 -159 87 -301t262 -142zM788 1067q0 -18 -39 -18q-29 0 -35 14l-190 408l-190 -408q-6 -14 -35 -14q-39 0 -39 18q0 4 2 6l225 485q6 14 37 14q29 0 36 -15
l226 -484q2 -4 2 -6z" />
    <glyph glyph-name="Gdotaccent" unicode="&#x120;" horiz-adv-x="1411" 
d="M751 1464q-93 0 -93 93q0 92 93 92q92 0 92 -92q0 -93 -92 -93zM1140 105q-179 -129 -417 -129q-317 0 -495 196t-178 506q0 311 185 507t501 196q185 0 366.5 -96.5t224.5 -291.5q7 -26 7 -40q0 -35 -61 -35q-58 0 -62 32q-23 173 -168.5 267t-306.5 94
q-271 0 -417 -189.5t-146 -443.5q0 -253 138 -442.5t412 -189.5q181 0 321 102q170 123 170 259v196h-486q-62 0 -62 35t62 35h547q61 0 61 -35v-232q0 -79 -67.5 -168t-128.5 -133z" />
    <glyph glyph-name="gdotaccent" unicode="&#x121;" horiz-adv-x="1094" 
d="M553 1051q-93 0 -93 93q0 92 93 92q92 0 92 -92q0 -93 -92 -93zM994 19q0 -223 -146.5 -323t-349.5 -100q-111 0 -244 38.5t-198 135.5q-5 8 -5 14q0 34 62 34q43 0 57 -22q48 -72 146.5 -101t181.5 -29q372 0 372 353v129q-112 -172 -348 -172q-219 0 -345.5 148.5
t-126.5 364.5q0 215 126.5 363.5t345.5 148.5q237 0 349 -172v137q0 35 61 35q62 0 62 -35v-947zM522 46q175 0 262 142t87 301q0 158 -87 300t-262 142t-262 -142t-87 -300q0 -159 87 -301t262 -142z" />
    <glyph glyph-name="Hcircumflex" unicode="&#x124;" horiz-adv-x="1306" 
d="M914 1431q0 -18 -39 -18q-29 0 -35 14l-190 408l-190 -408q-6 -14 -35 -14q-39 0 -39 18q0 4 2 6l225 485q6 14 37 14q29 0 36 -15l226 -484q2 -4 2 -6zM1144 -24q-61 0 -61 35v632h-860v-632q0 -35 -61 -35q-62 0 -62 35v1335q0 35 62 35q61 0 61 -35v-633h860v633
q0 35 61 35q62 0 62 -35v-1335q0 -35 -62 -35z" />
    <glyph glyph-name="hcircumflex" unicode="&#x125;" horiz-adv-x="1080" 
d="M918 -24q-61 0 -61 35v540q0 142 -76 259.5t-230 117.5q-166 0 -247 -128t-81 -276v-513q0 -35 -61 -35q-62 0 -62 35v1336q0 35 62 35q61 0 61 -35v-522q95 176 328 176q192 0 310.5 -130.5t118.5 -318.5v-541q0 -35 -62 -35zM828 1482q0 -18 -39 -18q-29 0 -35 14
l-190 408l-190 -408q-6 -14 -35 -14q-39 0 -39 18q0 4 2 6l225 485q6 14 37 14q29 0 36 -15l226 -484q2 -4 2 -6z" />
    <glyph glyph-name="Itilde" unicode="&#x128;" horiz-adv-x="223" 
d="M111 -23q-61 0 -61 35v1334q0 35 61 35q62 0 62 -35v-1334q0 -35 -62 -35zM364 1477q-104 0 -172 47t-139 116q-37 36 -86 77.5t-103 41.5q-73 0 -106.5 -88t-40.5 -145q-4 -34 -66 -34q-57 3 -57 37q2 125 81 215q79 88 189 88q94 0 161 -45t134 -110q39 -38 93 -82.5
t112 -44.5q74 0 105 94t37 155q3 34 62 34q61 0 61 -36q0 -124 -70 -223q-67 -97 -195 -97z" />
    <glyph glyph-name="itilde" unicode="&#x129;" horiz-adv-x="273" 
d="M137 -24q-62 0 -62 35v954q0 35 62 35t62 -35v-954q0 -35 -62 -35zM389 1087q-104 0 -172 47t-139 116q-37 36 -86 77.5t-103 41.5q-73 0 -106.5 -88t-40.5 -145q-4 -34 -66 -34q-57 3 -57 37q2 125 81 215q79 88 189 88q94 0 161 -45t134 -110q39 -38 93 -82.5
t112 -44.5q74 0 105 94t37 155q3 34 62 34q61 0 61 -36q0 -124 -70 -223q-67 -97 -195 -97z" />
    <glyph glyph-name="Imacron" unicode="&#x12a;" horiz-adv-x="223" 
d="M111 -23q-61 0 -61 35v1334q0 35 61 35q62 0 62 -35v-1334q0 -35 -62 -35zM-153 1590q0 71 48 71h425q56 0 56 -71q0 -70 -56 -70h-417q-56 0 -56 70z" />
    <glyph glyph-name="imacron" unicode="&#x12b;" horiz-adv-x="273" 
d="M137 -24q-62 0 -62 35v954q0 35 62 35t62 -35v-954q0 -35 -62 -35zM-128 1170q0 71 48 71h425q56 0 56 -71q0 -70 -56 -70h-417q-56 0 -56 70z" />
    <glyph glyph-name="dotlessi" unicode="&#x131;" horiz-adv-x="274" 
d="M137 -24q-62 0 -62 35v954q0 35 62 35t62 -35v-954q0 -35 -62 -35z" />
    <glyph glyph-name="Nacute" unicode="&#x143;" horiz-adv-x="1318" 
d="M465 1466q-15 0 -30 19t-15 31q0 9 9 18l371 346q10 10 24 10q29 0 58 -36q21 -28 21 -52q0 -19 -14 -29l-408 -301q-9 -6 -16 -6zM1138 -24q-56 0 -74 25l-886 1230v-1235q0 -20 -39 -20t-39 20v1340q0 45 80 45q55 0 73 -26l887 -1229v1234q0 21 39 21t39 -21v-1340
q0 -44 -80 -44z" />
    <glyph glyph-name="nacute" unicode="&#x144;" horiz-adv-x="1080" 
d="M535 1184q-15 0 -30 19t-15 31q0 9 9 18l371 346q10 10 24 10q29 0 58 -36q21 -28 21 -52q0 -19 -14 -29l-408 -301q-9 -6 -16 -6zM918 -24q-61 0 -61 35v539q0 142 -76 260t-230 118q-164 0 -246 -128t-82 -277v-512q0 -35 -61 -35q-62 0 -62 35v954q0 35 62 35
q61 0 61 -35v-141q95 176 328 176q161 -1 295 -115.5t134 -333.5v-540q0 -35 -62 -35z" />
    <glyph glyph-name="Ncaron" unicode="&#x147;" horiz-adv-x="1318" 
d="M923 1968q0 18 -39 18q-29 0 -35 -14l-190 -408l-190 408q-6 14 -35 14q-39 0 -39 -18q0 -4 2 -6l225 -485q6 -14 37 -14q29 0 36 15l226 484q2 4 2 6zM1138 -24q-56 0 -74 25l-886 1230v-1235q0 -20 -39 -20t-39 20v1340q0 45 80 45q55 0 73 -26l887 -1229v1234
q0 21 39 21t39 -21v-1340q0 -44 -80 -44z" />
    <glyph glyph-name="ncaron" unicode="&#x148;" horiz-adv-x="1080" 
d="M803 1555q0 18 -39 18q-29 0 -35 -14l-190 -408l-190 408q-6 14 -35 14q-39 0 -39 -18q0 -4 2 -6l225 -485q6 -14 37 -14q29 0 36 15l226 484q2 4 2 6zM918 -24q-61 0 -61 35v539q0 142 -76 260t-230 118q-164 0 -246 -128t-82 -277v-512q0 -35 -61 -35q-62 0 -62 35v954
q0 35 62 35q61 0 61 -35v-141q95 176 328 176q161 -1 295 -115.5t134 -333.5v-540q0 -35 -62 -35z" />
    <glyph glyph-name="Omacron" unicode="&#x14c;" horiz-adv-x="1406" 
d="M438 1534q0 71 48 71h425q56 0 56 -71q0 -70 -56 -70h-417q-56 0 -56 70zM703 -24q-301 0 -477 203t-176 499t176 499.5t477 203.5t477 -203.5t176 -499.5t-176 -499t-477 -203zM703 46q259 0 394.5 195.5t135.5 436.5q0 242 -135.5 437.5t-394.5 195.5t-394.5 -195.5
t-135.5 -437.5q0 -241 135.5 -436.5t394.5 -195.5z" />
    <glyph glyph-name="omacron" unicode="&#x14d;" horiz-adv-x="1110" 
d="M320 1120q0 71 48 71h425q56 0 56 -71q0 -70 -56 -70h-417q-56 0 -56 70zM555 1000q222 0 363.5 -142t141.5 -370t-141.5 -370t-363.5 -142t-363.5 142t-141.5 370t141.5 370t363.5 142zM555 930q-181 0 -281.5 -134t-100.5 -308q0 -173 100.5 -307.5t281.5 -134.5
q182 0 282 134.5t100 307.5q0 174 -100 308t-282 134z" />
    <glyph glyph-name="OE" unicode="&#x152;" horiz-adv-x="2170" 
d="M2033 23h-898q-69 0 -69 40v63q-167 -126 -389 -126q-313 0 -470 207t-157 499q0 294 167 496.5t476 202.5q213 0 373 -119v56q0 40 69 40h898q62 0 62 -36q0 -34 -62 -34h-844v-573h717q61 0 61 -36q0 -34 -61 -34h-717v-575h844q62 0 62 -35q0 -36 -62 -36zM1066 1140
q-128 195 -373 195q-264 0 -392 -196t-128 -433q0 -233 119.5 -434.5t384.5 -201.5q253 0 389 202v868z" />
    <glyph glyph-name="oe" unicode="&#x153;" horiz-adv-x="1988" 
d="M1432 -24q-306 0 -438 242q-136 -242 -439 -242q-222 0 -363.5 142t-141.5 370t141.5 370t363.5 142q308 0 442 -248q137 248 442 248q499 0 499 -468q0 -35 -61 -35h-823q0 -171 94.5 -311t283.5 -140q135 0 243 73q110 75 121 176q4 33 61 33q62 0 62 -34
q0 -32 -23 -80q-37 -79 -126 -140q-143 -98 -338 -98zM555 930q-181 0 -281.5 -134.5t-100.5 -307.5q0 -174 100.5 -308t281.5 -134q182 0 282 134t100 308q0 173 -100 307.5t-282 134.5zM1815 567q-28 365 -376 363q-311 0 -378 -363h754z" />
    <glyph glyph-name="Racute" unicode="&#x154;" horiz-adv-x="1303" 
d="M547 1417q-15 0 -30 19t-15 31q0 9 9 18l371 346q10 10 24 10q29 0 58 -36q21 -28 21 -52q0 -19 -14 -29l-408 -301q-9 -6 -16 -6zM1192 -24q-24 0 -41 9q-107 56 -163.5 152t-100.5 198q-42 95 -102.5 197.5t-182.5 102.5h-379v-624q0 -35 -62 -35q-61 0 -61 35v1310
q0 35 61 35h619q152 0 276.5 -98.5t124.5 -262.5q0 -148 -110 -248t-249 -111q73 -61 110 -129.5t74 -154.5q41 -94 91 -182t136 -133q20 -9 20 -26q0 -13 -16 -23q-21 -12 -45 -12zM780 705q278 0 278 290q0 291 -278 291h-557v-581h557z" />
    <glyph glyph-name="racute" unicode="&#x155;" horiz-adv-x="724" 
d="M290 1182q-15 0 -30 19t-15 31q0 9 9 18l371 346q10 10 24 10q29 0 58 -36q21 -28 21 -52q0 -19 -14 -29l-408 -301q-9 -6 -16 -6zM161 -24q-61 0 -61 35v954q0 35 61 35q62 0 62 -35v-141q26 51 92.5 113.5t189.5 62.5q103 0 179 -51q15 -10 15 -26q0 -21 -23 -36
q-16 -11 -31 -11q-14 0 -23 8q-55 42 -133 42q-163 0 -214.5 -160.5t-51.5 -274.5v-480q0 -35 -62 -35z" />
    <glyph glyph-name="Rcaron" unicode="&#x158;" horiz-adv-x="1303" 
d="M916 1969q0 18 -39 18q-29 0 -35 -14l-190 -408l-190 408q-6 14 -35 14q-39 0 -39 -18q0 -4 2 -6l225 -485q6 -14 37 -14q29 0 36 15l226 484q2 4 2 6zM1192 -24q-24 0 -41 9q-107 56 -163.5 152t-100.5 198q-42 95 -102.5 197.5t-182.5 102.5h-379v-624q0 -35 -62 -35
q-61 0 -61 35v1310q0 35 61 35h619q152 0 276.5 -98.5t124.5 -262.5q0 -148 -110 -248t-249 -111q73 -61 110 -129.5t74 -154.5q41 -94 91 -182t136 -133q20 -9 20 -26q0 -13 -16 -23q-21 -12 -45 -12zM780 705q278 0 278 290q0 291 -278 291h-557v-581h557z" />
    <glyph glyph-name="rcaron" unicode="&#x159;" horiz-adv-x="724" 
d="M676 1564q0 18 -39 18q-29 0 -35 -14l-190 -408l-190 408q-6 14 -35 14q-39 0 -39 -18q0 -4 2 -6l225 -485q6 -14 37 -14q29 0 36 15l226 484q2 4 2 6zM161 -28q-61 0 -61 35v954q0 35 61 35q62 0 62 -35v-141q26 51 92.5 113.5t189.5 62.5q103 0 179 -51q15 -10 15 -26
q0 -21 -23 -36q-16 -11 -31 -11q-14 0 -23 8q-55 42 -133 42q-163 0 -214.5 -160.5t-51.5 -274.5v-480q0 -35 -62 -35z" />
    <glyph glyph-name="Sacute" unicode="&#x15a;" horiz-adv-x="1200" 
d="M615 1546q-15 0 -30 19t-15 31q0 9 9 18l371 346q10 10 24 10q29 0 58 -36q21 -28 21 -52q0 -19 -14 -29l-408 -301q-9 -6 -16 -6zM604 -24q-187 0 -342 89t-209 285q-3 12 -3 14q0 33 60 33q55 0 62 -29q84 -322 432 -322q141 0 282 83.5t141 246.5q0 116 -140 183
q-105 50 -257 66q-90 9 -185.5 28.5t-176.5 62.5q-183 97 -183 297q0 197 180 282.5t344 85.5q163 0 309.5 -78t189.5 -250q3 -15 3 -14q0 -33 -61 -33q-53 0 -61 30q-65 275 -380 275q-132 0 -266.5 -71.5t-134.5 -226.5q0 -112 155 -179q116 -51 276 -67q92 -10 192 -31
t178 -72q141 -93 141 -288q0 -205 -185 -302.5t-361 -97.5z" />
    <glyph glyph-name="sacute" unicode="&#x15b;" horiz-adv-x="917" 
d="M471 1184q-15 0 -30 19t-15 31q0 9 9 18l371 346q10 10 24 10q29 0 58 -36q21 -28 21 -52q0 -19 -14 -29l-408 -301q-9 -6 -16 -6zM459 -24q-322 0 -402 262q-7 21 -7 25q0 35 61 35q53 0 61 -30q56 -222 289 -222q98 0 190.5 58t92.5 169q0 74 -101 118q-70 32 -171 46
q-73 11 -145.5 24t-135.5 57q-116 82 -116 209q0 145 134.5 209t255.5 64q296 0 368 -226q7 -28 7 -29q0 -34 -62 -34q-52 -3 -61 31q-45 188 -252 188q-89 0 -178 -49.5t-89 -153.5q0 -70 112 -117q68 -28 168 -44q73 -11 142 -25.5t133 -56.5q114 -74 114 -211
q0 -154 -137.5 -225.5t-270.5 -71.5z" />
    <glyph glyph-name="Scircumflex" unicode="&#x15c;" horiz-adv-x="1200" 
d="M864 1482q0 -18 -39 -18q-29 0 -35 14l-190 408l-190 -408q-6 -14 -35 -14q-39 0 -39 18q0 4 2 6l225 485q6 14 37 14q29 0 36 -15l226 -484q2 -4 2 -6zM604 -24q-187 0 -342 89t-209 285q-3 12 -3 14q0 33 60 33q55 0 62 -29q84 -322 432 -322q141 0 282 83.5t141 246.5
q0 116 -140 183q-105 50 -257 66q-90 9 -185.5 28.5t-176.5 62.5q-183 97 -183 297q0 197 180 282.5t344 85.5q163 0 309.5 -78t189.5 -250q3 -15 3 -14q0 -33 -61 -33q-53 0 -61 30q-65 275 -380 275q-132 0 -266.5 -71.5t-134.5 -226.5q0 -112 155 -179q116 -51 276 -67
q92 -10 192 -31t178 -72q141 -93 141 -288q0 -205 -185 -302.5t-361 -97.5z" />
    <glyph glyph-name="scircumflex" unicode="&#x15d;" horiz-adv-x="917" 
d="M459 -24q-322 0 -402 262q-7 21 -7 25q0 35 61 35q53 0 61 -30q56 -222 289 -222q98 0 190.5 58t92.5 169q0 74 -101 118q-70 32 -171 46q-73 11 -145.5 24t-135.5 57q-116 82 -116 209q0 145 134.5 209t255.5 64q296 0 368 -226q7 -28 7 -29q0 -34 -62 -34
q-52 -3 -61 31q-45 188 -252 188q-89 0 -178 -49.5t-89 -153.5q0 -70 112 -117q68 -28 168 -44q73 -11 142 -25.5t133 -56.5q114 -74 114 -211q0 -154 -137.5 -225.5t-270.5 -71.5zM728 1068q0 -18 -39 -18q-29 0 -35 14l-190 408l-190 -408q-6 -14 -35 -14q-39 0 -39 18
q0 4 2 6l225 485q6 14 37 14q29 0 36 -15l226 -484q2 -4 2 -6z" />
    <glyph glyph-name="Scedilla" unicode="&#x15e;" horiz-adv-x="1200" 
d="M544 -446q-117 0 -160 43q-5 5 -5 9q0 12 20 18q12 3 22 3q32 0 52.5 -15.5t70.5 -15.5q46 0 103.5 22t57.5 83q0 93 -135 95q-21 2 -32 7q-11 6 -11 13q0 6 5 16l50 137q6 18 44 18q49 0 41 -21l-49 -132q53 -8 112.5 -36.5t59.5 -96.5q0 -85 -91.5 -116t-154.5 -31z
M604 -26q-187 0 -342 89t-209 285q-3 12 -3 14q0 33 60 33q55 0 62 -29q84 -322 432 -322q141 0 282 83.5t141 246.5q0 116 -140 183q-105 50 -257 66q-90 9 -185.5 28.5t-176.5 62.5q-183 97 -183 297q0 197 180 282.5t344 85.5q163 0 309.5 -78t189.5 -250q3 -15 3 -14
q0 -33 -61 -33q-53 0 -61 30q-65 275 -380 275q-132 0 -266.5 -71.5t-134.5 -226.5q0 -112 155 -179q116 -51 276 -67q92 -10 192 -31t178 -72q141 -93 141 -288q0 -205 -185 -302.5t-361 -97.5z" />
    <glyph glyph-name="scedilla" unicode="&#x15f;" horiz-adv-x="917" 
d="M388 -441q-117 0 -160 43q-5 5 -5 9q0 12 20 18q12 3 22 3q32 0 52.5 -15.5t70.5 -15.5q46 0 103.5 22t57.5 83q0 93 -135 95q-21 2 -32 7q-11 6 -11 13q0 6 5 16l50 137q6 18 44 18q49 0 41 -21l-49 -132q53 -8 112.5 -36.5t59.5 -96.5q0 -85 -91.5 -116t-154.5 -31z
M459 -24q-322 0 -402 262q-7 21 -7 25q0 35 61 35q53 0 61 -30q56 -222 289 -222q98 0 190.5 58t92.5 169q0 74 -101 118q-70 32 -171 46q-73 11 -145.5 24t-135.5 57q-116 82 -116 209q0 145 134.5 209t255.5 64q296 0 368 -226q7 -28 7 -29q0 -34 -62 -34q-52 -3 -61 31
q-45 188 -252 188q-89 0 -178 -49.5t-89 -153.5q0 -70 112 -117q68 -28 168 -44q73 -11 142 -25.5t133 -56.5q114 -74 114 -211q0 -154 -137.5 -225.5t-270.5 -71.5z" />
    <glyph glyph-name="Scaron" unicode="&#x160;" horiz-adv-x="1200" 
d="M885 1969q0 18 -39 18q-29 0 -35 -14l-190 -408l-190 408q-6 14 -35 14q-39 0 -39 -18q0 -4 2 -6l225 -485q6 -14 37 -14q29 0 36 15l226 484q2 4 2 6zM604 -24q-187 0 -342 89t-209 285q-3 12 -3 14q0 33 60 33q55 0 62 -29q84 -322 432 -322q141 0 282 83.5t141 246.5
q0 116 -140 183q-105 50 -257 66q-90 9 -185.5 28.5t-176.5 62.5q-183 97 -183 297q0 197 180 282.5t344 85.5q163 0 309.5 -78t189.5 -250q3 -15 3 -14q0 -33 -61 -33q-53 0 -61 30q-65 275 -380 275q-132 0 -266.5 -71.5t-134.5 -226.5q0 -112 155 -179q116 -51 276 -67
q92 -10 192 -31t178 -72q141 -93 141 -288q0 -205 -185 -302.5t-361 -97.5z" />
    <glyph glyph-name="scaron" unicode="&#x161;" horiz-adv-x="917" 
d="M731 1555q0 18 -39 18q-29 0 -35 -14l-190 -408l-190 408q-6 14 -35 14q-39 0 -39 -18q0 -4 2 -6l225 -485q6 -14 37 -14q29 0 36 15l226 484q2 4 2 6zM459 -24q-322 0 -402 262q-7 21 -7 25q0 35 61 35q53 0 61 -30q56 -222 289 -222q98 0 190.5 58t92.5 169
q0 74 -101 118q-70 32 -171 46q-73 11 -145.5 24t-135.5 57q-116 82 -116 209q0 145 134.5 209t255.5 64q296 0 368 -226q7 -28 7 -29q0 -34 -62 -34q-52 -3 -61 31q-45 188 -252 188q-89 0 -178 -49.5t-89 -153.5q0 -70 112 -117q68 -28 168 -44q73 -11 142 -25.5
t133 -56.5q114 -74 114 -211q0 -154 -137.5 -225.5t-270.5 -71.5z" />
    <glyph glyph-name="Utilde" unicode="&#x168;" horiz-adv-x="1269" 
d="M1046 1346q0 35 62 35q61 0 61 -35v-922q0 -211 -174.5 -329.5t-361.5 -118.5t-360 119.5t-173 328.5v922q0 35 61 35q62 0 62 -35v-922q0 -164 128.5 -271t281.5 -107q154 0 283.5 106.5t129.5 271.5v922zM870 1463q-104 0 -172 47t-139 116q-37 36 -86 77.5t-103 41.5
q-73 0 -106.5 -88t-40.5 -145q-4 -34 -66 -34q-57 3 -57 37q2 125 81 215q79 88 189 88q94 0 161 -45t134 -110q39 -38 93 -82.5t112 -44.5q74 0 105 94t37 155q3 34 62 34q61 0 61 -36q0 -124 -70 -223q-67 -97 -195 -97z" />
    <glyph glyph-name="utilde" unicode="&#x169;" horiz-adv-x="1080" 
d="M162 1000q61 0 61 -35v-539q0 -142 76 -260t230 -118q164 0 246 128t82 277v512q0 35 61 35q62 0 62 -35v-954q0 -35 -62 -35q-61 0 -61 35v141q-95 -176 -328 -176q-161 1 -295 115.5t-134 333.5v540q0 35 62 35zM793 1060q-104 0 -172 47t-139 116q-37 36 -86 77.5
t-103 41.5q-73 0 -106.5 -88t-40.5 -145q-4 -34 -66 -34q-57 3 -57 37q2 125 81 215q79 88 189 88q94 0 161 -45t134 -110q39 -38 93 -82.5t112 -44.5q74 0 105 94t37 155q3 34 62 34q61 0 61 -36q0 -124 -70 -223q-67 -97 -195 -97z" />
    <glyph glyph-name="Umacron" unicode="&#x16a;" horiz-adv-x="1269" 
d="M1046 1346q0 35 62 35q61 0 61 -35v-922q0 -211 -174.5 -329.5t-361.5 -118.5t-360 119.5t-173 328.5v922q0 35 61 35q62 0 62 -35v-922q0 -164 128.5 -271t281.5 -107q154 0 283.5 106.5t129.5 271.5v922zM380 1534q0 71 48 71h425q56 0 56 -71q0 -70 -56 -70h-417
q-56 0 -56 70z" />
    <glyph glyph-name="umacron" unicode="&#x16b;" horiz-adv-x="1080" 
d="M289 1160q0 71 48 71h425q56 0 56 -71q0 -70 -56 -70h-417q-56 0 -56 70zM162 1000q61 0 61 -35v-539q0 -142 76 -260t230 -118q164 0 246 128t82 277v512q0 35 61 35q62 0 62 -35v-954q0 -35 -62 -35q-61 0 -61 35v141q-95 -176 -328 -176q-161 1 -295 115.5t-134 333.5
v540q0 35 62 35z" />
    <glyph glyph-name="Uring" unicode="&#x16e;" horiz-adv-x="1269" 
d="M1046 1346q0 35 62 35q61 0 61 -35v-922q0 -211 -174.5 -329.5t-361.5 -118.5t-360 119.5t-173 328.5v922q0 35 61 35q62 0 62 -35v-922q0 -164 128.5 -271t281.5 -107q154 0 283.5 106.5t129.5 271.5v922zM637 1464q-277 0 -277 267q0 268 276 268q277 0 277 -268
q0 -267 -276 -267zM637 1518q183 0 183 213q0 214 -184 214q-183 0 -183 -214q0 -213 184 -213z" />
    <glyph glyph-name="uring" unicode="&#x16f;" horiz-adv-x="1080" 
d="M162 1000q61 0 61 -35v-539q0 -142 76 -260t230 -118q164 0 246 128t82 277v512q0 35 61 35q62 0 62 -35v-954q0 -35 -62 -35q-61 0 -61 35v141q-95 -176 -328 -176q-161 1 -295 115.5t-134 333.5v540q0 35 62 35zM537 1080q-277 0 -277 267q0 268 276 268
q277 0 277 -268q0 -267 -276 -267zM537 1134q183 0 183 213q0 214 -184 214q-183 0 -183 -214q0 -213 184 -213z" />
    <glyph glyph-name="Wcircumflex" unicode="&#x174;" horiz-adv-x="1837" 
d="M1208 1484q0 -18 -39 -18q-29 0 -35 14l-190 408l-190 -408q-6 -14 -35 -14q-39 0 -39 18q0 4 2 6l225 485q6 14 37 14q29 0 36 -15l226 -484q2 -4 2 -6zM1358 5q-9 -29 -72 -29q-56 0 -63 28l-305 1196l-301 -1194q-7 -30 -69 -30q-57 0 -66 26l-454 1333l-3 15
q0 31 69 31q52 0 62 -30l415 -1218l307 1221q7 27 68 27q59 0 66 -30l310 -1217l412 1231q6 16 41 16q37 0 37 -17q0 -1 -2 -7z" />
    <glyph glyph-name="wcircumflex" unicode="&#x175;" horiz-adv-x="1561" 
d="M1056 1067q0 -18 -39 -18q-29 0 -35 14l-190 408l-190 -408q-6 -14 -35 -14q-39 0 -39 18q0 4 2 6l225 485q6 14 37 14q29 0 36 -15l226 -484q2 -4 2 -6zM1090 -24q-56 0 -65 28l-242 834l-252 -832q-9 -30 -68 -30q-54 0 -65 27l-369 951q-4 10 -4 13q0 32 64 32
q57 0 67 -26l331 -853l257 851q9 28 69 28q56 0 64 -27l248 -852l334 865q6 15 41 15q37 0 37 -18q0 -2 -2 -8l-376 -969q-11 -29 -69 -29z" />
    <glyph glyph-name="Ycircumflex" unicode="&#x176;" horiz-adv-x="1216" 
d="M608 -24q-61 0 -61 34v635l-517 690q-5 6 -5 13q0 33 69 33q50 0 68 -23l474 -633l470 642q10 13 41 13q45 0 45 -20q0 -2 -3 -7l-519 -708v-635q0 -34 -62 -34zM896 1482q0 -18 -39 -18q-29 0 -35 14l-190 408l-190 -408q-6 -14 -35 -14q-39 0 -39 18q0 4 2 6l225 485
q6 14 37 14q29 0 36 -15l226 -484q2 -4 2 -6z" />
    <glyph glyph-name="ycircumflex" unicode="&#x177;" horiz-adv-x="1080" 
d="M785 1118q0 -18 -39 -18q-29 0 -35 14l-190 408l-190 -408q-6 -14 -35 -14q-39 0 -39 18q0 4 2 6l225 485q6 14 37 14q29 0 36 -15l226 -484q2 -4 2 -6zM516 -400q-109 0 -226.5 39.5t-182.5 136.5q-4 7 -4 13q0 34 62 34q42 0 57 -22q87 -131 294 -131q340 0 340 354
v100q-109 -142 -313 -142q-443 0 -443 447v542q0 35 62 35q61 0 61 -35v-542q0 -146 82.5 -261.5t237.5 -115.5q149 0 231.5 117.5t82.5 259.5v542q0 35 61 35q62 0 62 -35v-947q0 -424 -464 -424z" />
    <glyph glyph-name="zacute" unicode="&#x17a;" horiz-adv-x="969" 
d="M420 1202q-15 0 -30 19t-15 31q0 9 9 18l371 346q10 10 24 10q29 0 58 -36q21 -28 21 -52q0 -19 -14 -29l-408 -301q-9 -6 -16 -6zM882 0h-780q-31 0 -57 13q-20 10 -20 24q0 6 6 13l737 855h-658q-61 0 -61 36q0 35 61 35h760q29 0 53 -13q20 -11 20 -25q0 -7 -5 -13
l-738 -855h682q62 0 62 -35t-62 -35z" />
    <glyph glyph-name="Zdotaccent" unicode="&#x17b;" horiz-adv-x="1238" 
d="M642 1463q-93 0 -93 93q0 92 93 92q92 0 92 -92q0 -93 -92 -93zM1143 0h-1048q-24 0 -48 10q-22 10 -22 24q0 8 5 13l1008 1240h-919q-70 0 -70 35q0 34 70 34h1022q28 0 51 -11q19 -9 19 -23q0 -6 -5 -13l-1008 -1241h945q70 0 70 -34t-70 -34z" />
    <glyph glyph-name="zdotaccent" unicode="&#x17c;" horiz-adv-x="969" 
d="M487 1099q-93 0 -93 93q0 92 93 92q92 0 92 -92q0 -93 -92 -93zM882 0h-780q-31 0 -57 13q-20 10 -20 24q0 6 6 13l737 855h-658q-61 0 -61 36q0 35 61 35h760q29 0 53 -13q20 -11 20 -25q0 -7 -5 -13l-738 -855h682q62 0 62 -35t-62 -35z" />
    <glyph glyph-name="Zcaron" unicode="&#x17d;" horiz-adv-x="1238" 
d="M883 1958q0 18 -39 18q-29 0 -35 -14l-190 -408l-190 408q-6 14 -35 14q-39 0 -39 -18q0 -4 2 -6l225 -485q6 -14 37 -14q29 0 36 15l226 484q2 4 2 6zM1143 0h-1048q-24 0 -48 10q-22 10 -22 24q0 8 5 13l1008 1240h-919q-70 0 -70 35q0 34 70 34h1022q28 0 51 -11
q19 -9 19 -23q0 -6 -5 -13l-1008 -1241h945q70 0 70 -34t-70 -34z" />
    <glyph glyph-name="zcaron" unicode="&#x17e;" horiz-adv-x="969" 
d="M733 1576q0 18 -39 18q-29 0 -35 -14l-190 -408l-190 408q-6 14 -35 14q-39 0 -39 -18q0 -4 2 -6l225 -485q6 -14 37 -14q29 0 36 15l226 484q2 4 2 6zM882 0h-780q-31 0 -57 13q-20 10 -20 24q0 6 6 13l737 855h-658q-61 0 -61 36q0 35 61 35h760q29 0 53 -13
q20 -11 20 -25q0 -7 -5 -13l-738 -855h682q62 0 62 -35t-62 -35z" />
    <glyph glyph-name="uni01D2" unicode="&#x1d2;" horiz-adv-x="1110" 
d="M851 1576q0 18 -39 18q-29 0 -35 -14l-190 -408l-190 408q-6 14 -35 14q-39 0 -39 -18q0 -4 2 -6l225 -485q6 -14 37 -14q29 0 36 15l226 484q2 4 2 6zM555 1000q222 0 363.5 -142t141.5 -370t-141.5 -370t-363.5 -142t-363.5 142t-141.5 370t141.5 370t363.5 142z
M555 930q-181 0 -281.5 -134t-100.5 -308q0 -173 100.5 -307.5t281.5 -134.5q182 0 282 134.5t100 307.5q0 174 -100 308t-282 134z" />
    <glyph glyph-name="uni01D3" unicode="&#x1d3;" horiz-adv-x="1269" 
d="M951 1864q0 18 -39 18q-29 0 -35 -14l-190 -408l-190 408q-6 14 -35 14q-39 0 -39 -18q0 -4 2 -6l225 -485q6 -14 37 -14q29 0 36 15l226 484q2 4 2 6zM1046 1346q0 35 62 35q61 0 61 -35v-922q0 -211 -174.5 -329.5t-361.5 -118.5t-360 119.5t-173 328.5v922q0 35 61 35
q62 0 62 -35v-922q0 -164 128.5 -271t281.5 -107q154 0 283.5 106.5t129.5 271.5v922z" />
    <glyph glyph-name="uni01D4" unicode="&#x1d4;" horiz-adv-x="1080" 
d="M801 1483q0 18 -39 18q-29 0 -35 -14l-190 -408l-190 408q-6 14 -35 14q-39 0 -39 -18q0 -4 2 -6l225 -485q6 -14 37 -14q29 0 36 15l226 484q2 4 2 6zM162 1000q61 0 61 -35v-539q0 -142 76 -260t230 -118q164 0 246 128t82 277v512q0 35 61 35q62 0 62 -35v-954
q0 -35 -62 -35q-61 0 -61 35v141q-95 -176 -328 -176q-161 1 -295 115.5t-134 333.5v540q0 35 62 35z" />
    <glyph glyph-name="AEacute" unicode="&#x1fc;" horiz-adv-x="1973" 
d="M770 1424q-15 0 -30 19t-15 31q0 9 9 18l371 346q10 10 24 10q29 0 58 -36q21 -28 21 -52q0 -19 -14 -29l-408 -301q-9 -6 -16 -6zM294 449l-192 -458q-6 -15 -41 -15q-36 0 -36 18q0 1 2 7l567 1331q11 25 69 25h1173q62 0 62 -35t-62 -35h-843v-573h725q61 0 61 -35
t-61 -35h-725v-574h843q62 0 62 -35t-62 -35h-905q-61 0 -61 35v414h-576zM870 519v768h-220l-327 -768h547z" />
    <glyph glyph-name="aeacute" unicode="&#x1fd;" horiz-adv-x="1842" 
d="M1306 -24q-272 0 -404 214q-57 -72 -123 -117q-145 -97 -326 -97q-127 0 -252.5 63.5t-125.5 217.5q0 177 129.5 223.5t267.5 46.5q35 0 75.5 -2.5t81.5 -2.5q131 0 196 42v108q0 256 -299 258q-116 0 -202 -58q-96 -66 -97 -155q0 -35 -62 -35q-60 0 -60 35
q1 116 125 200q120 83 296 83q301 0 395 -197q137 197 392 197q479 0 479 -468q0 -35 -59 -35h-790q0 -171 91 -311t272 -140q130 0 233 73q106 74 117 176q3 33 58 33q60 0 60 -34q0 -35 -22 -81q-36 -79 -121 -139q-139 -98 -325 -98zM1674 567q-26 363 -361 363
q-298 0 -363 -363h724zM453 47q123 0 247.5 80.5t124.5 223.5v121q-86 -19 -186 -19q-43 0 -87 2t-88 2q-266 0 -266 -200q0 -210 255 -210zM925 1182q-15 0 -30 19t-15 31q0 9 9 18l371 346q10 10 24 10q29 0 58 -36q21 -28 21 -52q0 -19 -14 -29l-408 -301q-9 -6 -16 -6z
" />
    <glyph glyph-name="anuswaraabove" unicode="&#xd00;" horiz-adv-x="0" 
d="M176 1086q-322 0 -322 312q0 313 321 313q322 0 322 -313q0 -312 -321 -312zM176 1157q201 0 201 241q0 242 -201 242q-202 0 -202 -242q0 -241 202 -241z" />
    <glyph glyph-name="mlchandrabindu" unicode="&#xd01;" horiz-adv-x="131" 
d="M-140.203 1245.97q-55.7979 0 -55.7979 55.7979q0 55.1973 55.7979 55.1973q55.1973 0 55.1973 -55.1973q0 -55.7979 -55.1973 -55.7979zM-139 1085q-281 0 -281 270q0 31 60 31t60 -31q0 -208 161 -208t161 208q0 31 60 31t60 -31q0 -270 -281 -270z" />
    <glyph glyph-name="anuswara" unicode="&#xd02;" horiz-adv-x="803" 
d="M402 -24q-322 0 -322 312q0 313 321 313q322 0 322 -313q0 -312 -321 -312zM402 47q201 0 201 241q0 242 -201 242q-202 0 -202 -242q0 -241 202 -241z" />
    <glyph glyph-name="visarga" unicode="&#xd03;" horiz-adv-x="542" 
d="M462 699q0 -191 -200 -191q-202 0 -202 196q0 190 201 190t201 -195zM261 571q102 0 102 130t-102 130t-102 -130t102 -130zM462 166q0 -191 -200 -191q-202 0 -202 196q0 190 201 190t201 -195zM261 38q102 0 102 130t-102 130t-102 -130t102 -130z" />
    <glyph glyph-name="ml_a" unicode="&#xd05;" horiz-adv-x="2416" 
d="M1985 -24q-185 0 -279 145q-64 99 -64 231q0 158 89 279q110 150 337 178q-134 122 -301 122q-309 0 -309 -319v-601q0 -35 -61 -35t-61 35v601q0 320 -295 320q-12 0 -70 -5q141 -74 141 -229q0 -138 -131 -219q157 -68 157 -219q0 -284 -298 -284q-205 0 -309 183
q-73 129 -73 308q0 300 245 459q-52 2 -76 2q-131 -2 -231 -71q-194 -135 -194 -403q0 -112 43.5 -233.5t138.5 -186.5q15 -10 15 -22q0 -16 -22 -27q-18 -9 -40 -9q-29 0 -46 13q-211 142 -211 458q0 242 150 396q153 157 395 157q115 0 205 -27q97 27 211 27
q232 0 363 -140q143 140 363 140q295 0 454 -209q115 -149 115 -364q0 -168 -72 -292q-93 -159 -279 -159zM842 47q174 0 174 209q0 179 -183 179h-53q-59 0 -59 34q0 31 52 36q14 2 28 1.5t28 1.5q160 26 160 190q0 157 -153 200q-256 -114 -256 -432q0 -137 47 -245
q75 -174 215 -174zM1985 47q97 0 163 111q65 107 65 271q0 177 -88 311q-181 0 -282 -136q-78 -106 -78 -252q0 -122 55 -207q65 -98 165 -98z" />
    <glyph glyph-name="ml_aa" unicode="&#xd06;" horiz-adv-x="2743" 
d="M2663 196q0 -259 -142.5 -433.5t-420.5 -174.5q-203 0 -340 111q-12 9 -12 20q0 18 26 28q14 6 36 6q33 0 50 -14q100 -81 240 -81q231 0 336 168t105 370q0 157 -60 301.5t-210 216.5q66 -126 66 -287q0 -168 -72 -292q-94 -159 -279 -159t-279 145q-64 99 -64 231
q0 160 89 279q109 150 337 178q-134 122 -301 122q-309 0 -309 -319v-601q0 -35 -61 -35q-62 0 -62 35v601q0 320 -294 320q-15 0 -70 -5q140 -73 140 -229q0 -138 -130 -219q156 -67 156 -219q0 -284 -298 -284q-205 0 -309 183q-73 129 -73 308q0 300 245 459q-52 2 -76 2
q-131 -2 -231 -71q-194 -136 -194 -403q0 -112 43.5 -233.5t138.5 -186.5q15 -10 15 -22q0 -17 -22 -27q-16 -9 -40 -9q-27 0 -46 13q-211 143 -211 458q0 240 150 396q153 157 395 157q115 0 205 -27q97 27 212 27q231 0 363 -140q143 140 363 140q286 0 443 -195
q228 -39 340 -215t112 -394zM842 47q174 0 174 209q0 179 -183 179h-53q-59 0 -59 34q0 31 52 36q14 2 28 1.5t28 1.5q161 27 161 190q0 157 -154 200q-256 -114 -256 -432q0 -133 47 -245q75 -174 215 -174zM1986 47q95 0 163 111q65 110 65 271q0 177 -88 311
q-181 0 -282 -136q-78 -106 -78 -252q0 -124 55 -207q63 -98 165 -98z" />
    <glyph glyph-name="ml_i" unicode="&#xd07;" horiz-adv-x="1768" 
d="M1579 -412h-1221q-277 0 -277 226q0 116 88.5 171t188.5 55h719q119 0 229 28.5t183 134.5q76 111 76 302q0 208 -97 325q-81 100 -219 100q-114 0 -182 -81q-75 -91 -75 -240v-377q0 -35 -62 -35q-61 0 -61 35v377q0 139 -66 221q-84 102 -260 102q-128 0 -217 -62
q-117 -82 -119 -229q49 94 194 94q116 0 190 -63q90 -76 90 -206q-2 -120 -92 -197q-86 -72 -204 -72q-183 0 -262 156q-43 85 -43 202q0 218 134 336q125 109 344 109q239 0 370 -158q119 158 319 158q216 0 332 -141q109 -130 109 -354q0 -206 -84 -327
q-87 -127 -235.5 -167.5t-291.5 -40.5h-719q-153 0 -153 -132t153 -132h1221q61 0 61 -59t-61 -59zM388 272q169 0 169 193q0 195 -169 195q-170 0 -170 -194t170 -194z" />
    <glyph glyph-name="ml_ii" unicode="&#xd08;" horiz-adv-x="3043" 
d="M2335 -24q-169 0 -303 72q-28 16 -28 32q0 13 17 23q19 11 44 11q23 0 43 -10q105 -58 227 -58q193 0 329 116q177 153 177 431q0 113 -47.5 225t-182.5 112q-161 0 -161 -198v-221q0 -35 -61 -35q-62 0 -62 35v215q0 204 -173 204q-193 0 -193 -239q0 -100 43 -167
q4 -5 4 -13q0 -24 -40 -32q-13 -3 -25 -3q-42 0 -63 38q-40 71 -40 174q0 312 314 312q169 0 236 -123q61 123 221 123q352 0 352 -407q0 -302 -197 -470q-172 -147 -431 -147zM1579 -412h-1221q-277 0 -277 226q0 116 88.5 171t188.5 55h719q119 0 229 28.5t183 134.5
q76 111 76 302q0 208 -97 325q-81 100 -219 100q-114 0 -182 -81q-75 -91 -75 -240v-377q0 -35 -62 -35q-61 0 -61 35v377q0 139 -66 221q-84 102 -260 102q-128 0 -217 -62q-117 -82 -119 -229q49 94 194 94q116 0 190 -63q90 -76 90 -206q-2 -120 -92 -197
q-86 -72 -204 -72q-183 0 -262 156q-43 85 -43 202q0 218 134 336q125 109 344 109q239 0 370 -158q119 158 319 158q216 0 332 -141q109 -130 109 -354q0 -206 -84 -327q-87 -127 -235.5 -167.5t-291.5 -40.5h-719q-153 0 -153 -132t153 -132h1221q61 0 61 -59t-61 -59z
M388 272q169 0 169 193q0 195 -169 195q-170 0 -170 -194t170 -194z" />
    <glyph glyph-name="ml_u" unicode="&#xd09;" horiz-adv-x="1238" 
d="M1048 -412h-691q-277 0 -277 227q0 115 88.5 170t188.5 55h269q170 0 263 79q146 123 146 368q0 173 -87 286q-120 157 -356 157q-162 0 -268 -80q-115 -86 -126 -222q57 106 211 106q115 0 191 -64q89 -74 89 -198q0 -115 -75 -190q-85 -86 -225 -86q-126 0 -210 83
q-97 96 -97 258q0 227 161 350q150 115 360 113q293 0 440 -177q115 -139 115 -336q0 -299 -206 -437q-117 -79 -326 -79h-269q-153 0 -153 -133q0 -132 153 -132h691q62 0 62 -59t-62 -59zM396 271q170 0 170 193q2 195 -170 195q-169 0 -169 -194t169 -194z" />
    <glyph glyph-name="ml_uu" unicode="&#xd0a;" horiz-adv-x="2465" 
d="M1757 -24q-169 0 -303 72q-28 16 -28 32q0 13 17 23q19 11 44 11q23 0 43 -10q105 -58 227 -58q193 0 329 116q177 153 177 431q0 113 -47.5 225t-182.5 112q-161 0 -161 -198v-221q0 -35 -61 -35q-62 0 -62 35v215q0 204 -173 204q-193 0 -193 -239q0 -100 43 -167
q4 -5 4 -13q0 -24 -40 -32q-13 -3 -25 -3q-42 0 -63 38q-40 71 -40 174q0 312 314 312q169 0 236 -123q61 123 221 123q352 0 352 -407q0 -302 -197 -470q-172 -147 -431 -147zM1048 -412h-691q-277 0 -277 227q0 115 88.5 170t188.5 55h269q170 0 263 79q146 123 146 368
q0 173 -87 286q-120 157 -356 157q-162 0 -268 -80q-115 -86 -126 -222q57 106 211 106q115 0 191 -64q89 -74 89 -198q0 -115 -75 -190q-85 -86 -225 -86q-126 0 -210 83q-97 96 -97 258q0 227 161 350q150 115 360 113q293 0 440 -177q115 -139 115 -336q0 -299 -206 -437
q-117 -79 -326 -79h-269q-153 0 -153 -133q0 -132 153 -132h691q62 0 62 -59t-62 -59zM396 271q170 0 170 193q2 195 -170 195q-169 0 -169 -194t169 -194z" />
    <glyph glyph-name="ml_r" unicode="&#xd0b;" horiz-adv-x="1477" 
d="M735 -412q-157 0 -372 75t-215 277q0 127 104 191.5t205 95.5q-116 34 -178 73q-151 94 -189 265q-10 46 -10 97q0 177 98 269q74 69 190 69q132 0 217 -86q76 -78 76 -182q0 -130 -89 -206q-76 -64 -186 -64q-123 0 -204 89q58 -179 257 -245q111 -37 296 -37
q77 0 154 6t150 31q197 69 256 245q-83 -89 -204 -89q-111 0 -186 64q-89 74 -89 206q0 104 76 182q85 86 217 86q116 0 190 -69q98 -91 98 -269q0 -51 -10 -97q-38 -171 -189 -265q-62 -39 -178 -73q101 -31 205 -95.5t104 -191.5q0 -199 -219 -275.5t-375 -76.5zM1108 537
q170 0 170 194q2 195 -170 195q-170 0 -170 -194q0 -195 170 -195zM369 537q170 0 170 194q0 195 -170 195q-169 0 -169 -192q0 -197 169 -197zM735 -342q125 0 297.5 61.5t172.5 220.5q0 156 -176.5 207t-293.5 51q-119 0 -291 -50t-172 -208q0 -160 169 -221t294 -61z" />
    <glyph glyph-name="ml_l" unicode="&#xd0c;" horiz-adv-x="2002" 
d="M1571 -24q-185 0 -279 145q-64 99 -64 231q0 158 89 279q110 150 337 178q-134 122 -301 122q-308 0 -308 -318v-602q0 -35 -62 -35q-61 0 -61 36v601q0 317 -338 317q-224 0 -331 -221q-57 -119 -52 -280q51 171 252 171q135 0 221 -94q76 -82 76 -211q0 -159 -102 -245
q-86 -74 -213 -74q-112 0 -199 72q-156 130 -156 406q0 160 60 281q130 265 444 265q266 0 396 -164q149 164 373 164q295 0 454 -209q115 -151 115 -363q0 -171 -72 -293q-93 -159 -279 -159zM1571 47q97 0 163 111q65 107 65 271q0 177 -88 311q-180 0 -281 -136
q-79 -107 -79 -252q0 -120 56 -206q63 -99 164 -99zM441 47q193 0 193 241q0 236 -193 236q-195 0 -195 -239q0 -238 195 -238z" />
    <glyph glyph-name="ml_e" unicode="&#xd0e;" horiz-adv-x="2076" 
d="M1759 -400q-16 0 -31 5q-30 10 -30 31q0 9 8 17q96 95 131.5 272t35.5 314q0 191 -77 441t-325 250q-255 0 -331.5 -253t-76.5 -447q0 -77 8 -160h339v661q0 35 62 35q61 0 61 -35v-762q0 -155 -22 -230q-41 -139 -191 -139q-178 0 -256.5 123.5t-105.5 276.5h-391
q-61 0 -62 34q-2 15 17 26q97 58 97 204q0 222 -207 222q-209 0 -209 -223q0 -161 114 -213q23 -11 23 -27q0 -12 -14 -22q-19 -13 -46 -13q-23 0 -45 10q-155 74 -155 265q0 141 102 217t230 76t229 -76t101 -216q0 -104 -62 -194h269q-8 71 -8 163q0 257 108 512t422 255
q315 0 420 -251.5t105 -508.5q0 -148 -39.5 -332.5t-144.5 -289.5q-18 -18 -53 -18zM1310 -330q77 0 88.5 116t11.5 174v40h-329q16 -84 68.5 -207t160.5 -123z" />
    <glyph glyph-name="ml_ee" unicode="&#xd0f;" horiz-adv-x="2124" 
d="M1516 930q-274 -1 -363.5 -239.5t-89.5 -460.5q0 -77 8 -160h339v661q0 35 62 35q61 0 61 -35v-762q0 -155 -22 -230q-41 -139 -191 -139q-178 0 -256.5 123.5t-105.5 276.5h-391q-61 0 -62 34q-2 15 17 26q97 58 97 204q0 222 -207 222q-209 0 -209 -223
q0 -161 114 -213q23 -11 23 -27q0 -12 -14 -22q-19 -13 -46 -13q-23 0 -45 10q-155 74 -155 265q0 141 102 217t230 76t229 -76t101 -216q0 -104 -62 -194h269q-8 71 -8 163q0 276 119.5 521.5t455.5 245.5q227 0 375 -123t148 -362q2 -234 -143 -336q150 -83 148 -262
q0 -314 -290 -316q-144 -3 -144 49q0 35 63 35q22 0 41.5 -7.5t40.5 -6.5q88 1 127 85.5t39 160.5q2 222 -163 219l-51 -1q-57 0 -57 35q0 32 55 35q47 2 55 4q93 17 124.5 122.5t31.5 183.5q0 417 -400 415zM1310 -330q77 0 88.5 116t11.5 174v40h-329q16 -84 68.5 -207
t160.5 -123z" />
    <glyph glyph-name="ml_ai" unicode="&#xd10;" horiz-adv-x="3266" 
d="M899 -24q-24 0 -42 11t-18 25q0 15 18 25q219 121 219 428q0 466 -450 466q-214 0 -327.5 -149.5t-97.5 -352.5q51 171 252 171q133 0 221 -94q76 -83 76 -211q0 -158 -102 -245q-86 -74 -213 -74q-114 0 -199 72q-156 130 -156 406q0 546 546 546q236 0 400 -134
t168 -401q5 -327 -241 -474q-24 -15 -54 -15zM441 46q194 0 194 239q0 240 -194 239q-195 0 -195 -239t195 -239zM2949 -400q-16 0 -31 5q-30 10 -30 31q0 9 8 17q96 95 131.5 272t35.5 314q0 191 -77 441t-325 250q-255 0 -331.5 -253t-76.5 -447q0 -77 8 -160h339v661
q0 35 62 35q61 0 61 -35v-762q0 -155 -22 -230q-41 -139 -191 -139q-178 0 -256.5 123.5t-105.5 276.5h-391q-61 0 -62 34q-2 15 17 26q97 58 97 204q0 222 -207 222q-209 0 -209 -223q0 -161 114 -213q23 -11 23 -27q0 -12 -14 -22q-19 -13 -46 -13q-23 0 -45 10
q-155 74 -155 265q0 141 102 217t230 76t229 -76t101 -216q0 -104 -62 -194h269q-8 71 -8 163q0 257 108 512t422 255q315 0 420 -251.5t105 -508.5q0 -148 -39.5 -332.5t-144.5 -289.5q-18 -18 -53 -18zM2500 -330q77 0 88.5 116t11.5 174v40h-329q16 -84 68.5 -207
t160.5 -123z" />
    <glyph glyph-name="ml_o" unicode="&#xd12;" horiz-adv-x="1321" 
d="M1178 79q-82 -103 -239 -103q-61 0 -120 22q-29 10 -29 31q0 9 10 18q19 16 52 16q24 0 43 -8t44 -8q81 0 128 61q51 63 51 143q0 89 -65 143q-47 40 -141 38q-65 -3 -65 35q0 35 65 35q80 0 129 47q48 47 48 123q0 109 -96 179q-107 78 -287 78q-238 0 -370 -128
q-74 -73 -102 -165t-33 -171q57 136 235 136q133 0 221 -94q77 -83 77 -211q0 -160 -102 -246q-86 -74 -211 -74q-198 0 -289 186q-57 116 -52 258l2 60q8 256 215 401q169 119 409 119q187 0 319 -63q186 -88 186 -265q0 -123 -118 -199q148 -79 148 -222q0 -92 -63 -172z
M424 47q194 0 194 239t-192 239q-196 0 -196 -239t194 -239z" />
    <glyph glyph-name="ml_oo" unicode="&#xd13;" horiz-adv-x="2114" 
d="M1652 -24q-137 0 -237 97q-91 87 -91 202q0 34 60 34t63 -33q6 -100 74 -168q61 -61 131 -61q109 0 181 113q78 124 78 328q0 207 -84 332q-73 109 -175 109q-73 0 -133 -58q-67 -66 -72 -170q-1 -34 -62 -34q-60 0 -60 35q0 118 88 204q94 94 239 94q186 0 289 -155
q93 -139 93 -357q0 -216 -86 -351q-101 -161 -296 -161zM1178 79q-82 -103 -239 -103q-61 0 -120 22q-29 10 -29 31q0 9 10 18q19 16 52 16q24 0 43 -8t44 -8q81 0 128 61q51 63 51 143q0 89 -65 143q-47 40 -141 38q-65 -3 -65 35q0 35 65 35q80 0 129 47q48 47 48 123
q0 109 -96 179q-107 78 -287 78q-238 0 -370 -128q-74 -73 -102 -165t-33 -171q57 136 235 136q133 0 221 -94q77 -83 77 -211q0 -160 -102 -246q-86 -74 -211 -74q-198 0 -289 186q-57 116 -52 258l2 60q8 256 215 401q169 119 409 119q187 0 319 -63q186 -88 186 -265
q0 -123 -118 -199q148 -79 148 -222q0 -92 -63 -172zM424 47q194 0 194 239t-192 239q-196 0 -196 -239t194 -239z" />
    <glyph glyph-name="ml_au" unicode="&#xd14;" horiz-adv-x="2498" 
d="M1790 -24q-169 0 -303 72q-28 16 -28 32q0 13 17 23q19 11 44 11q23 0 43 -10q105 -58 227 -58q193 0 329 116q177 153 177 431q0 113 -47.5 225t-182.5 112q-161 0 -161 -198v-221q0 -35 -61 -35q-62 0 -62 35v215q0 204 -173 204q-193 0 -193 -239q0 -100 43 -167
q4 -5 4 -13q0 -24 -40 -32q-13 -3 -25 -3q-42 0 -63 38q-40 71 -40 174q0 312 314 312q169 0 236 -123q61 123 221 123q352 0 352 -407q0 -302 -197 -470q-172 -147 -431 -147zM1178 79q-82 -103 -239 -103q-61 0 -120 22q-29 10 -29 31q0 9 10 18q19 16 52 16q24 0 43 -8
t44 -8q81 0 128 61q51 63 51 143q0 89 -65 143q-47 40 -141 38q-65 -3 -65 35q0 35 65 35q80 0 129 47q48 47 48 123q0 109 -96 179q-107 78 -287 78q-238 0 -370 -128q-74 -73 -102 -165t-33 -171q57 136 235 136q133 0 221 -94q77 -83 77 -211q0 -160 -102 -246
q-86 -74 -211 -74q-198 0 -289 186q-57 116 -52 258l2 60q8 256 215 401q169 119 409 119q187 0 319 -63q186 -88 186 -265q0 -123 -118 -199q148 -79 148 -222q0 -92 -63 -172zM424 47q194 0 194 239t-192 239q-196 0 -196 -239t194 -239z" />
    <glyph glyph-name="k1" unicode="&#xd15;" horiz-adv-x="1847" 
d="M924 -24q-187 0 -305 139q-64 -139 -238 -139q-137 0 -225 88q-76 76 -76 184q0 117 77 194q98 99 272 99h102q9 179 66 283q95 176 327 176q230 0 326 -175q57 -104 66 -284h92q159 0 256 -75q103 -78 103 -217q0 -110 -77 -185q-89 -87 -220 -87q-52 0 -93 11
q-48 13 -48 39q0 17 27 26q18 6 32 6q21 0 40 -6t43 -6q82 0 133 74q41 59 41 130q0 78 -45 135q-66 84 -192 84h-92q-4 -206 -69 -322q-96 -172 -323 -172zM1193 541q-10 171 -60 263q-68 126 -209 126q-142 0 -210 -127q-53 -97 -60 -262h539zM380 46q64 0 113 54
q55 59 55 165q0 31 -4 55q-11 63 -13 150h-102q-103 0 -165 -62q-61 -61 -61 -157q0 -93 60 -153q52 -52 117 -52zM924 46q139 0 207 123q38 67 49.5 146t13.5 155h-541q6 -199 64 -302q69 -122 207 -122z" />
    <glyph glyph-name="k2" unicode="&#xd16;" horiz-adv-x="1658" 
d="M644 50q-87 -74 -213 -74q-114 0 -199 72q-152 127 -152 406q0 246 154.5 396t398.5 150q235 0 396 -139.5t161 -383.5q0 -254 -167 -407h412v894q0 35 62 35q61 0 61 -35v-929q0 -35 -69 -35h-593q-61 0 -61 36q0 15 18 25q219 122 219 416q0 454 -439 454
q-214 0 -333 -148.5t-103 -353.5q51 171 252 171q133 0 221 -94q76 -83 76 -211q0 -158 -102 -245zM437 46q193 -1 193 242q0 237 -193 236q-195 0 -195 -239t195 -239z" />
    <glyph glyph-name="k3" unicode="&#xd17;" horiz-adv-x="1604" 
d="M1152 -24q-29 0 -47 14q-12 9 -12 20q0 18 26 29q282 117 282 453q0 173 -88 301q-93 137 -216 137q-178 0 -207 -157t-29 -282q0 -192 -52.5 -353.5t-296.5 -161.5q-216 0 -337 180q-95 142 -95 336q0 364 287 498q22 10 45 10q26 0 45 -13q14 -10 14 -22q0 -16 -23 -28
q-124 -56 -184.5 -186t-60.5 -259q0 -184 87 -311q91 -135 222 -135q175 0 200.5 160.5t25.5 284.5q0 191 60.5 350t298.5 159q207 0 330 -182q97 -142 97 -326q0 -365 -325 -506q-23 -10 -47 -10z" />
    <glyph glyph-name="k4" unicode="&#xd18;" horiz-adv-x="2295" 
d="M2133 0h-1093q-62 0 -62 39v310h-411q-61 0 -62 34q0 15 17 26q97 58 97 198q0 224 -207 224q-209 0 -209 -223q0 -156 114 -209q23 -11 23 -28q0 -12 -14 -21q-20 -14 -46 -14q-23 0 -43 10q-157 75 -157 262q0 142 102.5 217.5t229.5 75.5q128 0 229 -76.5t101 -217.5
q0 -98 -62 -188h298v233q0 173 132 260.5t284 87.5q153 0 275 -86.5t122 -257.5v-272q0 -35 -61 -35h-629v-278h971v894q0 35 61 35q62 0 62 -35v-930q0 -35 -62 -35zM1668 419v235q0 278 -276 276q-291 0 -291 -278v-233h567z" />
    <glyph glyph-name="ng" unicode="&#xd19;" horiz-adv-x="1878" 
d="M1461 -24q-110 0 -211 43q-25 10 -25 29q0 10 12 20q21 16 49 16q36 0 78.5 -18.5t96.5 -19.5q214 -2 214 188q0 125 -117 174q-55 23 -153 23h-84q-60 0 -60 36q0 34 63 34l81 -2q85 -2 145 27q105 50 104 170q-1 235 -282 233q-327 0 -327 -321v-597q0 -35 -61 -35
t-61 35v600q0 138 -82 223q-93 96 -257 96q-225 0 -331 -221q-57 -118 -52 -279q51 170 252 170q135 0 220 -93q77 -84 77 -211q0 -159 -102 -245q-87 -74 -213 -74q-114 0 -199 71q-156 130 -156 406q0 160 60 281q129 265 444 265q269 0 397 -159q127 158 391 158
q145 1 274.5 -66t129.5 -237q0 -147 -144 -228q166 -72 166 -234q0 -138 -108.5 -197.5t-228.5 -60.5zM441 47q193 0 193 238q0 239 -193 239q-195 0 -195 -239q0 -238 195 -238z" />
    <glyph glyph-name="ch1" unicode="&#xd1a;" horiz-adv-x="1557" 
d="M1395 0h-1314q-61 0 -61 35t61 35h403q297 0 297 313q0 224 -209 224q-205 0 -207 -186q0 -84 68 -140q11 -8 11 -19q0 -21 -28 -30q-16 -6 -34 -6q-62 0 -101.5 71t-38.5 124q2 134 111.5 196t218.5 61q331 0 331 -297q0 -181 -168 -311h599v895q0 35 62 35q61 0 61 -35
v-930q0 -35 -62 -35z" />
    <glyph glyph-name="ch2" unicode="&#xd1b;" horiz-adv-x="2292" 
d="M1858 -24q-183 0 -277 145q-64 99 -64 231q0 159 89 280q110 148 338 178q-131 120 -304 120q-238 0 -366 -181q-89 -126 -89 -304q0 -250 198 -386q14 -10 14 -23q0 -35 -62 -35h-1254q-61 0 -61 35t61 35h403q297 0 297 313q0 224 -209 224q-207 0 -207 -186
q0 -84 68 -140q11 -8 11 -19q0 -21 -28 -30q-16 -6 -34 -6q-62 0 -101.5 71t-38.5 124q2 134 111.5 196t218.5 61q331 0 331 -297q0 -181 -168 -311h483q-156 167 -156 374q0 214 120 359q162 196 458 196q366 0 513 -300q59 -119 59 -270q0 -175 -72 -295
q-94 -159 -282 -159zM1858 47q101 0 166 111q65 107 65 272q0 177 -88 311q-182 -2 -282 -137q-79 -107 -79 -252q0 -120 56 -206q63 -99 162 -99z" />
    <glyph glyph-name="ch3" unicode="&#xd1c;" horiz-adv-x="1628" 
d="M1548 198q0 -110 -87 -166t-186 -56q-234 0 -254 240q-147 -118 -275 -174q-149 -66 -304 -66q-113 -1 -236 39t-123 185q0 133 154 174q88 23 234 23q44 0 91.5 -1.5t97.5 -3.5q56 -1 112.5 -3.5t112.5 -1.5q79 1 161 6t157 27q105 31 162 102q61 75 61 167
q2 108 -69 174q-72 66 -183 66q-242 2 -242 -231v-193q0 -35 -62 -35q-60 0 -60 35v193q0 135 -120 195q-71 36 -163 36q-95 0 -182.5 -19t-147.5 -102q54 40 133 40q209 0 209 -189t-222 -189q-112 0 -174 57q-63 58 -63 161q0 143 108 225q70 54 162 70.5t177 16.5
q226 0 344 -122q119 123 308 121q176 0 282 -99q87 -82 87 -207q0 -110 -72 -201q-35 -43 -98 -83q170 -44 170 -211zM319 540q121 0 121 119q0 118 -123 118t-123 -118q0 -119 125 -119zM1275 47q150 0 150 153q0 151 -144 151q-150 0 -150 -151q0 -153 144 -153zM443 45
q141 0 269 62q189 93 317 213q-48 -2 -143 -2q-75 0 -231 4q-49 2 -95 3.5t-88 1.5q-137 0 -194 -22q-78 -29 -78 -119q0 -91 86.5 -116t156.5 -25z" />
    <glyph glyph-name="ch4" unicode="&#xd1d;" horiz-adv-x="2885" 
d="M2343 -24q-193 0 -311 133q-111 -133 -295 -133q-244 -2 -323 220q-24 69 -29 141.5t-5 144.5q0 64 -3.5 131t-25.5 128q-68 189 -291 189q-75 0 -133 -20q253 -181 253 -508q0 -146 -57 -253q-94 -174 -289 -172q-199 0 -291 172q-57 106 -57 253q0 328 252 508
q-56 20 -132 20q-225 0 -340 -224q-63 -123 -63 -281q0 -108 41 -221t142 -167q19 -10 19 -26q0 -35 -58 -35q-32 0 -66 22q-201 125 -201 427q0 169 68 301q140 274 458 274q117 0 228 -41q110 41 226 41q294 0 398 -211q34 -69 39.5 -150.5t5.5 -156.5q0 -179 32 -272
q56 -164 208 -164q224 0 224 288v631q0 35 62 35q61 0 61 -35v-630q0 -289 253 -289q214 0 303 228q38 97 36 213q-1 130 -54.5 263.5t-176.5 186.5q-24 10 -24 29q0 34 59 34q25 0 44 -9q143 -64 209 -206.5t66 -297.5q2 -145 -50 -255q-117 -256 -412 -256zM834 48
q128 0 175.5 128.5t47.5 229.5q0 300 -223 459q-226 -162 -226 -463q0 -112 52.5 -233t173.5 -121z" />
    <glyph glyph-name="nj" unicode="&#xd1e;" horiz-adv-x="2422" 
d="M2074 -24q-23 0 -41 11q-17 11 -17 24q0 15 20 26q101 54 142 167.5t41 220.5q0 158 -63 281q-115 224 -341 224q-54 0 -131 -20q252 -180 252 -508q0 -147 -57 -253q-92 -172 -291 -172q-198 0 -289 171q-57 108 -57 254q0 328 253 508q-77 20 -133 20
q-317 -2 -317 -322v-596q0 -35 -61 -35t-61 35v596q0 322 -335 322q-228 0 -335 -221q-57 -119 -52 -280q51 171 252 171q133 0 221 -94q76 -83 76 -211q0 -158 -102 -245q-87 -74 -213 -74q-114 0 -199 72q-156 130 -156 406q0 160 60 281q130 267 448 265q258 0 394 -168
q135 168 380 168q115 0 226 -41q111 41 227 41q319 0 459 -274q68 -132 68 -301q0 -304 -203 -428q-35 -21 -65 -21zM1588 47q119 0 172.5 121t53.5 234q0 301 -226 463q-226 -161 -224 -463q1 -121 54.5 -238t169.5 -117zM441 46q192 -1 194 239q0 239 -194 239
q-195 0 -195 -239t195 -239z" />
    <glyph glyph-name="t1" unicode="&#xd1f;" horiz-adv-x="1111" 
d="M900 57q-126 -81 -336 -81q-119 0 -255 41t-221 130q-8 8 -8 17q0 20 32 31q16 4 29 4q36 0 54 -18q130 -137 369 -135q157 2 254 71q89 64 89 162q-1 141 -219 141q-45 0 -90 -2t-91 -2q-168 0 -252 33q-145 57 -148 206q-3 165 135 256q134 89 327 89q292 2 453 -166
q8 -8 8 -17q0 -20 -32 -31q-12 -4 -30 -4q-36 0 -53 18q-126 130 -346 130q-170 0 -273 -96q-66 -61 -64 -147q3 -131 217 -131q48 0 96.5 2t97.5 2q138 2 227 -28q161 -54 161 -237q0 -154 -131 -238z" />
    <glyph glyph-name="t2" unicode="&#xd20;" horiz-adv-x="1222" 
d="M1142 485q0 -232 -154 -370.5t-378 -138.5t-377 139t-153 370t151.5 373t378.5 142t379.5 -141.5t152.5 -373.5zM610 46q187 0 298 128t111 311t-109 314t-300 131q-190 0 -298.5 -131.5t-108.5 -313.5t110 -310.5t297 -128.5z" />
    <glyph glyph-name="t3" unicode="&#xd21;" 
d="M1677 -24q-191 0 -311 133q-110 -133 -289 -133q-251 0 -328 221q-25 74 -30 152.5t-5 155.5q0 69 -4 140t-27 136q-52 149 -190 149q-183 0 -257 -232q-35 -106 -34 -209q1 -136 62.5 -267t194.5 -181q27 -11 27 -29q0 -10 -10 -19q-20 -17 -47 -17q-21 0 -49 11
q-156 63 -228 206.5t-72 295.5q0 134 41 242q101 269 372 269q220 0 298 -177q33 -74 39.5 -156t6.5 -162q0 -73 3.5 -148.5t28.5 -146.5q56 -164 208 -164q225 0 225 288v631q0 35 61 35q62 0 62 -35v-630q0 -288 252 -288q217 0 303 227q36 95 36 207q0 127 -52 264
t-179 192q-24 10 -24 28q0 12 13 21q18 14 46 14q25 0 44 -9q148 -66 211.5 -212t63.5 -298q0 -141 -50 -249q-116 -256 -412 -256z" />
    <glyph glyph-name="t4" unicode="&#xd22;" horiz-adv-x="2348" 
d="M1767 -24q-247 0 -388 150q-112 -150 -301 -150q-252 0 -329 221q-25 74 -30 152.5t-5 155.5q0 69 -4 140t-27 136q-52 149 -190 149q-181 0 -257 -232q-34 -107 -34 -209q1 -136 62.5 -267t194.5 -181q27 -11 27 -29q0 -10 -10 -19q-20 -17 -47 -17q-21 0 -49 11
q-155 63 -227.5 206.5t-72.5 295.5q0 130 41 242q101 269 372 269q220 0 298 -177q33 -74 39.5 -156t6.5 -162q0 -73 4 -148.5t28 -146.5q58 -164 209 -164q128 0 176 90.5t48 203.5v625q0 35 62 35t62 -35v-600q0 -316 339 -318q225 0 331 222q51 107 51 279
q-44 -172 -252 -172q-135 0 -221 94q-76 82 -76 211q0 159 102 245q87 74 217 74q110 0 195 -72q86 -72 121 -187t35 -224q0 -152 -60 -276q-131 -267 -441 -265zM1907 452q195 0 195 239t-195 239q-194 0 -194 -239t194 -239z" />
    <glyph glyph-name="nh" unicode="&#xd23;" horiz-adv-x="2426" 
d="M2030 -24q-31 0 -49 14q-12 8 -12 20q0 19 24 29q128 56 179.5 192.5t50.5 263.5q0 155 -62 265q-96 170 -276 170q-253 0 -253 -285v-634q0 -35 -62 -35q-61 0 -61 35v634q0 282 -233 282q-231 0 -231 -287v-629q0 -35 -61 -35t-61 35v603q0 316 -338 316
q-224 0 -332 -221q-57 -115 -52 -280q51 171 252 171q133 0 221 -94q76 -83 76 -211q0 -158 -102 -245q-87 -74 -213 -74q-114 0 -199 72q-156 130 -156 406q0 160 60 281q129 265 445 265q249 0 392 -151q97 151 299 151q190 0 292 -142q102 142 317 142q264 0 389 -212
q72 -121 72 -292q1 -154 -63.5 -300.5t-215.5 -212.5q-15 -7 -37 -7zM441 46q192 -1 194 239q0 239 -194 239q-195 0 -195 -239t195 -239z" />
    <glyph glyph-name="th1" unicode="&#xd24;" horiz-adv-x="1665" 
d="M1318 -24q-21 0 -42 12q-16 10 -16 24q0 15 19 26q104 55 143.5 168.5t39.5 222.5q0 154 -63 277q-115 224 -340 224q-67 0 -133 -20q252 -181 254 -509q0 -145 -58 -253q-93 -172 -291 -172q-196 0 -289 172q-57 107 -57 253q0 327 253 509q-57 20 -133 20
q-224 0 -339 -224q-63 -123 -63 -277q0 -109 41 -223.5t142 -167.5q19 -11 19 -26q0 -14 -16 -24q-19 -12 -42 -12q-32 0 -66 22q-201 125 -201 431q0 165 68 297q139 274 457 274q116 0 227 -41q111 41 227 41q319 0 458 -274q68 -133 68 -297q0 -124 -45 -243.5
t-156 -187.5q-34 -22 -66 -22zM831 46q109 0 173 121q53 103 53 234q0 303 -225 464q-224 -162 -224 -464q0 -132 52 -233q63 -122 171 -122z" />
    <glyph glyph-name="th2" unicode="&#xd25;" horiz-adv-x="1488" 
d="M1327 0h-1166q-61 0 -61 35v930q0 35 61 35q62 0 62 -35v-895h329v540q0 390 411 390q167 0 296 -108t129 -289v-568q0 -35 -61 -35zM1265 70v535q0 324 -304 324q-287 0 -287 -319v-540h591z" />
    <glyph glyph-name="th3" unicode="&#xd26;" horiz-adv-x="1139" 
d="M279 -24q-37 0 -61 30q-138 173 -138 427q0 308 193 460q137 107 353 107q172 0 288 -74q131 -83 131 -242q0 -152 -150 -215q164 -62 164 -224q0 -136 -98 -206q-86 -61 -220 -61q-108 0 -198 43q-22 11 -22 28q0 12 13 21q19 13 48 13q20 0 38 -8q62 -27 121 -27
q102 0 155 64q40 51 40 133q0 127 -130 171q-54 18 -120 18q-22 0 -43.5 -1t-44.5 -1q-62 0 -62 35t61 35h89q68 0 118 18q120 42 119 164q0 108 -73 174q-81 72 -224 72q-184 0 -293 -112q-130 -131 -130 -383q0 -250 133 -409q6 -7 6 -15q0 -22 -35 -31q-12 -4 -28 -4z
" />
    <glyph glyph-name="th4" unicode="&#xd27;" horiz-adv-x="1712" 
d="M1170 -24q-197 0 -314 133q-117 -133 -314 -133q-294 0 -412 256q-50 110 -50 255q0 150 65 294.5t210 209.5q20 9 44 9q29 0 47 -14q12 -8 12 -20q0 -19 -24 -29q-124 -54 -177.5 -189.5t-53.5 -260.5q0 -120 36 -213q87 -228 303 -228q253 0 253 283v636q0 35 61 35
t61 -35v-636q0 -283 253 -283q216 0 303 228q36 93 36 213q0 125 -53 260.5t-178 189.5q-24 10 -24 29q0 12 12 20q18 14 47 14q25 0 44 -9q145 -65 210 -209.5t65 -294.5q0 -145 -50 -255q-118 -256 -412 -256z" />
    <glyph glyph-name="n1" unicode="&#xd28;" horiz-adv-x="1712" 
d="M1313 -24q-29 0 -47 14q-12 8 -12 20q0 19 24 29q125 54 178 189.5t53 260.5q0 120 -36 213q-87 228 -303 228q-253 0 -253 -283v-635q0 -36 -61 -36t-61 36v635q0 283 -253 283q-216 0 -303 -228q-36 -93 -36 -213q0 -125 53.5 -260.5t177.5 -189.5q24 -10 24 -29
q0 -12 -12 -20q-18 -14 -47 -14q-24 0 -44 9q-145 65 -210 209.5t-65 294.5q0 145 50 255q118 256 412 256q197 0 314 -133q117 133 314 133q294 0 412 -256q50 -110 50 -255q0 -150 -65 -294.5t-210 -209.5q-19 -9 -44 -9z" />
    <glyph glyph-name="n2" unicode="&#xd29;" horiz-adv-x="1839" 
d="M1443 -24q-31 0 -49 14q-12 8 -12 20q0 19 24 29q128 56 179 192.5t51 263.5q0 155 -62 265q-96 170 -276 170q-253 0 -253 -285v-634q0 -35 -62 -35q-61 0 -61 35v618q0 300 -335 300q-228 0 -334 -220q-58 -118 -53 -280q52 171 253 171q133 0 221 -94q76 -83 76 -211
q0 -160 -102 -245q-87 -74 -213 -74q-114 0 -199 72q-156 130 -156 406q0 160 60 281q129 265 447 265q247 0 388 -149q116 149 323 149q264 0 389 -212q72 -124 72 -292q1 -154 -63.5 -300.5t-215.5 -212.5q-15 -7 -37 -7zM441 46q193 -1 193 242q0 237 -193 236
q-195 0 -195 -239t195 -239z" />
    <glyph glyph-name="p1" unicode="&#xd2a;" horiz-adv-x="1524" 
d="M280 -12q-23 0 -45 10q-155 76 -155 261q0 142 102.5 218t229.5 76q128 0 229 -76.5t101 -217.5q0 -98 -62 -188h621v894q0 35 62 35q61 0 61 -35v-929q0 -35 -61 -35h-797q-61 0 -61 35q0 14 17 25q97 57 97 198q0 223 -207 223q-209 0 -209 -223q0 -155 114 -208
q23 -11 23 -28q0 -10 -14 -21q-22 -14 -46 -14z" />
    <glyph glyph-name="p2" unicode="&#xd2b;" horiz-adv-x="1899" 
d="M281 -12q-23 0 -45 10q-156 74 -156 261q0 142 102.5 218t229.5 76q128 0 229 -76.5t101 -217.5q0 -101 -62 -188h283v539q0 182 120 286t291 104q168 0 296.5 -107.5t128.5 -289.5v-568q0 -35 -61 -35h-1171q-62 0 -62 35q0 14 17 25q97 58 97 199q0 223 -207 223
q-209 0 -209 -223q0 -156 114 -209q23 -11 23 -27q0 -12 -14 -22q-17 -13 -45 -13zM1676 71v534q0 327 -304 325q-287 0 -287 -320v-539h591z" />
    <glyph glyph-name="p3" unicode="&#xd2c;" horiz-adv-x="2265" 
d="M984 -24q-62 0 -62 36v604q0 314 -336 314q-228 0 -333 -221q-57 -119 -52 -280q51 171 252 171q134 0 220 -94q77 -83 77 -211q0 -160 -102 -245q-87 -74 -213 -74q-112 0 -199 72q-156 130 -156 406q0 160 60 281q130 264 446 264q256 0 392 -153q110 154 311 154
q212 0 329 -146.5t117 -346.5q0 -266 -177 -437h484v894q0 35 62 35q61 0 61 -35v-929q0 -35 -61 -35h-682q-66 0 -65 35q0 17 25 28q124 54 177 186.5t53 257.5q0 139 -80.5 281t-242.5 142q-244 0 -244 -290v-629q0 -35 -61 -35zM441 46q193 -1 193 242q0 236 -193 236
q-195 0 -195 -239t195 -239z" />
    <glyph glyph-name="p4" unicode="&#xd2d;" horiz-adv-x="1179" 
d="M278 -20q-37 0 -60 29q-140 183 -138 424q2 571 570 571q134 0 287 -48t153 -215q0 -173 -178 -173q-49 0 -96 12.5t-96 12.5q-125 0 -125 -108q0 -118 144 -118q45 0 88.5 9.5t89.5 9.5q182 0 182 -185q0 -136 -112.5 -178t-221.5 -42q-143 0 -247 48q-23 10 -23 28
q0 12 13 22q17 13 48 13q23 0 38 -7q79 -35 171 -35q74 0 144.5 31.5t70.5 119.5q0 101 -123 101q-38 0 -78.5 -9t-84.5 -9q-77 0 -128 38q-77 57 -77 166q0 191 184 191q56 0 108 -14t104 -14q91 0 91 90q0 119 -117 156t-209 37q-223 0 -335 -152t-112 -358
q0 -226 133 -394q6 -7 6 -14q0 -22 -36 -32q-12 -4 -28 -4z" />
    <glyph glyph-name="m1" unicode="&#xd2e;" horiz-adv-x="1173" 
d="M1011 0h-849q-62 0 -62 35v539q0 184 125 299q138 127 362 127q223 0 360 -126q126 -116 126 -300v-539q0 -35 -62 -35zM950 70v504q0 164 -107 263q-86 79 -248 96q170 -65 170 -291q0 -338 -334 -572h519zM223 70q178 77 299.5 224.5t121.5 347.5q0 86 -40.5 167.5
t-138.5 82.5q-75 0 -136 -56q-106 -97 -106 -262v-504z" />
    <glyph glyph-name="y1" unicode="&#xd2f;" horiz-adv-x="1750" 
d="M665 -24q-290 0 -450 188q-135 157 -135 402q0 164 68 281q87 153 264 153q173 0 225 -162q82 162 270 162q145 0 248 -108q112 -118 112 -310q0 -164 -73 -306q-65 -125 -189 -211q77 -18 136 -18q218 0 334 210q72 131 72 299q0 107 -39.5 218t-136.5 166
q-18 11 -18 25q0 15 18 24q19 11 41 11q31 0 63 -21q195 -124 195 -423q0 -180 -78 -320q-142 -259 -451 -259q-123 0 -234 40q-113 -41 -242 -41zM907 110q112 74 171 190q67 131 67 281q0 159 -68 255q-66 94 -170 94q-127 0 -176 -115.5t-49 -228.5q0 -150 55 -274
q52 -117 170 -202zM665 47q66 0 147 19q-121 88 -179 206q-72 146 -72 314q0 113 -10 176q-29 168 -139 168q-88 0 -147 -105q-62 -106 -62 -258q0 -227 123 -372q125 -148 339 -148z" />
    <glyph glyph-name="r3" unicode="&#xd30;" horiz-adv-x="1308" 
d="M358 -25q-32 0 -65 25q-213 161 -213 436q0 199 103 342q162 223 475 223q363 0 511 -300q59 -121 59 -275q0 -171 -72 -290q-94 -160 -280 -160q-185 0 -279 146q-65 100 -65 230q0 159 90 281q108 148 338 178q-133 120 -302 120q-244 0 -373 -197q-82 -126 -82 -298
q0 -264 200 -402q14 -8 14 -22q0 -16 -22 -28q-22 -9 -37 -9zM876 48q98 0 164 110q65 109 65 272q0 179 -89 311q-179 0 -281 -136q-80 -110 -80 -253q0 -118 57 -206q63 -98 164 -98z" />
    <glyph glyph-name="rh" unicode="&#xd31;" horiz-adv-x="1212" 
d="M800 -24q-23 0 -43 12q-15 11 -15 23q0 17 20 26q246 126 246 427q0 178 -104.5 322t-297.5 144q-193 -1 -297.5 -140.5t-104.5 -319.5q0 -307 246 -433q20 -9 20 -26q0 -12 -15 -23q-19 -12 -44 -12q-26 0 -49 12q-282 149 -282 480q0 222 151.5 377t374.5 155
q224 0 375 -158.5t151 -379.5q0 -325 -280 -473q-26 -13 -52 -13z" />
    <glyph glyph-name="l3" unicode="&#xd32;" horiz-adv-x="1417" 
d="M1255 0h-1094q-61 0 -61 39v612q0 188 142 268.5t273 80.5q154 0 276 -87t122 -260v-270q0 -35 -61 -35h-629v-278h971v895q0 35 61 35q62 0 62 -35v-930q0 -35 -62 -35zM790 418v235q0 279 -276 277q-110 -1 -200.5 -71.5t-90.5 -207.5v-233h567z" />
    <glyph glyph-name="lh" unicode="&#xd33;" horiz-adv-x="1287" 
d="M1097 -412h-740q-277 0 -277 226q0 116 88 171.5t189 55.5h458q100 0 184.5 40.5t84.5 158.5q0 97 -82 152q-57 39 -141 39q-61 0 -61 35t61 35q99 0 155 49q57 50 57 129q0 122 -108 187q-106 64 -295 64q-191 0 -302 -56q-145 -73 -163 -227q62 89 193 89
q117 0 191 -64q89 -75 89 -206q0 -106 -76 -182q-86 -86 -220 -86q-149 0 -230 103q-72 91 -72 246q0 143 64 245q83 133 233 170.5t293 37.5q241 0 383 -86q142 -84 142 -235q0 -135 -149 -214q161 -81 161 -225q0 -163 -129.5 -216t-262.5 -53h-458q-153 0 -153 -133
q0 -132 153 -132h740q61 0 61 -59t-61 -59zM384 272q170 0 170 194q0 195 -170 195t-170 -195q0 -194 170 -194z" />
    <glyph glyph-name="zh" unicode="&#xd34;" horiz-adv-x="1163" 
d="M576 -24q-88 0 -180.5 44.5t-94.5 149.5q-1 33 60 36q60 0 63 -34q7 -126 153 -126q164 0 164 168q0 37 -20 93q-76 -13 -137 -13q-196 0 -350 105.5t-154 320.5q0 145 86 257q16 22 58 22q60 0 60 -35q0 -8 -5 -14q-76 -100 -76 -230q0 -356 381 -356q40 0 96 9
q-66 84 -109.5 153.5t-43.5 182.5q0 121 64 199q76 92 207 92q135 0 215 -94q70 -81 70 -191q0 -268 -251 -375q32 -67 32 -126q0 -99 -73 -164q-83 -74 -215 -74zM787 408q173 98 173 306q0 95 -57 161q-47 54 -105 54q-54 0 -96 -51q-52 -62 -52 -167q0 -91 37 -162
q20 -38 47 -72.5t53 -68.5z" />
    <glyph glyph-name="v1" unicode="&#xd35;" horiz-adv-x="1652" 
d="M412 -12q-27 0 -50 12q-282 144 -282 484q0 223 153 369.5t373 146.5q223 0 374.5 -151t151.5 -374q0 -233 -191 -404h488v893q0 36 61 36q62 0 62 -36v-929q0 -35 -62 -35h-686q-63 0 -63 35q0 14 21 26q246 123 246 416q0 180 -104.5 317.5t-297.5 136.5
q-191 0 -296.5 -132t-105.5 -313q0 -314 246 -437q21 -11 21 -27q0 -12 -15 -22q-19 -12 -44 -12z" />
    <glyph glyph-name="z1" unicode="&#xd36;" horiz-adv-x="1838" 
d="M509 -24q-208 0 -318.5 153t-110.5 346q0 393 315 517q21 8 42 8q31 0 50 -16q10 -9 10 -19q0 -19 -28 -30q-133 -49 -200 -182.5t-67 -271.5q0 -133 73.5 -284t233.5 -151q176 0 198.5 141.5t22.5 268.5q0 92 8 182.5t60 170.5q123 191 403 191q349 0 498 -299
q59 -119 59 -275q0 -169 -72 -290q-94 -159 -280 -159q-185 0 -279 145q-64 99 -64 231q0 158 89 279q111 150 338 178q-132 120 -289 120q-215 2 -302 -170q-36 -70 -41.5 -148.5t-5.5 -155.5q0 -198 -49 -339t-294 -141zM1406 48q98 0 164 111q65 107 65 271
q0 177 -88 311q-181 0 -282 -136q-79 -107 -79 -252q0 -120 56 -206q65 -99 164 -99z" />
    <glyph glyph-name="sh" unicode="&#xd37;" horiz-adv-x="1857" 
d="M280 -12q-22 0 -44 10q-156 76 -156 262q0 142 102.5 217.5t229.5 75.5q128 0 229 -76.5t101 -217.5q0 -98 -62 -188h508v299q-180 7 -288 102q-111 99 -111 229q0 253 268 253q257 0 255 -230l-1 -276q127 52 225 217.5t98 299.5q0 35 62 35q61 0 61 -35v-929
q0 -35 -61 -35h-1130q-61 0 -61 35q0 16 17 25q97 58 97 198q0 224 -207 224q-209 0 -209 -224q0 -155 114 -208q23 -11 23 -28q0 -12 -14 -22q-19 -13 -46 -13zM1188 440l1 284q0 160 -131 160q-146 0 -146 -180q0 -97 70 -174q73 -82 206 -90zM1634 71v608
q-111 -229 -323 -304v-304h323z" />
    <glyph glyph-name="s1" unicode="&#xd38;" 
d="M542 1000q191 0 311 -133q110 133 289 133q251 0 328 -221q26 -73 30.5 -152t4.5 -156q0 -69 4.5 -140t26.5 -136q52 -149 190 -149q183 0 257 232q35 106 34 209q-1 136 -62.5 267.5t-194.5 180.5q-27 11 -27 29q0 10 10 19q20 17 47 17q22 0 49 -11q156 -63 228 -206.5
t72 -295.5q0 -134 -41 -242q-101 -269 -372 -269q-220 0 -298 177q-33 74 -39.5 156t-6.5 162q0 74 -3.5 149.5t-28.5 145.5q-56 164 -208 164q-225 0 -225 -288v-631q0 -35 -61 -35q-62 0 -62 35v630q0 288 -252 288q-217 0 -303 -227q-36 -95 -36 -207q0 -127 52 -264
t179 -192q24 -10 24 -28q0 -12 -13 -21q-18 -14 -46 -14q-24 0 -44 9q-148 66 -211.5 212t-63.5 298q0 141 50 249q116 256 412 256z" />
    <glyph glyph-name="h1" unicode="&#xd39;" horiz-adv-x="2025" 
d="M1614 -6q-25 0 -45 12q-15 10 -15 23q0 15 21 26q246 124 246 428q0 180 -105 317t-297 137q-190 1 -296 -133t-106 -313q0 -300 246 -424q21 -12 21 -26q0 -34 -60 -34h-657q-62 0 -62 35q0 14 17 25q97 58 97 198q0 224 -207 224q-209 0 -209 -224q0 -155 114 -208
q23 -11 23 -28q0 -12 -14 -22q-17 -13 -45 -13q-23 0 -45 10q-156 74 -156 262q0 141 102 217t230 76t229 -76.5t101 -217.5q0 -100 -62 -188h404q-191 171 -191 409q0 224 152 372t374 148q221 0 373.5 -152t152.5 -373q0 -330 -282 -475q-22 -12 -49 -12z" />
    <glyph glyph-name="rh_half" unicode="&#xd3a;" horiz-adv-x="1176" 
d="M787 -24q-61 0 -61 35v334h-584q-62 0 -62 35q0 6 5 14l645 964q15 23 59 23q14 0 20 -2q40 -10 40 -33q0 -8 -4 -13l-614 -918h803q62 0 62 -35t-62 -35h-185v-334q0 -35 -62 -35z" />
    <glyph glyph-name="verticalbarvirama" unicode="&#xd3b;" horiz-adv-x="352" 
d="M178 1682q80 0 80 -70l-26 -442q0 -70 -54 -70q-51 0 -55 70l-26 442q-4 70 81 70z" />
    <glyph glyph-name="circularvirama" unicode="&#xd3c;" horiz-adv-x="318" 
d="M111.633 999.548q-204.237 0 -204.237 191.782q0 192.396 203.603 192.396q204.238 0 204.238 -192.396q0 -191.782 -203.604 -191.782zM111.633 1043.19q127.49 0 127.49 148.14q0 148.754 -127.49 148.754q-128.124 0 -128.124 -148.754q0 -148.14 128.124 -148.14z
" />
    <glyph glyph-name="avagraha" unicode="&#xd3d;" horiz-adv-x="1359" 
d="M318 -393q-298 0 -298 269q0 45 15 97q9 29 60 29q62 0 62 -33q0 -4 -2 -12q-12 -39 -12 -81q0 -200 175 -200q78 0 132 65q89 107 121.5 361.5t46.5 396.5q15 152 49 409t131 373q89 105 246 105q295 0 295 -271q0 -44 -15 -96q-10 -29 -59 -29q-63 0 -63 34q0 6 3 13
q11 39 11 78q0 17 -1 26q-17 175 -171 175q-81 0 -135 -64q-89 -107 -121.5 -361t-46.5 -396q-15 -152 -49 -410t-131 -374q-88 -104 -243 -104z" />
    <glyph glyph-name="a2" unicode="&#xd3e;" horiz-adv-x="850" 
d="M388 -24q-137 0 -237 97q-91 87 -91 202q0 34 60 34t63 -33q6 -100 74 -168q61 -61 131 -61q109 0 181 113q78 124 78 328q0 207 -84 332q-73 109 -175 109q-73 0 -133 -58q-67 -66 -72 -170q-1 -34 -62 -34q-60 0 -60 35q0 118 88 204q94 94 239 94q186 0 289 -155
q93 -139 93 -357q0 -216 -86 -351q-101 -161 -296 -161z" />
    <glyph glyph-name="i1" unicode="&#xd3f;" horiz-adv-x="320" 
d="M158 -24q-61 0 -61 35v1122q0 179 -125 179q-131 0 -121 -150l2 -33q1 -30 -69 -30q-54 0 -54 42q0 240 242 240q248 0 248 -248v-1122q0 -35 -62 -35z" />
    <glyph glyph-name="i2" unicode="&#xd40;" horiz-adv-x="315" 
d="M155 -24q-61 0 -61 35v1118q0 178 -166 188q46 -37 46 -101q0 -68 -54 -106q-48 -34 -129 -34t-128 35q-53 39 -53 105q0 85 89 131q58 30 190 30q126 -1 226 -47.5t100 -200.5v-1118q0 -35 -60 -35zM-209 1127q98 0 98 94q0 93 -99 93q-98 0 -98 -95q0 -92 99 -92z" />
    <glyph glyph-name="u1" unicode="&#xd41;" horiz-adv-x="560" 
d="M240 -424q-240 0 -240 250q0 210 192 245q127 256 127 522q0 136 -42 221q-47 97 -145 118q-40 7 -40 34q0 33 61 33q136 0 223 -134q68 -104 66 -272q-4 -274 -126 -529q164 -50 164 -238q0 -250 -240 -250zM240 -358q136 0 136 184t-136 184t-136 -184t136 -184z" />
    <glyph glyph-name="u2" unicode="&#xd42;" horiz-adv-x="762" 
d="M273 -595q-113 0 -200 45q-16 10 -16 22q0 11 12 18q17 9 38 9q20 0 34 -7q57 -30 132 -30q296 0 296 301q0 199 -158 251q70 -74 70 -185q0 -245 -240 -245t-240 245q0 146 112 217q43 25 92 34q122 255 122 517q0 138 -44 223q-48 93 -142 112q-40 8 -40 32q0 35 56 35
q145 0 230 -139q62 -99 62 -263q0 -248 -114 -509q326 -21 326 -325q0 -165 -116 -261.5t-272 -96.5zM241 -355q136 0 136 186q0 187 -136 187t-136 -187q0 -186 136 -186z" />
    <glyph glyph-name="r1" unicode="&#xd43;" horiz-adv-x="729" 
d="M358 -486q-113 0 -199 47q-129 71 -129 179q0 106 103.5 162.5t224.5 56.5q165 0 245 -85q-25 89 -66 139.5t-97 128.5q-100 140 -132 322q-18 102 -18 224q0 115 16 279q3 33 61 33q62 0 62 -35q0 -4 -1 -7q-15 -167 -15 -273q0 -117 16 -209q30 -177 124 -308
q55 -76 116 -159t61 -181q0 -175 -128 -257q-88 -57 -244 -57zM358 -412q66 0 148 35t82 116q0 83 -82 116.5t-148 33.5q-70 0 -139.5 -34.5t-69.5 -116.5t71 -116t138 -34z" />
    <glyph glyph-name="r2" unicode="&#xd44;" horiz-adv-x="610" 
d="M373 -486q-112 0 -227.5 52.5t-115.5 188.5q0 196 196 196q106 0 144 -72q45 72 138 72q44 0 77 -16q-16 44 -60.5 97.5t-84.5 108.5q-98 135 -131 323q-18 102 -18 225q0 114 16 278q3 32 60 32q62 0 62 -33v-6q-16 -160 -16 -275q0 -117 16 -209q34 -191 124 -307
q56 -72 116.5 -160t60.5 -183q0 -310 -357 -312zM370 -415q85 0 168.5 43t83.5 143q0 116 -110 116q-101 0 -101 -145q0 -23 -40 -23q-39 0 -39 23q0 146 -103 146q-108 0 -108 -123q0 -101 82 -140.5t167 -39.5z" />
    <glyph glyph-name="e1" unicode="&#xd46;" horiz-adv-x="1254" 
d="M899 -24q-24 0 -42 11t-18 25q0 15 18 25q219 121 219 428q0 466 -450 466q-214 0 -327.5 -149.5t-97.5 -352.5q51 171 252 171q133 0 221 -94q76 -83 76 -211q0 -158 -102 -245q-86 -74 -213 -74q-114 0 -199 72q-156 130 -156 406q0 546 546 546q236 0 400 -134
t168 -401q5 -327 -241 -474q-24 -15 -54 -15zM441 46q194 0 194 239q0 240 -194 239q-195 0 -195 -239t195 -239z" />
    <glyph glyph-name="e2" unicode="&#xd47;" horiz-adv-x="941" 
d="M573 -24q-493 0 -493 512t493 512q122 0 193 -40q115 -63 115 -191q0 -206 -226 -206q-221 0 -221 205q0 118 70 161q-301 -66 -301 -441t301 -441q-70 43 -70 159q0 207 221 207q226 0 226 -206q0 -128 -115 -191q-74 -40 -193 -40zM654 633q116 -2 116 134
q2 139 -114 139t-116 -134q0 -137 114 -139zM656 70q116 0 114 139q0 136 -116 134q-114 -2 -114 -139q0 -134 116 -134z" />
    <glyph glyph-name="ai1" unicode="&#xd48;" horiz-adv-x="2479" 
d="M2124 -24q-24 0 -42 11t-18 25q0 15 18 25q219 121 219 428q0 466 -450 466q-214 0 -327.5 -149.5t-97.5 -352.5q51 171 252 171q133 0 221 -94q76 -83 76 -211q0 -158 -102 -245q-86 -74 -213 -74q-114 0 -199 72q-156 130 -156 406q0 546 546 546q236 0 400 -134
t168 -401q5 -327 -241 -474q-24 -15 -54 -15zM1666 46q194 0 194 239q0 240 -194 239q-195 0 -195 -239t195 -239zM899 -24q-24 0 -42 11t-18 25q0 15 18 25q219 121 219 428q0 466 -450 466q-214 0 -327.5 -149.5t-97.5 -352.5q51 171 252 171q133 0 221 -94
q76 -83 76 -211q0 -158 -102 -245q-86 -74 -213 -74q-114 0 -199 72q-156 130 -156 406q0 546 546 546q236 0 400 -134t168 -401q5 -327 -241 -474q-24 -15 -54 -15zM441 46q194 0 194 239q0 240 -194 239q-195 0 -195 -239t195 -239z" />
    <glyph glyph-name="o1" unicode="&#xd4a;" horiz-adv-x="2546" 
d="M1824 423h-450q-62 0 -62 35q0 36 62 36h450q61 0 61 -36q0 -35 -61 -35zM899 -17q-24 0 -42 11t-18 25q0 15 18 25q219 121 219 428q0 466 -450 466q-214 0 -327.5 -149.5t-97.5 -352.5q51 171 252 171q133 0 221 -94q76 -83 76 -211q0 -158 -102 -245q-86 -74 -213 -74
q-114 0 -199 72q-156 130 -156 406q0 546 546 546q236 0 400 -134t168 -401q5 -327 -241 -474q-24 -15 -54 -15zM441 53q194 0 194 239q0 240 -194 239q-195 0 -195 -239t195 -239zM2064 -20q-137 0 -237 97q-91 87 -91 202q0 34 60 34t63 -33q6 -100 74 -168
q61 -61 131 -61q109 0 181 113q78 124 78 328q0 207 -84 332q-73 109 -175 109q-73 0 -133 -58q-67 -66 -72 -170q-1 -34 -62 -34q-60 0 -60 35q0 118 88 204q94 94 239 94q186 0 289 -155q93 -139 93 -357q0 -216 -86 -351q-101 -161 -296 -161z" />
    <glyph glyph-name="o2" unicode="&#xd4b;" horiz-adv-x="2115" 
d="M1294 409h-450q-62 0 -62 35q0 36 62 36h450q61 0 61 -36q0 -35 -61 -35zM573 -24q-493 0 -493 512t493 512q122 0 193 -40q115 -63 115 -191q0 -206 -226 -206q-221 0 -221 205q0 118 70 161q-301 -66 -301 -441t301 -441q-70 43 -70 159q0 207 221 207q226 0 226 -206
q0 -128 -115 -191q-74 -40 -193 -40zM654 633q116 -2 116 134q2 139 -114 139t-116 -134q0 -137 114 -139zM656 70q116 0 114 139q0 136 -116 134q-114 -2 -114 -139q0 -134 116 -134zM1633 -18q-137 0 -237 97q-91 87 -91 202q0 34 60 34t63 -33q6 -100 74 -168
q61 -61 131 -61q109 0 181 113q78 124 78 328q0 207 -84 332q-73 109 -175 109q-73 0 -133 -58q-67 -66 -72 -170q-1 -34 -62 -34q-60 0 -60 35q0 118 88 204q94 94 239 94q186 0 289 -155q93 -139 93 -357q0 -216 -86 -351q-101 -161 -296 -161z" />
    <glyph glyph-name="uni0D4C" unicode="&#xd4c;" horiz-adv-x="2920" 
d="M1851 274h-450q-62 0 -62 35q0 36 62 36h450q61 0 61 -36q0 -35 -61 -35zM2192 -27q-169 0 -303 72q-28 16 -28 32q0 13 17 23q19 11 44 11q23 0 43 -10q105 -58 227 -58q193 0 329 116q177 153 177 431q0 113 -47.5 225t-182.5 112q-161 0 -161 -198v-221q0 -35 -61 -35
q-62 0 -62 35v215q0 204 -173 204q-193 0 -193 -239q0 -100 43 -167q4 -5 4 -13q0 -24 -40 -32q-13 -3 -25 -3q-42 0 -63 38q-40 71 -40 174q0 312 314 312q169 0 236 -123q61 123 221 123q352 0 352 -407q0 -302 -197 -470q-172 -147 -431 -147zM899 -24q-24 0 -42 11
t-18 25q0 15 18 25q219 121 219 428q0 466 -450 466q-214 0 -327.5 -149.5t-97.5 -352.5q51 171 252 171q133 0 221 -94q76 -83 76 -211q0 -158 -102 -245q-86 -74 -213 -74q-114 0 -199 72q-156 130 -156 406q0 546 546 546q236 0 400 -134t168 -401q5 -327 -241 -474
q-24 -15 -54 -15zM441 46q194 0 194 239q0 240 -194 239q-195 0 -195 -239t195 -239z" />
    <glyph glyph-name="xx" unicode="&#xd4d;" horiz-adv-x="22" 
d="M-139 1085q-281 0 -281 270q0 31 60 31t60 -31q0 -208 161 -208t161 208q0 31 60 31t60 -31q0 -270 -281 -270z" />
    <glyph glyph-name="dotreph" unicode="&#xd4e;" horiz-adv-x="37" 
d="M143 1120q-93 0 -93 93q0 92 93 92q92 0 92 -92q0 -93 -92 -93z" />
    <glyph glyph-name="mlpara" unicode="&#xd4f;" horiz-adv-x="2218" 
d="M1164 -486q-188 0 -402 57.5t-361 179.5q-321 268 -321 715q0 347 239 520q17 13 48 13q24 0 38 -7q24 -10 24 -28q0 -11 -13 -21q-212 -152 -212 -477q0 -383 241 -627q131 -133 334.5 -194t384.5 -61q204 0 411 81t316 262q124 203 124 462q0 171 -56 315
q-88 226 -309 226q-253 0 -253 -290v-629q0 -34 -61 -34q-62 0 -62 34v618q0 301 -337 301q-226 0 -332 -221q-57 -116 -52 -280q51 171 252 171q133 0 221 -94q76 -83 76 -211q0 -159 -102 -245q-86 -74 -213 -74q-112 0 -199 72q-156 130 -156 406q0 160 60 281
q130 265 443 265q265 0 402 -142q105 142 313 142q294 0 411 -254q77 -164 77 -357q0 -314 -169 -542q-132 -179 -361 -256t-444 -77zM793 47q193 0 193 241q0 236 -193 236q-195 0 -195 -239q0 -238 195 -238z" />
    <glyph glyph-name="m1cil" unicode="&#xd54;" horiz-adv-x="1173" 
d="M1011 0h-849q-62 0 -62 35v538q0 185 125 300q82 76 202 108q-110 55 -109 173q1 227 275 227q208 0 296 -162q3 -6 3 -10q0 -33 -62 -33q-47 0 -59 23q-63 113 -178 113q-152 0 -152 -158q0 -138 183 -154q209 -20 323 -126q126 -116 126 -301v-538q0 -35 -62 -35z
M950 70v503q0 166 -107 264q-87 80 -248 97q170 -67 170 -293q0 -337 -334 -571h519zM223 70q176 77 298.5 223.5t122.5 347.5q0 87 -40.5 169t-138.5 82q-73 1 -136 -55q-106 -97 -106 -264v-503z" />
    <glyph glyph-name="y1cil" unicode="&#xd55;" horiz-adv-x="1914" 
d="M665 -24q-290 0 -450 188q-135 157 -135 402q0 164 68 281q87 153 264 153q173 0 225 -162q82 162 270 162q145 0 248 -108q112 -118 112 -310q0 -164 -73 -306q-65 -125 -189 -211q77 -18 136 -18q218 0 334 210q72 131 72 300q0 148 -108 331q-34 59 -62 119.5
t-28 141.5q0 232 269 232q206 0 293 -165q3 -6 3 -11q0 -33 -61 -33q-46 0 -59 24q-59 115 -176 115q-151 2 -151 -159q0 -91 87 -235q116 -190 116 -360q0 -180 -78 -321q-142 -259 -451 -259q-123 0 -234 40q-113 -41 -242 -41zM907 110q112 74 171 190q67 131 67 281
q0 159 -68 255q-66 94 -170 94q-127 0 -176 -115.5t-49 -228.5q0 -150 55 -274q52 -117 170 -202zM665 47q66 0 147 19q-121 88 -179 206q-72 146 -72 314q0 118 -9 179q-26 165 -140 165q-88 0 -147 -105q-62 -106 -62 -258q0 -227 123 -372q125 -148 339 -148z" />
    <glyph glyph-name="zhcil" unicode="&#xd56;" horiz-adv-x="1163" 
d="M579 -25q-106 1 -194.5 57t-90.5 176q-1 67 32 136q-246 114 -246 372q0 148 86 262q17 21 56 21q62 0 62 -35q0 -6 -6 -14q-75 -99 -75 -234q0 -187 161 -298q101 132 190 390q68 197 68 321q0 35 -6 62q-28 119 -159 119q-115 0 -176 -114q-14 -25 -61 -25
q-60 0 -60 35q0 4 3 10q88 166 312 166q120 0 188 -67q73 -73 73 -196q0 -51 -20 -128q48 11 76 11q135 0 217 -92q74 -84 74 -219q0 -246 -251 -353q32 -67 32 -132q0 -118 -90.5 -174.5t-194.5 -56.5zM787 406q173 97 173 283q0 122 -57 188q-48 53 -104 53t-99 -50
q-52 -63 -52 -172q0 -102 39.5 -164.5t99.5 -137.5zM581 362q39 0 98 9q-30 41 -53.5 83.5t-49.5 85.5q-25 -41 -51.5 -82.5t-52.5 -83.5q76 -12 109 -12zM578 45q166 0 166 161q0 41 -23 99q-91 -13 -142 -13q-64 1 -142 16q-23 -60 -23 -105q0 -158 164 -158z" />
    <glyph glyph-name="au2" unicode="&#xd57;" horiz-adv-x="1263" 
d="M555 -24q-169 0 -303 72q-28 16 -28 32q0 13 17 23q19 11 44 11q23 0 43 -10q105 -58 227 -58q193 0 329 116q177 153 177 431q0 113 -47.5 225t-182.5 112q-161 0 -161 -198v-221q0 -35 -61 -35q-62 0 -62 35v215q0 204 -173 204q-193 0 -193 -239q0 -100 43 -167
q4 -5 4 -13q0 -24 -40 -32q-13 -3 -25 -3q-42 0 -63 38q-40 71 -40 174q0 312 314 312q169 0 236 -123q61 123 221 123q352 0 352 -407q0 -302 -197 -470q-172 -147 -431 -147z" />
    <glyph glyph-name="arakaani" unicode="&#xd58;" horiz-adv-x="2341" 
d="M1478 1388q499 0 701 -444q82 -178 82 -378q0 -229 -128.5 -409.5t-370.5 -180.5q-214 0 -316 142q-102 -142 -296 -142q-190 0 -292 142q-103 -142 -317 -142q-266 0 -389 212q-72 121 -72 293q-1 154 63.5 300t215.5 212q15 7 37 7q31 0 49 -14q12 -8 12 -20
q0 -19 -24 -29q-128 -55 -179.5 -191.5t-50.5 -264.5q0 -155 62 -265q96 -170 276 -170q253 0 253 285v634q0 35 62 35q61 0 61 -35v-634q0 -282 233 -282q236 0 236 282v634q0 35 62 35q61 0 61 -35v-634q0 -284 253 -284q203 0 289.5 174.5t86.5 344.5q0 192 -78 361
q-178 391 -582 391q-162 0 -276 -83q-19 -13 -47 -13q-22 0 -40 8q-23 12 -23 27q0 12 14 22q153 109 372 109z" />
    <glyph glyph-name="aramaa" unicode="&#xd59;" horiz-adv-x="1874" 
d="M877 -24q-332 0 -332 327q0 282 309 282q65 0 126.5 -18t122.5 -40q-27 135 -84 217q-128 186 -354 186q-252 0 -380 -197q-82 -126 -82 -297q0 -264 200 -402q14 -10 14 -22q0 -17 -22 -27q-19 -9 -38 -9q-32 0 -64 24q-213 161 -213 436q0 198 103 341q161 223 483 223
q308 0 467 -230q79 -112 97 -282q49 -8 104 -8q34 0 116 6q-127 76 -127 194q0 211 245 211q246 0 246 -213q0 -146 -159 -219q-112 -51 -278 -51q-62 0 -144 7q-5 -168 -88 -303.5t-268 -135.5zM1568 525q130 0 130 148t-130 148q-129 0 -129 -148t129 -148zM877 46
q136 0 184.5 145.5t48.5 249.5q-58 25 -125.5 48.5t-131.5 23.5q-184 -2 -184 -216q0 -91 55.5 -171t152.5 -80z" />
    <glyph glyph-name="muunnukaani" unicode="&#xd5a;" horiz-adv-x="2019" 
d="M857 -24q-62 0 -62 35v625q0 294 -253 294q-215 0 -303 -228q-36 -93 -36 -212q0 -124 53.5 -260.5t177.5 -190.5q24 -10 24 -29q0 -12 -12 -20q-18 -14 -47 -14q-23 0 -43 9q-145 65 -210.5 209t-65.5 295q0 145 51 255q118 256 411 256q198 0 322 -140q98 96 258 125
q82 15 217 15q118 0 240.5 -21t213.5 -105q126 -117 126 -300v-538q0 -36 -62 -36h-751q-67 0 -68 35q0 19 27 30q174 65 299 222.5t125 347.5q0 295 -269 295q-302 0 -302 -318v-601q0 -35 -61 -35zM1796 71v503q0 164 -107 262q-89 83 -249 97q171 -65 171 -297
q0 -178 -96.5 -322.5t-238.5 -242.5h520z" />
    <glyph glyph-name="orumaa" unicode="&#xd5b;" horiz-adv-x="1652" 
d="M1240 1012q27 0 50 -12q282 -144 282 -484q0 -223 -153 -369.5t-373 -146.5q-223 0 -374.5 151t-151.5 374q0 233 191 404h-488v-893q0 -36 -61 -36q-62 0 -62 36v929q0 35 62 35h686q63 0 63 -35q0 -14 -21 -26q-246 -123 -246 -416q0 -180 104.5 -317.5t297.5 -136.5
q191 0 296.5 132t105.5 313q0 314 -246 437q-21 11 -21 27q0 12 15 22q19 12 44 12z" />
    <glyph glyph-name="rantumaa" unicode="&#xd5c;" horiz-adv-x="2775" 
d="M2264 -24q-168 0 -252 94q-64 71 -81 181t-17 228q0 86 -1 178.5t-48 167.5q-64 104 -183 104t-184 -105q-49 -77 -49 -167.5v-177.5q1 -113 -6 -218t-97 -191q-98 -94 -252 -94q-157 0 -257 99q-84 83 -91.5 190t-7.5 214q0 77 -6 175.5t-45 171.5q-55 104 -178 104
q-112 0 -197 -105q-109 -134 -109 -341q0 -129 60.5 -259t184.5 -186q23 -11 23 -28q0 -12 -14 -22q-19 -13 -45 -13q-23 0 -45 10q-287 134 -287 498q0 254 153 406q112 110 276 110q184 0 267 -112q57 -75 71 -184t14 -225q0 -84 3 -174.5t52 -163.5q64 -95 178 -95
t178 95q50 74 52 163.5t2 174.5q0 108 5 216.5t83 194.5q101 110 268 110q166 0 268 -111q78 -85 82.5 -194t4.5 -216q0 -75 7.5 -170t48.5 -166q55 -97 171 -97q109 0 191 95q117 136 117 356q0 130 -61.5 258t-183.5 183q-23 10 -23 27q0 12 14 22q19 13 45 13
q23 0 45 -10q287 -134 287 -493q0 -278 -172 -429q-107 -92 -259 -92z" />
    <glyph glyph-name="muunnumaa" unicode="&#xd5d;" horiz-adv-x="3813" 
d="M1188 479q-1 107 4 216t84 195q100 110 271 110q184 0 268 -112q56 -75 70 -184t14 -225q0 -84 3 -174.5t52 -163.5q66 -95 178 -95q114 0 178 95q50 74 52 163.5t2 174.5q0 108 5 216.5t83 194.5q101 110 268 110q166 0 268 -111q78 -85 82.5 -194t4.5 -216
q0 -76 8 -173t51 -168q55 -92 168 -92q108 0 191 95q118 136 118 356q0 328 -245 441q-23 10 -23 27q0 12 14 22q17 13 45 13q23 0 45 -10q287 -134 287 -493q0 -278 -173 -428q-105 -93 -259 -93q-168 0 -253 95q-63 71 -80 180.5t-17 227.5q0 86 -1 178.5t-47 167.5
q-65 104 -184 104t-184 -105q-49 -77 -49 -167.5v-177.5q1 -113 -6 -218t-97 -191q-98 -94 -252 -94q-157 0 -257 99q-83 83 -91 190t-8 214q0 77 -5.5 175t-44.5 171q-56 105 -179 105q-128 0 -189 -107q-45 -79 -46.5 -167.5t-0.5 -176.5q1 -112 -6 -217.5t-97 -191.5
q-100 -94 -252 -94q-178 0 -297 144q-118 -138 -291 -138q-180 0 -283 125q-6 10 -6 15q0 21 36 31q12 3 26 3q40 0 56 -20q69 -84 170 -84q113 1 172.5 89t59.5 193v630q0 36 62 36q61 0 61 -36v-630q0 -106 59.5 -197t174.5 -91q113 0 177 95q51 74 53 163.5t2 174.5z" />
    <glyph glyph-name="naalumaa" unicode="&#xd5e;" horiz-adv-x="2495" 
d="M877 -24q-332 0 -332 327q0 282 309 282q65 0 126.5 -18t122.5 -40q-27 135 -84 217q-128 186 -354 186q-254 0 -380 -197q-82 -126 -82 -297q0 -264 200 -402q14 -10 14 -22q0 -17 -22 -27q-19 -9 -38 -9q-32 0 -64 24q-213 161 -213 436q0 199 103 341q161 223 483 223
q308 0 467 -230q78 -112 96 -274q39 -21 77 -21q88 0 143 79.5t55 160.5q0 157 -130 217q-22 10 -22 27q0 34 62 34h543q64 0 64 -34q0 -16 -22 -27q-130 -60 -130 -217q0 -235 209 -235q214 0 214 235q0 168 -136 221q-26 11 -26 29q0 11 11 19q20 15 50 15q20 0 35 -6
q189 -75 189 -278q0 -143 -103 -223.5t-234 -80.5t-231.5 80.5t-100.5 223.5q0 124 87 209h-293q87 -85 87 -209q0 -309 -321 -309q-41 0 -73 8q-5 -168 -88 -303t-268 -135zM877 46q135 0 184 145.5t49 249.5q-58 25 -125.5 48.5t-131.5 23.5q-184 -2 -184 -216
q0 -91 55.5 -171t152.5 -80z" />
    <glyph glyph-name="ml_ii_archaic" unicode="&#xd5f;" horiz-adv-x="2504" 
d="M1469 -24q-186 0 -280 145q-64 99 -64 231q0 159 89 280q108 148 338 178q-132 120 -293 120q-255 0 -381 -196q-82 -126 -82 -298q0 -265 200 -402q14 -10 14 -22q0 -17 -22 -27q-19 -9 -38 -9q-32 0 -64 24q-213 161 -213 436q0 198 103 341q161 223 483 223
q357 0 503 -300q58 -117 58 -276q0 -170 -71 -289q-94 -159 -280 -159zM1469 47q97 0 163 111q66 110 66 266q0 181 -89 317q-182 -2 -282 -136q-79 -107 -79 -253q0 -120 56 -206q65 -99 165 -99zM2184 238q-240 0 -240 250t240 250t240 -250t-240 -250zM320 238
q-240 0 -240 250t240 250t240 -250t-240 -250zM2184 304q137 0 137 184t-137 184q-136 0 -136 -184t136 -184zM320 304q137 0 137 184t-137 184q-136 0 -136 -184t136 -184z" />
    <glyph glyph-name="ml_rr" unicode="&#xd60;" horiz-adv-x="1477" 
d="M735 -409q-157 0 -372 75t-215 277q0 127 104 191.5t205 95.5q-116 34 -178 73q-151 94 -189 265q-10 46 -10 97q0 177 98 269q74 69 190 69q132 0 217 -86q76 -78 76 -182q0 -130 -89 -206q-76 -64 -186 -64q-123 0 -204 89q58 -179 257 -245q111 -37 296 -37
q77 0 154 6t150 31q197 69 256 245q-83 -89 -204 -89q-111 0 -186 64q-89 74 -89 206q0 104 76 182q85 86 217 86q116 0 190 -69q98 -91 98 -269q0 -51 -10 -97q-38 -171 -189 -265q-62 -39 -178 -73q101 -31 205 -95.5t104 -191.5q0 -199 -219 -275.5t-375 -76.5zM1108 540
q170 0 170 194q2 195 -170 195q-170 0 -170 -194q0 -195 170 -195zM369 540q170 0 170 194q0 195 -170 195q-169 0 -169 -192q0 -197 169 -197zM735 -339q125 0 297.5 61.5t172.5 220.5q0 156 -176.5 207t-293.5 51q-119 0 -291 -50t-172 -208q0 -160 169 -221t294 -61z
M625.593 110.4q76.1973 0 113.396 -41.3975q37.1982 41.3975 113.396 41.3975q112.795 0 155.993 -91.1953q18.5996 -37.7988 18.5996 -88.7969q0 -131.994 -102.596 -176.393q-7.7998 -3.59961 -19.7988 -3.59961q-14.4004 0 -22.7998 6.59961
q-5.99902 4.19922 -5.99902 8.99902q0 7.7998 11.3994 13.2002q80.9961 33.5977 80.9961 151.193q0 41.3984 -12.5996 72.5967q-31.7979 75.5977 -103.195 75.5977q-83.9971 0 -83.9971 -93.5967v-218.391q0 -16.1992 -29.3984 -16.1992t-29.3984 16.1992v218.391
q0 93.5967 -83.9971 93.5967q-71.3975 0 -103.195 -75.5977q-12.5996 -31.1982 -12.5996 -72.5967q0 -117.596 80.9961 -151.193q11.3994 -5.40039 11.3994 -13.2002q0 -4.7998 -5.99902 -8.99902q-8.39941 -6.59961 -22.7998 -6.59961q-11.3994 0 -19.7988 3.59961
q-102.596 44.3984 -102.596 176.393q0 50.998 18.5996 88.7969q43.1982 91.1953 155.993 91.1953z" />
    <glyph glyph-name="ml_ll" unicode="&#xd61;" horiz-adv-x="2327" 
d="M980 836q149 164 372 164q286 0 443 -195q228 -39 340 -215t112 -394q0 -259 -142 -433.5t-421 -174.5q-203 0 -340 111q-12 9 -12 20q0 17 26 28q15 6 36 6q33 0 50 -14q100 -81 240 -81q231 0 336 168t105 370q0 157 -60 301.5t-210 216.5q66 -126 66 -287
q0 -168 -72 -292q-94 -159 -279 -159t-279 145q-64 99 -64 231q0 160 89 279q109 150 337 178q-134 122 -301 122q-307 0 -307 -318v-602q0 -35 -62 -35q-61 0 -61 36v601q0 317 -338 317q-224 0 -331 -221q-57 -119 -52 -280q51 171 252 171q135 0 221 -94q76 -82 76 -211
q0 -159 -102 -245q-86 -74 -213 -74q-112 0 -199 72q-156 130 -156 406q0 160 60 281q130 265 444 265q266 0 396 -164zM1570 47q97 0 163 111q65 107 65 271q0 177 -88 311q-181 0 -282 -136q-78 -106 -78 -252q0 -122 55 -207q63 -98 165 -98zM441 47q193 0 193 241
q0 236 -193 236q-195 0 -195 -239q0 -238 195 -238z" />
    <glyph glyph-name="l1" unicode="&#xd62;" horiz-adv-x="62" 
d="M-363 -636q-119 0 -179 87q-39 57 -39 135q0 92 55 162q68 89 195 105q-67 58 -162 58q-175 0 -175 -177v-343q0 -27 -49 -27t-49 27v343q0 177 -192 177q-127 0 -189 -123q-29 -56 -31 -123q50 70 139 70q90 0 145 -57q47 -47 47 -122q0 -97 -63 -146q-55 -45 -138 -45
q-76 0 -131 44q-96 76 -96 239q0 88 36 160q81 156 281 156q168 0 239 -86q83 86 226 86q185 0 285 -124q70 -87 70 -213q0 -97 -44 -167q-59 -96 -181 -96zM-363 -583q50 0 88 59q39 64 39 151q0 103 -50 175q-93 0 -150 -74q-47 -60 -47 -142q0 -68 33 -116q36 -52 87 -53
zM-1044 -582q104 0 104 130t-105 130q-106 0 -106 -130t107 -130z" />
    <glyph glyph-name="l2" unicode="&#xd63;" horiz-adv-x="150" 
d="M-859.551 -130.384q114.251 110.958 285.244 110.958q219.3 0 339.686 -131.932q174.826 -26.3867 260.706 -145.464t85.8799 -266.57q0 -175.232 -108.883 -293.295q-108.884 -118.062 -322.816 -118.062q-155.657 0 -260.707 75.0996
q-9.20117 6.08984 -9.20117 13.5322q0 11.502 19.9365 18.9434q11.501 4.05957 27.6035 4.05957q25.3047 0 38.3398 -9.47168q76.6787 -54.8027 184.028 -54.8027q177.127 0 257.64 113.665q80.5117 113.664 80.5117 250.332q0 106.223 -46.0068 203.987
q-46.0068 97.7656 -161.024 146.479q50.6074 -85.248 50.6074 -194.177q0 -113.665 -55.208 -197.56q-72.0781 -107.576 -213.934 -107.576q-141.854 0 -213.933 98.1035q-49.0742 66.9814 -49.0742 156.289q0 108.252 68.2441 188.765q83.5791 101.486 258.406 120.43
q-102.749 82.542 -230.802 82.542q-235.403 0 -235.403 -215.15v-407.298q0 -23.6807 -47.541 -23.6807q-46.7734 0 -46.7734 24.3574v406.621q0 214.475 -259.173 214.475q-171.76 0 -253.807 -149.523q-43.7061 -80.5127 -39.8721 -189.44
q39.1055 115.694 193.229 115.694q103.516 0 169.459 -63.5986q58.2764 -55.4795 58.2764 -142.757q0 -107.576 -78.2119 -165.761q-65.9443 -50.0674 -163.325 -50.0674q-85.8799 0 -152.591 48.7139q-119.618 87.9551 -119.618 274.689q0 108.252 46.0068 190.117
q99.6826 179.292 340.453 179.292q203.964 0 303.646 -110.958zM-407.148 -664.201q74.3789 0 124.986 75.0996q49.8408 72.3936 49.8408 183.353q0 119.753 -67.4766 210.414q-138.788 0 -216.233 -92.0137q-59.8096 -71.7168 -59.8096 -170.497
q0 -82.542 42.1729 -140.051q48.3076 -66.3047 126.52 -66.3047zM-1272.85 -664.201q147.989 0 147.989 163.055q0 159.672 -147.989 159.672q-149.523 0 -149.523 -161.701q0 -161.025 149.523 -161.025z" />
    <glyph glyph-name="ml_0" unicode="&#xd66;" horiz-adv-x="1053" 
d="M527 -24q-211 0 -319 156.5t-108 355.5t108 355.5t319 156.5q212 0 319 -156.5t107 -355.5t-107 -355.5t-319 -156.5zM527 46q162 0 232.5 151.5t70.5 290.5t-70.5 290.5t-232.5 151.5t-233 -151.5t-71 -290.5t71 -290.5t233 -151.5z" />
    <glyph glyph-name="ml_1" unicode="&#xd67;" horiz-adv-x="1429" 
d="M629 -412h-275q-274 0 -274 244q0 238 277 238h135v540q0 183 120 286.5t292 103.5q167 0 296 -108t129 -289v-568q0 -35 -61 -35h-905q-159 0 -159 -144q0 -150 150 -150h275q62 0 62 -59t-62 -59zM1206 70v533q0 329 -304 327q-288 0 -288 -320v-540h592z" />
    <glyph glyph-name="ml_2" unicode="&#xd68;" horiz-adv-x="1503" 
d="M411 -12q-26 0 -49 12q-282 146 -282 484q0 223 153 369.5t373 146.5q223 0 374.5 -151t151.5 -374q0 -233 -191 -405h420q62 0 62 -35t-62 -35h-557q-63 0 -63 35q0 14 21 26q246 123 246 416q0 180 -104.5 317.5t-297.5 136.5q-191 0 -296.5 -132t-105.5 -313
q0 -314 246 -437q21 -11 21 -27q0 -12 -15 -22q-17 -12 -45 -12z" />
    <glyph glyph-name="ml_3" unicode="&#xd69;" horiz-adv-x="1972" 
d="M856 -24q-61 0 -61 35v636q0 283 -253 283q-216 0 -303 -228q-36 -93 -36 -213q0 -125 53.5 -260.5t177.5 -189.5q24 -10 24 -29q0 -12 -12 -20q-18 -14 -47 -14q-24 0 -44 9q-145 65 -210 209t-65 294q0 146 50 256q118 256 412 256q197 0 314 -133q117 133 314 133
q206 0 321 -148t115 -344q0 -267 -178 -437h422q62 0 62 -35q0 -36 -62 -36h-557q-65 0 -65 36q0 16 24 27q125 53 178 185t53 257q0 140 -77.5 282.5t-235.5 142.5q-252 0 -252 -283v-636q0 -35 -62 -35z" />
    <glyph glyph-name="ml_4" unicode="&#xd6a;" horiz-adv-x="1302" 
d="M357 -24q-34 0 -65 25q-212 166 -212 462q0 237 155 379.5t377 160.5v343q0 35 61 35q62 0 62 -35v-345q487 -57 487 -561q0 -164 -87 -313.5t-273 -149.5q-159 0 -204.5 100t-45.5 236v619q-409 -59 -409 -469q0 -286 200 -430q13 -10 13 -21q0 -18 -23 -28
q-19 -8 -36 -8zM862 46q137 0 187 144t50 250q0 413 -364 490v-617q0 -65 19 -166t108 -101z" />
    <glyph glyph-name="ml_5" unicode="&#xd6b;" horiz-adv-x="1873" 
d="M828 -402q-346 0 -547 234.5t-201 571.5q0 384 241 628.5t626 244.5q365 0 605.5 -248t240.5 -613q0 -249 -118 -459q-19 -35 -61 -35q-64 0 -64 35q0 5 3 11q115 200 115 448q0 320 -194 555.5t-527 235.5q-345 0 -544.5 -236t-199.5 -567q0 -280 158 -508t461 -228
q200 0 336 146t136 342q0 244 -201 286q-56 12 -143 12q-62 0 -62 35t62 35q79 0 136 14q155 40 155 172q0 106 -83 163q-77 54 -193 54q-199 0 -294.5 -151.5t-95.5 -329.5q0 -261 148 -419q7 -7 7 -16q0 -22 -33 -31q-17 -5 -30 -5q-36 0 -64 32q-151 173 -151 439
q0 238 133.5 394t379.5 156q159 0 267 -65q132 -78 132 -221q0 -160 -170 -218q222 -90 222 -336q0 -247 -173.5 -402.5t-414.5 -155.5z" />
    <glyph glyph-name="ml_6" unicode="&#xd6c;" horiz-adv-x="2341" 
d="M1478 -412q-219 0 -372 109q-14 10 -14 22q0 16 23 27q18 8 40 8q28 0 47 -13q114 -83 276 -83q404 0 582 391q78 170 78 361q0 170 -86.5 344.5t-289.5 174.5q-253 0 -253 -284v-634q0 -35 -61 -35q-62 0 -62 35v634q0 282 -236 282q-233 0 -233 -282v-634
q0 -35 -61 -35q-62 0 -62 35v634q0 285 -253 285q-180 0 -276 -170q-62 -110 -62 -265q-1 -127 50.5 -263.5t179.5 -192.5q24 -10 24 -29q0 -12 -12 -20q-20 -14 -49 -14q-22 0 -37 7q-151 66 -215.5 212t-63.5 300q0 172 72 293q123 212 389 212q214 0 317 -142
q102 142 292 142q194 0 296 -142q102 142 316 142q242 0 370.5 -180t128.5 -410q0 -200 -82 -378q-202 -444 -701 -444z" />
    <glyph glyph-name="ml_7" unicode="&#xd6d;" horiz-adv-x="1378" 
d="M608 -412q-200 0 -372 107q-16 10 -16 24q0 16 19 25q20 10 42 10q27 0 45 -12q135 -84 282 -84q138 0 266 80q121 76 202 209q99 164 99 370q0 285 -162 460q-141 154 -362 154t-344 -144.5t-106 -357.5q51 171 252 171q133 0 221 -94q76 -83 76 -211q0 -159 -102 -245
q-86 -74 -213 -74q-112 0 -199 72q-156 130 -156 406q0 258 160 402t411 144q287 0 461 -181q186 -195 186 -503q0 -217 -106 -392q-85 -143 -226 -232q-164 -104 -358 -104zM441 47q194 0 194 238q0 239 -194 239q-195 0 -195 -239q0 -238 195 -238z" />
    <glyph glyph-name="ml_8" unicode="&#xd6e;" horiz-adv-x="1652" 
d="M1063 -412q-198 0 -367 106q-16 10 -16 23q0 15 20 26q20 10 43 10t44 -12q130 -83 276 -83q218 0 316 163q50 81 50 179h-625q-63 0 -63 35q0 14 21 26q246 123 246 416q0 180 -104.5 317.5t-297.5 136.5q-190 0 -296 -132t-106 -313q0 -314 246 -437q21 -11 21 -27
q0 -12 -15 -22q-19 -12 -44 -12q-27 0 -50 12q-282 144 -282 484q0 223 153 369.5t373 146.5q223 0 374.5 -151t151.5 -374q0 -233 -191 -404h488v893q0 36 61 36q62 0 62 -36v-952q0 -121 -56 -213q-127 -211 -433 -211z" />
    <glyph glyph-name="ml_9" unicode="&#xd6f;" horiz-adv-x="1812" 
d="M1732 438q0 -154 -94.5 -308t-268.5 -154q-175 0 -205 96t-30 240v616q-217 -59 -217 -291v-626q0 -35 -61 -35q-62 0 -62 35v626q0 293 -252 293q-214 0 -303 -232q-36 -93 -36 -210q0 -125 53 -260.5t178 -188.5q24 -10 24 -28q0 -12 -13 -21q-18 -14 -46 -14
q-24 0 -44 9q-145 65 -210 208.5t-65 293.5q0 144 50 252q121 261 412 261q200 0 318 -143q106 121 274 141v348q0 35 61 35t61 -35v-346q476 -57 476 -562zM1369 47q129 0 185.5 145t55.5 248q0 413 -354 489v-672q0 -70 17.5 -140t95.5 -70z" />
    <glyph glyph-name="ml_10" unicode="&#xd70;" horiz-adv-x="1837" 
d="M370 -412q-200 0 -286 124q-4 5 -4 12q0 35 62 35q41 0 57 -22q54 -80 171 -80q164 0 214 173q20 64 20 150q-247 31 -349 252q-50 110 -50 256q0 150 65 294t210 209q20 9 44 9q28 0 46 -14q13 -10 13 -21q0 -16 -25 -28q-124 -54 -177 -189t-53 -260q0 -121 36 -214
q86 -227 303 -227q252 0 252 282v636q0 35 62 35q61 0 61 -35v-636q0 -282 253 -282q215 0 303 227q36 93 36 214q0 125 -53 260.5t-178 188.5q-24 10 -24 29q0 12 12 20q20 14 47 14q24 0 43 -9q146 -65 211 -208.5t65 -294.5q0 -147 -51 -256q-116 -256 -411 -256
q-197 0 -314 134q-104 -118 -254 -131q0 -98 -30 -180q-82 -211 -327 -211z" />
    <glyph glyph-name="ml_100" unicode="&#xd71;" horiz-adv-x="1749" 
d="M886 -412q-216 0 -372 109q-14 10 -14 22q0 17 23 27q18 8 39 8q29 0 48 -13q116 -83 276 -83q402 0 582 392q78 171 78 370t-87 340q-103 170 -289 170q-253 0 -253 -285v-633q0 -36 -61 -36q-62 0 -62 36v633q0 285 -253 285q-180 0 -276 -170q-62 -110 -62 -265
q-1 -127 50.5 -263.5t179.5 -192.5q24 -10 24 -29q0 -12 -12 -20q-18 -14 -49 -14q-22 0 -37 7q-151 65 -215.5 212t-63.5 301q0 168 72 292q125 212 389 212q212 0 315 -139q102 139 314 139q264 0 401 -214q98 -151 98 -366q0 -209 -82 -388q-202 -444 -701 -444z" />
    <glyph glyph-name="ml_1000" unicode="&#xd72;" horiz-adv-x="2455" 
d="M1438 -24q-332 0 -332 327q0 281 313 281q65 0 124.5 -17.5t120.5 -39.5q-27 135 -84 217q-130 186 -354 186q-308 0 -308 -319v-599q0 -35 -62 -35q-61 0 -61 35v623q0 293 -253 293q-217 0 -303 -227q-36 -93 -36 -212q0 -125 53.5 -260.5t177.5 -189.5q24 -10 24 -28
q0 -12 -12 -21q-19 -13 -46 -13q-25 0 -45 9q-145 65 -210 208.5t-65 293.5q0 147 50 255q117 255 412 255q198 0 321 -140q145 142 363 142q308 0 468 -231q79 -114 97 -281q49 -8 104 -8q34 0 116 6q-127 53 -127 194q0 211 245 211q246 0 246 -213q0 -146 -159 -219
q-112 -51 -278 -51q-62 0 -144 7q-5 -168 -88 -303.5t-268 -135.5zM2129 525q130 0 130 148t-130 148q-129 0 -129 -148t129 -148zM1438 46q136 0 184.5 145.5t48.5 249.5q-58 25 -125.5 48.5t-131.5 23.5q-184 -2 -184 -216q0 -91 55.5 -171t152.5 -80z" />
    <glyph glyph-name="kaal" unicode="&#xd73;" horiz-adv-x="1366" 
d="M526 -24q-202 0 -321 146q-105 131 -105 350q0 202 111 346q121 158 319 158h715q61 0 61 -35t-61 -35h-715q-118 0 -206 -116q-101 -132 -101 -318q0 -205 94 -321q86 -106 209 -106q113 0 194 91q101 115 101 323q0 144 -57 258q-3 6 -3 11q0 34 63 34q46 0 58 -25
q62 -125 62 -278q0 -225 -115 -355q-113 -128 -303 -128z" />
    <glyph glyph-name="ara" unicode="&#xd74;" horiz-adv-x="1581" 
d="M1153 -24q-172 0 -246 153q-41 86 -41 212q0 151 66 288q32 65 72.5 127.5t80.5 122.5q-161 62 -339 60q-102 0 -216 -27t-192 -101q-138 -131 -138 -382q52 171 253 171q134 0 220 -94q77 -83 77 -211q0 -160 -102 -245q-87 -74 -213 -74q-114 0 -199 72
q-156 130 -156 406q0 272 208 427q96 71 219.5 98.5t240.5 27.5q189 0 379 -60q22 44 46.5 99.5t24.5 104.5q0 160 -147 160q-117 0 -181 -117q-12 -24 -59 -24q-61 0 -61 34q0 5 3 11q90 166 302 166q265 0 265 -229q0 -95 -86 -246q139 -87 206 -216q61 -115 61 -269
q0 -155 -64 -270q-96 -175 -284 -175zM1153 46q112 0 183 161q42 96 42 214q0 114 -34 200q-42 105 -159 210q-96 -140 -144 -245q-53 -120 -53 -245q0 -99 20 -160q43 -135 145 -135zM441 46q193 0 193 239q0 240 -193 239q-195 0 -195 -239t195 -239z" />
    <glyph glyph-name="mukkaal" unicode="&#xd75;" horiz-adv-x="1960" 
d="M984 841q147 159 358 160q78 1 179 -27q56 116 56 181q0 156 -150 156q-115 0 -177 -116q-14 -24 -59 -24q-61 0 -61 33q0 5 3 11q88 166 296 166q270 0 270 -229q0 -86 -74 -224q140 -87 208 -250q47 -115 47 -248q0 -169 -74 -293q-96 -160 -274 -160q-181 0 -252 167
q-36 82 -36 192q0 156 69 297q35 71 81 138.5t88 134.5q-77 25 -140 25q-297 0 -297 -306v-614q0 -35 -61 -35q-62 0 -62 35l1 403l-1 201q-2 314 -337 314q-227 0 -332 -220q-57 -119 -52 -280q51 171 252 171q133 0 221 -94q76 -83 76 -211q0 -158 -102 -245
q-87 -74 -213 -74q-114 0 -199 72q-156 130 -156 406q0 160 60 281q129 265 445 265q245 0 399 -159zM1532 47q113 0 176 152q49 113 49 231t-35 211q-44 121 -144 211q-42 -62 -85 -129.5t-74 -136.5q-53 -120 -53 -256q0 -84 19 -146q44 -137 147 -137zM441 46
q193 -1 193 242q0 236 -193 236q-195 0 -195 -239t195 -239z" />
    <glyph glyph-name="maakaani" unicode="&#xd76;" horiz-adv-x="2355" 
d="M281 -18q-23 0 -45 10q-156 74 -156 262q0 141 102 217t230 76t229 -76.5t101 -217.5q0 -100 -62 -188h622v503q0 184 125 299q138 127 361 127q224 0 361 -126q126 -116 126 -300v-539q0 -35 -62 -35h-1646q-62 0 -62 36q0 14 17 25q97 58 97 198q0 224 -207 224
q-209 0 -209 -224q0 -155 114 -208q23 -11 23 -28q0 -13 -13 -22q-17 -13 -46 -13zM2152 64v504q0 164 -107 263q-86 79 -248 96q169 -65 170 -292q1 -336 -334 -571h519zM1425 64q177 77 299 224t122 348q0 86 -40.5 167.5t-138.5 82.5q-75 0 -136 -56q-106 -97 -106 -262
v-504z" />
    <glyph glyph-name="arakkaal" unicode="&#xd77;" horiz-adv-x="2996" 
d="M279 -18q-21 0 -43 10q-156 76 -156 262q0 141 102 217t229 76q128 0 229.5 -76t101.5 -218q0 -99 -62 -188h401q-176 163 -176 430q0 140 51 249q115 250 411 250q195 0 316 -136q104 136 334 136q278 0 424 -197q73 -99 88 -236q38 -6 77 -6q120 0 203 55q20 12 45 12
t41 -9q21 -10 21 -26q0 -12 -15 -22q-121 -79 -294 -79q-42 0 -75 4q-2 -55 -12 -98q-60 -268 -314 -268q-305 0 -305 281q0 238 284 238q82 0 216 -46q-19 101 -73 173q-115 155 -310 155q-275 0 -275 -263v-504q0 -34 -62 -34q-61 0 -61 34v471q0 294 -253 294
q-218 0 -303 -221q-36 -93 -36 -207q0 -125 53.5 -255t177.5 -183q24 -10 24 -26q0 -37 -59 -37h-658q-61 0 -61 36q0 14 17 25q97 57 97 198q0 224 -207 224q-209 0 -209 -223q0 -156 114 -209q23 -11 23 -28q0 -12 -14 -21q-22 -14 -47 -14zM2206 192q83 0 129.5 70
t62.5 139q11 48 11 114q-50 15 -109.5 36.5t-115.5 21.5q-160 0 -160 -171q0 -210 182 -210z" />
    <glyph glyph-name="muntaani" unicode="&#xd78;" horiz-adv-x="4067" 
d="M2903 825q-66 104 -183 104q-119 0 -185 -105q-48 -77 -48 -167.5v-177.5q1 -113 -6 -218t-97 -191q-98 -94 -252 -94q-157 0 -257 99q-83 83 -91 190t-8 214q0 77 -5.5 175t-44.5 171q-56 105 -179 105q-128 0 -189 -107q-45 -79 -46.5 -167.5t-0.5 -176.5
q1 -112 -6 -217.5t-97 -191.5q-100 -94 -252 -94q-178 0 -297 144q-118 -138 -291 -138q-181 0 -282 125q-6 8 -6 15q0 21 36 31q12 3 26 3q39 0 56 -20q68 -84 169 -84q113 1 172.5 89t59.5 193v630q0 36 62 36q61 0 61 -36v-630q0 -106 59.5 -197t174.5 -91q113 0 177 95
q51 74 53.5 163.5t1.5 174.5q0 107 4.5 216t83.5 195q100 110 271 110q184 0 268 -112q56 -75 70 -184t14 -225q0 -84 3 -174.5t52 -163.5q66 -95 178 -95q114 0 178 95q50 74 52 163.5t2 174.5q0 108 5 216.5t83 194.5q101 110 268 110q201 0 298 -150q64 92 184 121
t221 29q110 0 231.5 -24t206.5 -102q126 -117 126 -300v-538q0 -35 -62 -35h-751q-67 0 -68 35q0 20 28 29q173 65 298 222.5t125 347.5q0 284 -236 285q-155 2 -208 -132q-39 -100 -39 -251v-95q0 -35 -61 -35t-61 35v153q0 153 -49 230zM3864 71v503q0 165 -107 263
q-89 82 -248 96q170 -65 170 -298q1 -182 -99.5 -326t-235.5 -238h520z" />
    <glyph glyph-name="datemark" unicode="&#xd79;" horiz-adv-x="2096" 
d="M1795 425q0 -164 -85.5 -301.5t-270.5 -137.5q-331 0 -331 303q0 176 115.5 239.5t266.5 63.5h160q-28 89 -70 147q-129 182 -351 182q-311 0 -311 -312v-588q0 -34 -62 -34q-61 0 -61 34v611q0 288 -253 288q-215 0 -303 -223q-36 -91 -36 -208q0 -124 53.5 -256
t177.5 -185q24 -10 24 -28q0 -12 -12 -20q-18 -14 -47 -14q-23 0 -43 9q-144 64 -210 204t-66 289q0 143 50 250q118 250 412 250q198 0 321 -137q145 139 366 139q306 0 465 -226q51 -71 80 -172h200q62 0 62 -35q0 -34 -62 -34h-186q7 -58 7 -98zM1439 55q128 0 180.5 135
t52.5 236q0 39 -7 97h-175q-259 0 -259 -234t208 -234z" />
    <glyph glyph-name="nhcil" unicode="&#xd7a;" horiz-adv-x="2546" 
d="M1577 847q134 153 351 154q78 1 179 -27q56 116 56 181q0 156 -150 156q-113 0 -177 -116q-13 -24 -59 -24q-61 0 -61 33q0 5 3 11q88 166 296 166q270 0 270 -229q0 -86 -74 -224q142 -89 208 -250q47 -111 47 -248q0 -169 -74 -293q-96 -160 -274 -160q-179 0 -252 167
q-36 82 -36 192q0 156 69 297q35 71 81 138.5t88 134.5q-77 25 -140 25q-297 0 -297 -317v-603q0 -35 -61 -35q-62 0 -62 35v627q0 107 -55.5 198t-177.5 91q-230 0 -230 -287v-629q0 -35 -62 -35q-61 0 -61 35l1 402l-1 201q-2 315 -337 315q-228 0 -332 -220
q-57 -119 -52 -280q51 171 252 171q134 0 220 -94q77 -83 77 -211q0 -160 -102 -245q-87 -74 -213 -74q-114 0 -199 72q-156 130 -156 406q0 160 60 281q131 264 445 264q250 0 391 -150q99 151 299 151q199 0 302 -153zM2118 47q113 0 176 152q49 113 49 231t-35 211
q-44 121 -144 211q-42 -62 -85 -129.5t-74 -136.5q-53 -120 -53 -256q0 -84 19 -146q44 -137 147 -137zM441 46q193 0 193 242q0 237 -193 236q-195 -1 -195 -239q0 -239 195 -239z" />
    <glyph glyph-name="n1cil" unicode="&#xd7b;" horiz-adv-x="1832" 
d="M398 -24q-23 0 -43 9q-145 65 -210 208t-65 293q0 145 50 253q121 261 412 261q206 0 323 -150q133 149 349 151q78 1 179 -27q56 116 56 181q0 156 -150 156q-115 0 -177 -116q-14 -24 -59 -24q-61 0 -61 33q0 5 3 11q88 166 296 166q270 0 270 -229q0 -86 -74 -224
q140 -87 208 -250q47 -115 47 -248q0 -169 -74 -293q-96 -160 -274 -160q-181 0 -252 167q-36 82 -36 192q0 156 69 297q35 71 81 138.5t88 134.5q-77 25 -140 25q-297 0 -297 -324v-595q0 -35 -61 -35q-62 0 -62 35v631q0 287 -251 287q-214 0 -304 -232q-36 -93 -36 -211
q0 -125 53 -259.5t178 -188.5q24 -10 24 -28q0 -11 -13 -21q-18 -14 -47 -14zM1404 47q113 0 176 152q49 113 49 231t-35 211q-44 121 -144 211q-42 -62 -85 -129.5t-74 -136.5q-53 -120 -53 -256q0 -84 19 -146q44 -137 147 -137z" />
    <glyph glyph-name="r3cil" unicode="&#xd7c;" horiz-adv-x="1316" 
d="M888 -24q-172 0 -246 153q-42 85 -42 205q0 155 67 295q34 69 78 136t87 131q-91 35 -177 35q-210 0 -331 -149t-121 -347q0 -265 190 -403q13 -10 13 -21q0 -16 -23 -28q-14 -7 -38 -7q-31 0 -48 13q-217 157 -217 446q0 251 166.5 408.5t413.5 157.5q102 0 213 -36
q60 122 60 186q0 160 -147 160q-117 0 -181 -117q-12 -24 -59 -24q-61 0 -61 34q0 5 3 11q90 166 298 166q269 0 269 -226q0 -99 -80 -238q142 -91 210 -247q51 -114 51 -240q0 -164 -64 -279q-96 -175 -284 -175zM888 46q113 0 183 161q43 96 43 223q0 93 -36 192
q-47 126 -152 220q-40 -60 -80.5 -124.5t-69.5 -131.5q-53 -120 -53 -246q0 -98 20 -159q43 -135 145 -135z" />
    <glyph glyph-name="l3cil" unicode="&#xd7d;" horiz-adv-x="2023" 
d="M348 -24q-35 0 -67 21q-201 124 -201 422q0 171 68 303q145 281 458 279q114 0 227 -43q147 56 355 56q225 0 389 -59q63 122 63 200q0 156 -149 156q-117 0 -177 -115q-13 -24 -60 -24q-60 0 -60 34q0 5 3 11q87 164 298 164q267 0 267 -226q0 -102 -85 -252
q153 -102 223 -273q43 -102 43 -218q0 -180 -95 -306q-98 -130 -253 -130q-144 0 -222 111q-67 96 -67 253q0 155 76 302q50 97 154 243q-135 60 -343 60q-169 0 -264 -35q251 -179 251 -511q0 -143 -58 -251q-92 -171 -290 -171t-289 171q-58 106 -58 251q0 333 254 512
q-59 20 -133 20q-224 0 -340 -228q-63 -122 -63 -284q0 -107 41 -218t142 -164q19 -11 19 -26q0 -14 -16 -24q-18 -11 -41 -11zM832 47q109 0 172 120q53 100 53 232q0 309 -224 467q-225 -160 -225 -467q0 -130 52 -231q62 -121 172 -121zM1597 47q89 0 155 112
q68 112 68 253q0 107 -40 203q-51 121 -152 212q-95 -136 -137 -223q-63 -129 -63 -264q0 -101 30 -180q45 -113 139 -113z" />
    <glyph glyph-name="lhcil" unicode="&#xd7e;" horiz-adv-x="1826" 
d="M1404 -24q-170 0 -247 142q-47 87 -47 212q0 158 73 310q34 69 78 137t85 133q-80 22 -149 22q-123 0 -218 -72q-93 -72 -109.5 -183.5t-16.5 -218.5q0 -199 -46.5 -340t-292.5 -141q-211 0 -322.5 156t-111.5 349q0 394 322 514q15 6 34 6q32 0 51 -16q10 -9 10 -18
q0 -20 -28 -30q-136 -50 -201 -184.5t-65 -271.5q0 -132 77 -283.5t234 -151.5q176 0 196 142t20 269q0 144 30 270.5t169 205.5q120 68 269 68q87 0 187 -25q58 114 58 177q0 156 -150 156q-115 0 -177 -115q-12 -24 -59 -24q-61 0 -61 34q0 4 3 10q88 166 300 166
q140 0 217 -90q49 -56 49 -137q0 -85 -75 -219q138 -84 206 -247q50 -121 50 -258q0 -189 -90 -319q-92 -135 -252 -135zM1404 45q86 0 149 109q70 117 70 276q0 122 -40 226q-45 119 -138 203q-43 -66 -87.5 -136t-74.5 -144q-51 -126 -51 -249q0 -83 23 -155
q42 -130 149 -130z" />
    <glyph glyph-name="k1cil" unicode="&#xd7f;" horiz-adv-x="1847" 
d="M1466 -24q-153 0 -238 138q-118 -138 -304 -138q-187 0 -305 138q-64 -138 -238 -138q-135 -2 -225 87q-76 76 -76 184q0 114 77 193q99 100 272 100h102q9 180 66 285q96 175 327 175q230 0 326 -174q7 -13 40 -94q26 42 52.5 84t51.5 85q30 52 63.5 122t33.5 132
q0 158 -149 156q-117 0 -178 -115q-12 -24 -59 -24q-61 0 -61 33q0 5 3 11q89 165 293 165q273 0 273 -226q0 -91 -48 -175t-105 -167q-44 -65 -82.5 -129.5t-57.5 -142.5h98q172 0 272 -101q77 -77 77 -193q0 -108 -76 -184q-90 -89 -225 -87zM1193 540q-10 173 -60 265
q-69 125 -209 125q-141 0 -210 -126q-53 -98 -60 -264h539zM380 46q65 0 113 53q56 62 56 163q0 24 -5 52q-11 72 -13 156h-106q-97 0 -161 -64q-61 -61 -61 -157q0 -92 60 -151q52 -52 117 -52zM1467 46q65 0 117 52q60 59 60 151q0 94 -61 157q-64 64 -165 64h-102
q-2 -95 -14 -158q-4 -21 -4 -49q0 -102 56 -164q48 -53 113 -53zM924 46q139 0 207 122q38 67 49.5 147t13.5 155h-541q2 -75 14.5 -155.5t49.5 -147.5q70 -121 207 -121z" />
    <glyph glyph-name="ZWNJ" unicode="&#x200c;" horiz-adv-x="321" 
d="M66 992h159v-989h-159v989z" />
    <glyph glyph-name="ZWJ" unicode="&#x200d;" horiz-adv-x="321" 
d="M148 1003l-134 -208h-104l186 272l-172 248h109l78 -121q4 -6 34 -59l125 180h107l-178 -244l188 -276h-104zM70 879h154v-875h-154v875z" />
    <glyph glyph-name="endash" unicode="&#x2013;" horiz-adv-x="992" 
d="M892 524l-1 -120h-791l1 120h791z" />
    <glyph glyph-name="emdash" unicode="&#x2014;" horiz-adv-x="1431" 
d="M1331 572v-120h-1231v120h1231z" />
    <glyph glyph-name="quoteleft" unicode="&#x2018;" horiz-adv-x="261" 
d="M176 1487q24 8 39 8q24 0 24 -12q0 -5 -9 -9q-38 -16 -60 -56q-15 -28 -19 -60q18 3 19 3q91 0 91 -93t-91 -93q-43 0 -73 31q-31 34 -31 88q0 56 30 113q31 58 80 80z" />
    <glyph glyph-name="quoteright" unicode="&#x2019;" horiz-adv-x="261" 
d="M85 1258q-24 -8 -39 -8q-24 0 -24 12q0 5 9 9q38 16 60 56q15 28 19 60q-18 -3 -19 -3q-91 0 -91 93t91 93q43 0 73 -31q31 -34 31 -88q0 -56 -30 -113q-31 -58 -80 -80z" />
    <glyph glyph-name="quotesinglbase" unicode="&#x201a;" horiz-adv-x="341" 
d="M165 -151q-24 -8 -39 -8q-24 0 -24 12q0 5 9 9q38 16 60 56q15 28 19 60q-18 -3 -19 -3q-91 0 -91 93t91 93q43 0 73 -31q31 -34 31 -88q0 -56 -30 -113q-31 -58 -80 -80z" />
    <glyph glyph-name="quotedblleft" unicode="&#x201c;" horiz-adv-x="470" 
d="M385 1487q24 8 39 8q24 0 24 -12q0 -5 -9 -9q-38 -16 -60 -56q-15 -28 -19 -60q18 3 19 3q91 0 91 -93t-91 -93q-43 0 -73 31q-31 34 -31 88q0 56 30 113q31 58 80 80zM176 1487q24 8 39 8q24 0 24 -12q0 -5 -9 -9q-38 -16 -60 -56q-15 -28 -19 -60q18 3 19 3
q91 0 91 -93t-91 -93q-43 0 -73 31q-31 34 -31 88q0 56 30 113q31 58 80 80z" />
    <glyph glyph-name="quotedblright" unicode="&#x201d;" horiz-adv-x="470" 
d="M85 1256q-24 -8 -39 -8q-24 0 -24 12q0 5 9 9q38 16 60 56q15 28 19 60q-18 -3 -19 -3q-91 0 -91 93t91 93q43 0 73 -31q31 -34 31 -88q0 -56 -30 -113q-31 -58 -80 -80zM294 1256q-24 -8 -39 -8q-24 0 -24 12q0 5 9 9q38 16 60 56q15 28 19 60q-18 -3 -19 -3
q-91 0 -91 93t91 93q43 0 73 -31q31 -34 31 -88q0 -56 -30 -113q-31 -58 -80 -80z" />
    <glyph glyph-name="quotedblbase" unicode="&#x201e;" horiz-adv-x="470" 
d="M85 -101q-24 -8 -39 -8q-24 0 -24 12q0 5 9 9q38 16 60 56q15 28 19 60q-18 -3 -19 -3q-91 0 -91 93t91 93q43 0 73 -31q31 -34 31 -88q0 -56 -30 -113q-31 -58 -80 -80zM294 -101q-24 -8 -39 -8q-24 0 -24 12q0 5 9 9q38 16 60 56q15 28 19 60q-18 -3 -19 -3
q-91 0 -91 93t91 93q43 0 73 -31q31 -34 31 -88q0 -56 -30 -113q-31 -58 -80 -80z" />
    <glyph glyph-name="bullet" unicode="&#x2022;" horiz-adv-x="430" 
d="M215 500q-135 0 -135 135t135 135t135 -135t-135 -135z" />
    <glyph glyph-name="ellipsis" unicode="&#x2026;" horiz-adv-x="1268" 
d="M972 4q-93 0 -93 93q0 92 93 92q92 0 92 -92q0 -93 -92 -93zM582 4q-93 0 -93 93q0 92 93 92q92 0 92 -92q0 -93 -92 -93zM193 4q-93 0 -93 93q0 92 93 92q92 0 92 -92q0 -93 -92 -93z" />
    <glyph glyph-name="zero_super" unicode="&#x2070;" horiz-adv-x="460" 
d="M230 1000q-119 0 -174.5 109t-55.5 229q0 117 54.5 228t175.5 111q120 0 175 -109t55 -230q0 -120 -55.5 -229t-174.5 -109zM230 1046q63 0 103 80q42 81 42 212q0 121 -36 202q-41 90 -109 90t-109 -90q-36 -81 -36 -202q0 -131 42 -212q40 -80 103 -80z" />
    <glyph glyph-name="four_super" unicode="&#x2074;" horiz-adv-x="501" 
d="M344 1000q-41 0 -41 24v150h-262q-41 0 -41 24q0 5 3 9l302 453q11 17 39 17q41 0 41 -24v-432h75q41 0 41 -23q0 -24 -41 -24h-75v-150q0 -24 -41 -24zM303 1221v359l-237 -359h237z" />
    <glyph glyph-name="five_super" unicode="&#x2075;" horiz-adv-x="435" 
d="M435 1209q0 -209 -221 -209q-146 0 -200 116q-14 25 -14 43q0 23 39 23q36 0 41 -20q27 -117 134 -117q141 2 141 164q0 164 -139 164q-74 0 -116 -65q-15 -22 -38 -22q-42 0 -42 23q0 5 1 8l40 314q3 22 40 22h273q40 0 40 -23t-40 -23h-236l-27 -209q47 21 105 21
q219 0 219 -210z" />
    <glyph glyph-name="six_super" unicode="&#x2076;" horiz-adv-x="453" 
d="M236 1000q-184 0 -225 203q-11 59 -11 132q2 107 30 180q63 162 217 162q127 0 178 -102q15 -33 15 -47q0 -23 -39 -23q-37 0 -42 20q-24 106 -112 106q-102 1 -147 -131q-18 -53 -20 -140q53 71 156 71q217 0 217 -216q0 -215 -217 -215zM236 1046q135 0 135 169
q0 170 -135 170t-135 -170q0 -169 135 -169z" />
    <glyph glyph-name="seven_super" unicode="&#x2077;" horiz-adv-x="450" 
d="M231 1022q-1 -22 -40 -22q-40 0 -40 23q0 167 64 341q44 120 134 243h-309q-40 0 -40 23t40 23h370q16 0 29 -7q11 -7 11 -15q0 -5 -5 -11q-101 -128 -152 -266q-52 -141 -62 -332z" />
    <glyph glyph-name="eight_super" unicode="&#x2078;" horiz-adv-x="451" 
d="M226 1000q-226 0 -226 188q0 109 114 167q-96 53 -96 149q0 173 208 173q207 0 207 -173q0 -96 -96 -149q114 -58 114 -167q0 -188 -225 -188zM226 1377q126 0 126 127q0 126 -126 126q-127 0 -127 -126q0 -127 127 -127zM226 1046q143 0 143 142t-143 142
q-144 0 -144 -142t144 -142z" />
    <glyph glyph-name="nine_super" unicode="&#x2079;" horiz-adv-x="453" 
d="M217 1677q184 0 225 -203q11 -53 11 -132q-2 -107 -30 -180q-63 -162 -217 -162q-126 0 -178 102q-15 33 -15 47q0 23 39 23q37 0 42 -20q24 -106 112 -106q103 0 147 131q18 53 20 140q-53 -71 -156 -71q-217 0 -217 216q0 215 217 215zM217 1631q-135 0 -135 -169
q0 -170 135 -170t135 170q0 169 -135 169z" />
    <glyph glyph-name="euro" unicode="&#x20ac;" horiz-adv-x="1296" 
d="M911 -24q-506 0 -614 537h-156q-61 0 -61 35t61 35h145q-5 53 -5 96q0 33 6 101h-146q-61 0 -61 35t61 35h157q111 531 613 531q201 0 351 -104q14 -10 14 -22q0 -18 -22 -27q-18 -8 -40 -8q-28 0 -47 13q-111 78 -256 78q-205 0 -326 -135.5t-163 -325.5h698
q62 0 62 -35t-62 -35h-710q-6 -68 -6 -101q0 -48 6 -96h656q61 0 61 -35t-61 -35h-646q41 -191 162 -329t329 -138q138 0 245 71q18 12 45 12q24 0 42 -9q20 -11 20 -26q0 -13 -15 -23q-145 -95 -337 -95z" />
    <glyph glyph-name="rupee" unicode="&#x20b9;" horiz-adv-x="1156" 
d="M759 -24q-39 0 -55 19l-541 588q-11 11 -11 20q0 35 61 35q123 0 263.5 39.5t212.5 152.5q35 54 41 131h-568q-62 0 -62 35t62 35h559q-17 53 -45 90q-70 93 -185.5 129.5t-225.5 36.5h-103q-62 0 -62 35t62 35h832q62 0 62 -35t-62 -35h-380q122 -68 175 -139
q38 -51 56 -117h149q62 0 62 -35t-62 -35h-141q-6 -89 -49 -155q-79 -124 -218 -172.5t-274 -62.5l501 -544q7 -8 7 -16q0 -22 -33 -31q-16 -4 -28 -4z" />
    <glyph glyph-name="uni25CC" unicode="&#x25cc;" horiz-adv-x="1084" 
d="M643 938q-15 0 -21 2q-39 9 -80 9t-80 -9q-6 -2 -21 -2q-33 0 -45 15q-4 5 -4 10q0 18 29 23q62 14 121 14t121 -14q29 -5 29 -23q0 -5 -4 -10q-12 -15 -45 -15zM143 703l-17 2q-34 3 -34 23q0 5 2 8q31 51 66 87q41 41 84 71q14 10 38 10q19 0 32 -6q19 -7 19 -20
q0 -7 -11 -15q-38 -26 -73 -63q-38 -39 -61 -79q-12 -22 -45 -18zM941 703q-33 -4 -45 18q-23 40 -61 79q-35 37 -73 63q-11 8 -11 15q0 13 19 20q14 6 32 6q24 0 38 -10q43 -30 84 -71q35 -36 66 -87q2 -3 2 -8q0 -20 -34 -23zM139 381q0 -24 -47 -24q-46 0 -51 23
q-11 55 -11 108t11 108q5 23 51 23q47 0 47 -24q0 -1 -0.5 -2.5t-0.5 -2.5q-9 -44 -9 -102q0 -59 9 -101q1 -3 1 -6zM945 381q0 3 1 6q9 42 9 101q0 58 -9 102q0 1 -0.5 2.5t-0.5 2.5q0 24 47 24q46 0 51 -23q11 -55 11 -108t-11 -108q-5 -23 -51 -23q-47 0 -47 24zM802 72
q-18 0 -32 6q-19 7 -19 20q0 7 11 15q38 26 73 63q38 39 61 79q12 22 45 18l17 -2q34 -3 34 -23q0 -5 -2 -8q-31 -51 -66 -87q-41 -41 -84 -71q-14 -10 -38 -10zM282 72q-24 0 -38 10q-43 30 -84 71q-35 36 -66 87q-2 3 -2 8q0 20 34 23l17 2q33 4 45 -18q23 -40 61 -79
q35 -37 73 -63q11 -8 11 -15q0 -13 -19 -20q-13 -6 -32 -6zM542 -24q-59 0 -121 14q-29 5 -29 23q0 5 4 10q12 15 45 15q15 0 21 -2q39 -9 80 -9t80 9q6 2 21 2q33 0 45 -15q4 -5 4 -10q0 -18 -29 -23q-62 -14 -121 -14z" />
    <glyph glyph-name="r4" horiz-adv-x="559" 
d="M477 -295q-172 0 -263 87q-81 79 -97.5 204t-16.5 231q0 184 38 397q13 68 41.5 184t68.5 172q17 22 60 22q58 0 58 -34q0 -5 -4 -15q-68 -129 -102 -327q-38 -201 -38 -397q0 -93 14.5 -213.5t83.5 -188.5q55 -52 160 -52q99 0 177 39q17 9 41 9q27 0 45 -12
q16 -11 16 -23q0 -15 -20 -26q-111 -57 -262 -57z" />
    <glyph glyph-name="y2" horiz-adv-x="469" 
d="M200 -517q-100 0 -200 59t-100 174q0 65 49 116q24 24 50 34q15 4 32 4q15 0 31 -6q29 -10 29 -27q0 -10 -14 -21q-54 -40 -54 -98q0 -165 178 -165q194 0 194 223q0 110 -53.5 180.5t-114.5 154.5q-98 137 -131 322q-18 101 -18 222q0 116 16 281q3 33 61 33
q62 0 62 -35q0 -5 -1 -8q-15 -167 -15 -272q0 -117 16 -209q30 -176 124 -307q56 -77 117 -162t61 -186q0 -307 -319 -307z" />
    <glyph glyph-name="y2u1" horiz-adv-x="539" 
d="M296 -943q-240 0 -240 250t240 250t240 -250t-240 -250zM296 -877q136 0 136 184t-136 184t-136 -184t136 -184zM200 -516q-100 0 -200 59t-100 174q0 65 49 116q24 24 50 34q15 4 32 4q15 0 31 -6q29 -10 29 -27q0 -10 -14 -21q-54 -40 -54 -98q0 -165 178 -165
q194 0 194 223q0 110 -53.5 180.5t-114.5 154.5q-98 137 -131 322q-18 101 -18 222q0 116 16 281q3 33 61 33q62 0 62 -35q0 -5 -1 -8q-15 -167 -15 -272q0 -117 16 -209q30 -176 124 -307q56 -77 117 -162t61 -186q0 -307 -319 -307z" />
    <glyph glyph-name="y2u2" horiz-adv-x="574" 
d="M306 -1131q-113 0 -200 45q-16 10 -16 21q0 12 12 19q13 9 37 9q22 0 34 -7q57 -30 133 -30q149 0 223.5 94t74.5 205q0 200 -159 255q69 -75 69 -187q0 -244 -240 -244t-240 244q0 148 112 218q70 42 183 42q365 0 365 -328q0 -163 -116.5 -259.5t-271.5 -96.5z
M274 -891q137 0 137 186q0 189 -137 189q-136 0 -136 -187q0 -188 136 -188zM200 -518q-100 0 -200 59t-100 174q0 65 49 116q24 24 50 34q15 4 32 4q15 0 31 -6q29 -10 29 -27q0 -10 -14 -21q-54 -40 -54 -98q0 -165 178 -165q194 0 194 223q0 110 -53.5 180.5
t-114.5 154.5q-98 137 -131 322q-18 101 -18 222q0 116 16 281q3 33 61 33q62 0 62 -35q0 -5 -1 -8q-15 -167 -15 -272q0 -117 16 -209q30 -176 124 -307q56 -77 117 -162t61 -186q0 -307 -319 -307z" />
    <glyph glyph-name="v2" horiz-adv-x="321" 
d="M160 -210h-398q-62 0 -62 38t62 38h336v1099q0 35 62 35q61 0 61 -35v-1136q0 -39 -61 -39z" />
    <glyph glyph-name="k1u1" horiz-adv-x="1848" 
d="M1768 153q0 -97 -84 -137t-165 -40q-105 0 -164 44q-18 14 -18 25q0 12 22 23q18 9 41 9q34 0 56.5 -16t67.5 -15q126 0 126 107q0 52 -50 75q-21 9 -50 9q-16 0 -33 -2t-34 -2q-58 0 -58 36q0 35 57 35q14 0 30.5 -1t32.5 0q28 1 47 17q28 22 28 64q0 86 -96 86h-208
q-2 -81 -15 -165.5t-54 -156.5q-96 -172 -324 -172q-185 0 -304 139q-64 -139 -239 -139q-136 0 -224 88q-76 76 -76 184q0 117 77 194q98 99 272 99h102q9 178 65 282q96 177 327 177t327 -175q56 -104 65 -284h209q74 0 146 -33.5t72 -123.5q0 -82 -83 -110
q109 -24 109 -121zM1193 541q-10 169 -61 263q-68 126 -209 126t-209 -127q-53 -95 -60 -262h539zM380 46q64 0 113 54q55 61 55 164q0 32 -4 56q-11 63 -13 150h-102q-103 0 -165 -62q-61 -61 -61 -161q0 -89 59 -148q53 -53 118 -53zM923 46q139 0 207 123q59 105 63 301
h-540q6 -198 64 -301q70 -123 206 -123z" />
    <glyph glyph-name="k1u2" horiz-adv-x="1849" 
d="M1660 -486h-1304q-97 0 -186.5 37t-89.5 157t89.5 156t186.5 36h1128q170 0 170 149q0 96 -82 127q-23 8 -47 8q-15 0 -30.5 -2t-32.5 -2q-62 0 -63 35q0 36 60 36q17 0 32.5 -1.5t31.5 -0.5q22 1 45 17q47 36 47 99q0 106 -107 106h-192q-4 -209 -69 -324
q-96 -171 -323 -171q-187 0 -305 138q-62 -136 -238 -138q-136 0 -225 87q-76 76 -76 184q0 117 77 196q97 98 272 98h102q9 179 66 284q96 175 327 175q230 0 326 -174q58 -105 65 -285h193q123 0 180 -61q44 -45 44 -115q0 -110 -105 -142q142 -45 142 -174
q0 -118 -93 -168t-191 -50h-1129q-151 0 -151 -98q0 -101 151 -101h1304q61 0 61 -59t-61 -59zM1193 541q-10 172 -60 264q-69 125 -209 125q-142 0 -210 -126q-52 -95 -60 -263h539zM380 46q65 0 113 53q55 59 55 163q0 31 -4 55q-11 62 -13 154h-102q-103 0 -165 -62
q-61 -61 -61 -160q0 -92 60 -151q52 -52 117 -52zM924 46q138 0 206 122q38 67 50 147.5t14 155.5h-541q2 -75 14.5 -156t49.5 -148q70 -121 207 -121z" />
    <glyph glyph-name="k1r1" horiz-adv-x="1862" 
d="M926 -486q-117 0 -204 24q-47 13 -106.5 47t-59.5 94t61.5 94t109.5 47q87 22 199 22q101 0 182 -19q50 -12 116.5 -46t66.5 -98q0 -24 -8 -46q376 131 376 488q0 197 -129 297q-70 53 -156 53h-58q-2 -80 -15.5 -166.5t-53.5 -157.5q-96 -171 -323 -171q-187 0 -305 138
q-63 -136 -238 -138q-136 0 -225 87q-76 76 -76 190q0 113 77 190q49 50 117 73q68 25 154 25h103q9 181 65 284q96 175 327 175t327 -174q56 -102 65 -285h59q130 0 228 -63q180 -115 180 -357q0 -207 -123 -338t-312 -199q-86 -31 -162 -46q-115 -24 -259 -24zM1193 541
q-10 169 -61 264q-68 125 -209 125t-209 -126q-52 -95 -60 -263h539zM924 46q138 0 206 122q38 67 50 147.5t14 155.5h-541q2 -75 14 -156t50 -148q68 -121 207 -121zM380 46q65 0 113 53q55 61 55 161q0 30 -4 54q-11 62 -13 157h-102q-104 0 -165 -62q-61 -61 -61 -156
q0 -96 60 -155q52 -52 117 -52zM926 -424q256 0 256 103q0 100 -256 100q-262 0 -262 -100q0 -103 262 -103z" />
    <glyph glyph-name="k1r2" horiz-adv-x="1862" 
d="M922 -486q-140 0 -232 34q-134 49 -134 154q0 61 64 104q55 36 145 36q86 0 158 -47q72 47 158 47q91 0 146 -36q64 -41 64 -102q0 -51 -27 -82q89 35 164 78t136 123q96 126 96 302q0 86 -29 157q-75 189 -257 189h-58q-2 -80 -15.5 -166.5t-53.5 -157.5
q-96 -171 -324 -171q-185 0 -304 138q-63 -136 -238 -138q-136 0 -225 87q-76 76 -76 186q0 115 77 194q97 98 272 98h102q9 181 65 284q96 175 327 175t327 -174q58 -105 65 -285h59q280 0 376 -243q32 -82 32 -171q0 -189 -126 -337q-88 -104 -222 -169q-95 -47 -212 -74
q-133 -33 -300 -33zM1193 541q-10 171 -60 264q-69 125 -210 125t-209 -126q-52 -95 -60 -263h539zM380 46q65 0 113 53q55 61 55 164q0 30 -4 54q-11 62 -13 154h-102q-103 0 -165 -62q-61 -60 -61 -160q0 -92 60 -151q52 -52 117 -52zM923 46q139 0 207 122q38 66 50 147
t14 156h-541q2 -75 14 -156t50 -148q68 -121 206 -121zM922 -430q135 0 208 33q72 32 72 97q0 87 -119 87q-109 0 -109 -108q0 -31 -51 -31t-51 31q0 108 -109 108q-119 0 -119 -85q0 -65 73 -99q72 -33 205 -33z" />
    <glyph glyph-name="k1l1" horiz-adv-x="1847" 
d="M924 -21q-187 0 -305 139q-64 -139 -238 -139q-137 0 -225 88q-76 76 -76 184q0 117 77 194q98 99 272 99h102q9 179 66 283q95 176 327 176q230 0 326 -175q57 -104 66 -284h92q159 0 256 -75q103 -78 103 -217q0 -110 -77 -185q-89 -87 -220 -87q-52 0 -93 11
q-48 13 -48 39q0 17 27 26q18 6 32 6q21 0 40 -6t43 -6q82 0 133 74q41 59 41 130q0 78 -45 135q-66 84 -192 84h-92q-4 -206 -69 -322q-96 -172 -323 -172zM1193 544q-10 171 -60 263q-68 126 -209 126q-142 0 -210 -127q-53 -97 -60 -262h539zM380 49q64 0 113 54
q55 59 55 165q0 31 -4 55q-11 63 -13 150h-102q-103 0 -165 -62q-61 -61 -61 -157q0 -93 60 -153q52 -52 117 -52zM924 49q139 0 207 123q38 67 49.5 146t13.5 155h-541q6 -199 64 -302q69 -122 207 -122zM1267 -636q-119 0 -179 87q-39 57 -39 135q0 92 55 162
q68 89 195 105q-67 58 -162 58q-175 0 -175 -177v-343q0 -27 -49 -27t-49 27v343q0 177 -192 177q-127 0 -189 -123q-29 -56 -31 -123q50 70 139 70q90 0 145 -57q47 -47 47 -122q0 -97 -63 -146q-55 -45 -138 -45q-76 0 -131 44q-96 76 -96 239q0 88 36 160q81 156 281 156
q168 0 239 -86q83 86 226 86q185 0 285 -124q70 -87 70 -213q0 -97 -44 -167q-59 -96 -181 -96zM1267 -583q50 0 88 59q39 64 39 151q0 103 -50 175q-93 0 -150 -74q-47 -60 -47 -142q0 -68 33 -116q36 -52 87 -53zM586 -582q104 0 104 130t-105 130q-106 0 -106 -130
t107 -130z" />
    <glyph glyph-name="k1k1" horiz-adv-x="2328" 
d="M1904 -24q-24 0 -43 13q-14 9 -14 22q0 19 22 28q116 56 184 167q72 120 72 275q0 177 -95 300q-112 148 -312 148q-187 0 -301 -134q-79 -93 -103 -254h106q173 0 271 -99q77 -79 77 -191q0 -111 -76 -187q-88 -88 -225 -88q-175 0 -239 139q-119 -139 -304 -139
q-186 0 -305 139q-63 -139 -238 -139q-137 0 -225 88q-76 76 -76 187q0 112 77 191q98 99 272 99h103q7 175 65 282q97 177 327 177q217 0 314 -153q21 -32 42 -83q28 45 67 87q144 149 371 149q240 0 392 -160q138 -146 138 -359q0 -192 -103 -333q-70 -94 -171 -150
q-38 -22 -70 -22zM1194 541q-7 165 -60 263q-68 126 -210 126q-140 0 -210 -127q-51 -95 -60 -262h540zM1468 46q64 -1 118 53q60 60 60 152q0 93 -62 157q-61 62 -165 62h-101q-4 -97 -14 -156q-6 -34 -6 -52q0 -100 56 -162q51 -54 114 -54zM380 46q64 0 113 54
q56 62 56 166q0 29 -4 50q-12 70 -14 154h-102q-103 0 -165 -62q-61 -63 -61 -157q0 -90 60 -152q56 -54 117 -53zM924 47q139 0 208 122q58 106 62 301h-541q6 -198 64 -301q69 -122 207 -122z" />
    <glyph glyph-name="k1k1u1" horiz-adv-x="2344" 
d="M1968 -24q-63 0 -126 23q-29 10 -29 30q0 9 10 18q16 16 51 16q25 0 45 -8t48 -8q73 0 123 61q52 67 52 145q0 88 -66 142q-49 40 -102 39l-51 -1q-53 0 -53 35q0 29 52 35q14 2 27.5 1.5t26.5 1.5q50 9 88 44q48 46 48 118q0 125 -100 195q-97 67 -249 67
q-208 0 -325 -117q-90 -90 -118 -272h100q173 0 271 -99q77 -80 77 -194q0 -106 -76 -184q-88 -88 -225 -88q-175 0 -239 139q-119 -139 -304 -139q-187 0 -305 139q-63 -139 -238 -139q-137 0 -225 88q-76 76 -76 184q0 115 77 194q98 99 272 99h103q7 178 65 283
q96 176 327 176q235 0 330 -180q9 -17 15 -33t13 -33q40 71 93 119q140 127 388 127q187 0 316 -73q155 -90 155 -259q0 -118 -118 -194q148 -80 148 -224q0 -97 -64 -171q-39 -46 -93 -72q-63 -31 -139 -31zM1194 541q-7 165 -60 263q-68 126 -210 126q-140 0 -210 -127
q-51 -95 -60 -262h540zM1468 46q66 0 118 52q60 60 60 153t-62 157q-61 62 -165 62h-101q-4 -96 -14 -156q-6 -34 -6 -52q0 -100 56 -162q51 -54 114 -54zM380 46q64 0 113 54q56 62 56 166q0 29 -4 50q-12 70 -14 154h-102q-103 0 -165 -62q-61 -63 -61 -157q0 -93 60 -153
q52 -52 117 -52zM924 46q138 0 208 123q58 105 62 301h-541q6 -197 64 -302q69 -122 207 -122z" />
    <glyph glyph-name="k1k1u2" horiz-adv-x="2344" 
d="M2115 474q149 -71 149 -272q0 -140 -78 -236q-109 -135 -358 -135h-1472q-151 0 -151 -98q0 -101 151 -101h1799q61 0 61 -59t-61 -59h-1799q-97 0 -186.5 37.5t-89.5 156.5q0 120 89.5 156t186.5 36h1472q189 0 275 139q42 68 42 163q0 134 -70 193q-49 40 -102 39
l-51 -1q-53 0 -53 35q0 32 52 35q14 2 27.5 1.5t26.5 1.5q52 9 88 44q48 46 48 118q1 125 -99 195q-95 67 -250 67q-208 0 -325 -117q-89 -89 -117 -272h99q175 0 271 -99q77 -78 77 -194q0 -108 -76 -184q-87 -88 -225 -88q-174 0 -238 139q-119 -139 -304 -139
q-187 0 -305 139q-63 -139 -238 -139q-137 0 -225 88q-76 76 -76 184q0 117 77 194q98 99 272 99h103q7 178 65 283q96 176 327 176q234 0 329 -180q2 -3 29 -66q38 70 93 119q140 127 387 127q187 0 316 -73q155 -89 155 -259q0 -119 -118 -194zM1193 541q-7 165 -60 263
q-68 126 -209 126q-142 0 -210 -127q-50 -93 -60 -262h539zM1467 46q66 0 118 52q60 60 60 153t-62 157q-61 62 -165 62h-101q-4 -96 -14 -156q-5 -28 -5 -52q0 -100 56 -162q49 -54 113 -54zM380 46q64 0 113 54q56 62 56 166q0 29 -4 50q-12 70 -14 154h-102
q-103 0 -165 -62q-61 -61 -61 -157q0 -93 60 -153q52 -52 117 -52zM924 46q137 0 207 123q57 103 63 301h-541q2 -76 14 -155t50 -147q68 -122 207 -122z" />
    <glyph glyph-name="k1k1r1" horiz-adv-x="2338" 
d="M1344 -462q-187 -27 -417 -24q-113 0 -205 25q-46 13 -106 47t-60 94t61.5 94t109.5 47q88 22 200 22q101 0 181 -19q50 -12 116.5 -46t66.5 -98q0 -48 -34 -82q184 22 319 69q269 93 409 277q150 196 150 474q0 197 -90 333q-117 178 -328 178q-187 0 -301 -134
q-80 -94 -102 -254h105q175 0 271 -99q77 -79 77 -191q0 -111 -76 -187q-88 -88 -225 -88q-175 2 -238 139q-119 -139 -304 -139q-186 0 -305 139q-62 -137 -238 -139q-137 0 -225 88q-76 76 -76 187q0 112 77 191q98 99 272 99h103q7 178 65 282q96 177 327 177
q216 0 313 -153q24 -37 43 -83q31 51 67 87q142 149 370 149q269 0 417 -189q124 -158 124 -393q0 -289 -170 -506q-148 -186 -395 -284q-154 -63 -349 -90zM1193 541q-7 165 -60 263q-68 126 -209 126t-210 -127q-50 -93 -60 -262h539zM1467 46q64 -1 118 53q60 60 60 152
q0 93 -62 157q-61 62 -165 62h-101q-4 -97 -14 -156q-5 -28 -5 -52q0 -100 56 -162q48 -52 113 -54zM380 46q65 2 113 54q56 62 56 166q0 29 -4 50q-12 70 -14 154h-102q-103 0 -165 -62q-61 -61 -61 -157q0 -92 60 -152q54 -54 117 -53zM924 47q139 0 207 122
q38 67 49.5 146.5t13.5 154.5h-541q6 -198 64 -301q69 -122 207 -122zM927 -422q256 0 256 103q0 100 -256 100q-262 0 -262 -100q0 -103 262 -103z" />
    <glyph glyph-name="k1k1r3" horiz-adv-x="2707" 
d="M2078 999q283 0 438 -211q111 -151 111 -368q0 -419 -392 -679q-185 -123 -419.5 -175t-453.5 -52q-213 0 -438.5 41.5t-413.5 147.5q-430 243 -430 741q0 367 263 543q18 13 45 13q24 0 40 -9q24 -10 24 -28q0 -10 -15 -21q-234 -157 -234 -498q0 -468 393 -691
q170 -96 373 -132.5t393 -36.5q197 0 405.5 46t374.5 156q362 241 362 634q0 202 -101 341q-122 167 -325 167q-188 0 -301 -134q-79 -91 -103 -254h106q173 0 271 -99q77 -79 77 -191q0 -111 -76 -187q-88 -88 -225 -88q-176 2 -239 139q-119 -139 -304 -139
q-186 0 -305 139q-62 -137 -238 -139q-137 0 -225 88q-76 76 -76 187q0 112 77 191q98 99 272 99h103q7 175 65 282q97 177 327 177q217 0 314 -153q21 -32 42 -83q28 47 67 87q143 149 371 149zM1554 540q-7 165 -60 263q-68 126 -210 126q-141 0 -210 -127
q-50 -93 -60 -262h540zM1828 45q65 0 118 53q60 60 60 152q0 93 -62 157q-62 62 -165 62h-101q-4 -97 -14 -156q-6 -34 -6 -52q0 -100 56 -162q48 -52 114 -54zM740 45q65 2 113 54q56 62 56 166q0 29 -4 50q-12 70 -14 154h-102q-104 0 -165 -62q-61 -63 -61 -157
q0 -90 60 -152q55 -53 117 -53zM1284 46q139 0 208 122q58 106 62 301h-541q6 -198 64 -301q69 -122 207 -122z" />
    <glyph glyph-name="k1k1r3u1" horiz-adv-x="2706" 
d="M2078 999q283 0 438 -211q111 -151 111 -368q0 -419 -392 -679q-185 -123 -419.5 -175t-453.5 -52q-213 0 -438.5 41.5t-413.5 147.5q-430 243 -430 741q0 367 263 543q18 13 45 13q24 0 40 -9q24 -10 24 -28q0 -10 -15 -21q-234 -157 -234 -498q0 -468 393 -691
q170 -96 373 -132.5t393 -36.5q197 0 405.5 46t374.5 156q362 241 362 634q0 202 -101 341q-122 167 -325 167q-188 0 -301 -134q-79 -91 -103 -254h106q173 0 271 -99q77 -79 77 -191q0 -111 -76 -187q-88 -88 -225 -88q-176 2 -239 139q-119 -139 -304 -139
q-186 0 -305 139q-62 -137 -238 -139q-137 0 -225 88q-76 76 -76 187q0 112 77 191q98 99 272 99h103q7 175 65 282q97 177 327 177q217 0 314 -153q21 -32 42 -83q28 47 67 87q143 149 371 149zM1554 540q-7 165 -60 263q-68 126 -210 126q-141 0 -210 -127
q-50 -93 -60 -262h540zM1828 45q65 0 118 53q60 60 60 152q0 93 -62 157q-62 62 -165 62h-101q-4 -97 -14 -156q-6 -34 -6 -52q0 -100 56 -162q48 -52 114 -54zM740 45q65 2 113 54q56 62 56 166q0 29 -4 50q-12 70 -14 154h-102q-104 0 -165 -62q-61 -63 -61 -157
q0 -90 60 -152q55 -53 117 -53zM1284 46q139 0 208 122q58 106 62 301h-541q6 -198 64 -301q69 -122 207 -122zM2343 -656q-240 0 -240 250t240 250t240 -250t-240 -250zM2343 -590q136 0 136 184t-136 184t-136 -184t136 -184z" />
    <glyph glyph-name="k1k1r3u2" horiz-adv-x="2706" 
d="M2078 999q283 0 438 -211q111 -151 111 -368q0 -419 -392 -679q-185 -123 -419.5 -175t-453.5 -52q-213 0 -438.5 41.5t-413.5 147.5q-430 243 -430 741q0 367 263 543q18 13 45 13q24 0 40 -9q24 -10 24 -28q0 -10 -15 -21q-234 -157 -234 -498q0 -468 393 -691
q170 -96 373 -132.5t393 -36.5q197 0 405.5 46t374.5 156q362 241 362 634q0 202 -101 341q-122 167 -325 167q-188 0 -301 -134q-79 -91 -103 -254h106q173 0 271 -99q77 -79 77 -191q0 -111 -76 -187q-88 -88 -225 -88q-176 2 -239 139q-119 -139 -304 -139
q-186 0 -305 139q-62 -137 -238 -139q-137 0 -225 88q-76 76 -76 187q0 112 77 191q98 99 272 99h103q7 175 65 282q97 177 327 177q217 0 314 -153q21 -32 42 -83q28 47 67 87q143 149 371 149zM1554 540q-7 165 -60 263q-68 126 -210 126q-141 0 -210 -127
q-50 -93 -60 -262h540zM1828 45q65 0 118 53q60 60 60 152q0 93 -62 157q-62 62 -165 62h-101q-4 -97 -14 -156q-6 -34 -6 -52q0 -100 56 -162q48 -52 114 -54zM740 45q65 2 113 54q56 62 56 166q0 29 -4 50q-12 70 -14 154h-102q-104 0 -165 -62q-61 -63 -61 -157
q0 -90 60 -152q55 -53 117 -53zM1284 46q139 0 208 122q58 106 62 301h-541q6 -198 64 -301q69 -122 207 -122zM2328 -868q-113 0 -200 45q-16 10 -16 21q0 12 12 19q13 9 37 9q22 0 34 -7q57 -30 133 -30q149 0 223.5 94t74.5 205q0 200 -159 255q69 -75 69 -187
q0 -244 -240 -244t-240 244q0 148 112 218q70 42 183 42q365 0 365 -328q0 -163 -116.5 -259.5t-271.5 -96.5zM2296 -628q137 0 137 186q0 189 -137 189q-136 0 -136 -187q0 -188 136 -188z" />
    <glyph glyph-name="k1t1" horiz-adv-x="1847" 
d="M924 -24q-187 0 -305 139q-64 -139 -238 -139q-137 0 -225 88q-76 76 -76 184q0 117 77 194q98 99 272 99h102q9 179 66 283q95 176 327 176q230 0 326 -175q57 -104 66 -284h92q159 0 256 -75q103 -78 103 -217q0 -110 -77 -185q-89 -87 -220 -87q-52 0 -93 11
q-48 13 -48 39q0 17 27 26q18 6 32 6q21 0 40 -6t43 -6q82 0 133 74q41 59 41 130q0 78 -45 135q-66 84 -192 84h-92q-4 -206 -69 -322q-96 -172 -323 -172zM1193 541q-10 171 -60 263q-68 126 -209 126q-142 0 -210 -127q-53 -97 -60 -262h539zM380 46q64 0 113 54
q55 59 55 165q0 31 -4 55q-11 63 -13 150h-102q-103 0 -165 -62q-61 -61 -61 -157q0 -93 60 -153q52 -52 117 -52zM924 46q139 0 207 123q38 67 49.5 146t13.5 155h-541q6 -199 64 -302q69 -122 207 -122zM1199 -588q-81 -48 -213 -48q-197 0 -299 101q-6 6 -6 13
q0 16 25 24q11 3 24 3q27 0 43 -14q74 -74 213 -74q87 0 145 38q52 35 51 89q-3 74 -124 74q-28 0 -56 -1t-57 -1q-99 0 -153 20q-95 35 -95 130q0 92 85 145q87 53 210 53q183 0 282 -98q6 -6 6 -13q0 -16 -25 -24q-10 -3 -24 -3q-29 0 -43 14q-71 71 -196 71
q-99 0 -158 -52q-38 -33 -38 -81q0 -69 123 -69q27 0 53.5 1t53.5 1q103 0 152 -16q103 -34 103 -141q0 -93 -82 -142z" />
    <glyph glyph-name="k1t1u1" horiz-adv-x="1847" 
d="M924 -24q-187 0 -305 139q-64 -139 -238 -139q-137 0 -225 88q-76 76 -76 184q0 117 77 194q98 99 272 99h102q9 179 66 283q95 176 327 176q230 0 326 -175q57 -104 66 -284h92q159 0 256 -75q103 -78 103 -217q0 -110 -77 -185q-89 -87 -220 -87q-52 0 -93 11
q-48 13 -48 39q0 17 27 26q18 6 32 6q21 0 40 -6t43 -6q82 0 133 74q41 59 41 130q0 78 -45 135q-66 84 -192 84h-92q-4 -206 -69 -322q-96 -172 -323 -172zM1193 541q-10 171 -60 263q-68 126 -209 126q-142 0 -210 -127q-53 -97 -60 -262h539zM380 46q64 0 113 54
q55 59 55 165q0 31 -4 55q-11 63 -13 150h-102q-103 0 -165 -62q-61 -61 -61 -157q0 -93 60 -153q52 -52 117 -52zM924 46q139 0 207 123q38 67 49.5 146t13.5 155h-541q6 -199 64 -302q69 -122 207 -122zM1199 -588q-81 -48 -213 -48q-197 0 -299 101q-6 6 -6 13
q0 16 25 24q11 3 24 3q27 0 43 -14q74 -74 213 -74q87 0 145 38q52 35 51 89q-3 74 -124 74q-28 0 -56 -1t-57 -1q-99 0 -153 20q-95 35 -95 130q0 92 85 145q87 53 210 53q183 0 282 -98q6 -6 6 -13q0 -16 -25 -24q-10 -3 -24 -3q-29 0 -43 14q-71 71 -196 71
q-99 0 -158 -52q-38 -33 -38 -81q0 -69 123 -69q27 0 53.5 1t53.5 1q103 0 152 -16q103 -34 103 -141q0 -93 -82 -142zM1257 -900q-181 0 -181 188t181 188q180 0 180 -188t-180 -188zM1257 -850q102 0 102 138q0 139 -102 139q-103 0 -103 -139q0 -138 103 -138z" />
    <glyph glyph-name="k1t1u2" horiz-adv-x="1847" 
d="M924 -24q-187 0 -305 139q-64 -139 -238 -139q-137 0 -225 88q-76 76 -76 184q0 117 77 194q98 99 272 99h102q9 179 66 283q95 176 327 176q230 0 326 -175q57 -104 66 -284h92q159 0 256 -75q103 -78 103 -217q0 -110 -77 -185q-89 -87 -220 -87q-52 0 -93 11
q-48 13 -48 39q0 17 27 26q18 6 32 6q21 0 40 -6t43 -6q82 0 133 74q41 59 41 130q0 78 -45 135q-66 84 -192 84h-92q-4 -206 -69 -322q-96 -172 -323 -172zM1193 541q-10 171 -60 263q-68 126 -209 126q-142 0 -210 -127q-53 -97 -60 -262h539zM380 46q64 0 113 54
q55 59 55 165q0 31 -4 55q-11 63 -13 150h-102q-103 0 -165 -62q-61 -61 -61 -157q0 -93 60 -153q52 -52 117 -52zM924 46q139 0 207 123q38 67 49.5 146t13.5 155h-541q6 -199 64 -302q69 -122 207 -122zM1199 -588q-81 -48 -213 -48q-197 0 -299 101q-6 6 -6 13
q0 16 25 24q11 3 24 3q27 0 43 -14q74 -74 213 -74q87 0 145 38q52 35 51 89q-3 74 -124 74q-28 0 -56 -1t-57 -1q-99 0 -153 20q-95 35 -95 130q0 92 85 145q87 53 210 53q183 0 282 -98q6 -6 6 -13q0 -16 -25 -24q-10 -3 -24 -3q-29 0 -43 14q-71 71 -196 71
q-99 0 -158 -52q-38 -33 -38 -81q0 -69 123 -69q27 0 53.5 1t53.5 1q103 0 152 -16q103 -34 103 -141q0 -93 -82 -142zM1283 -1029q-85 0 -150 34q-12 6 -12 16q0 8 9 14q11 7 28 7q16 0 26 -6q43 -22 99 -22q222 0 222 226q0 142 -118 185q52 -56 52 -137q0 -182 -180 -182
t-180 181q0 109 84 161q45 29 134 29q277 0 277 -237q0 -269 -291 -269zM1259 -849q103 0 103 138q0 139 -103 139q-102 0 -102 -139q0 -138 102 -138z" />
    <glyph glyph-name="k1t1r3" horiz-adv-x="1847" 
d="M924 -24q-187 0 -305 139q-64 -139 -238 -139q-137 0 -225 88q-76 76 -76 184q0 117 77 194q98 99 272 99h102q9 179 66 283q95 176 327 176q230 0 326 -175q57 -104 66 -284h92q159 0 256 -75q103 -78 103 -217q0 -110 -77 -185q-89 -87 -220 -87q-52 0 -93 11
q-48 13 -48 39q0 17 27 26q18 6 32 6q21 0 40 -6t43 -6q82 0 133 74q41 59 41 130q0 78 -45 135q-66 84 -192 84h-92q-4 -206 -69 -322q-96 -172 -323 -172zM1193 541q-10 171 -60 263q-68 126 -209 126q-142 0 -210 -127q-53 -97 -60 -262h539zM380 46q64 0 113 54
q55 59 55 165q0 31 -4 55q-11 63 -13 150h-102q-103 0 -165 -62q-61 -61 -61 -157q0 -93 60 -153q52 -52 117 -52zM924 46q139 0 207 123q38 67 49.5 146t13.5 155h-541q6 -199 64 -302q69 -122 207 -122zM1005 -626q-175 0 -292 73q-149 95 -149 276q0 159 121 241
q14 10 38 10q18 0 31 -6q19 -9 19 -21q0 -8 -11 -16q-98 -68 -98 -208q0 -161 124 -241q87 -55 217 -55q110 0 180 37q65 35 65 92q0 72 -124 72q-28 0 -56.5 -1t-56.5 -1q-100 0 -153 20q-96 35 -96 130q0 92 85 145q88 53 211 53q184 0 283 -98q6 -6 6 -13q0 -16 -25 -24
q-12 -3 -25 -3q-29 0 -43 14q-71 71 -196 71q-99 0 -158 -52q-39 -34 -39 -81q0 -69 124 -69q26 0 53 1t54 1q99 0 152 -17q105 -34 105 -133q0 -95 -97 -145q-95 -52 -249 -52z" />
    <glyph glyph-name="k1t1r3u1" horiz-adv-x="1847" 
d="M924 -24q-187 0 -305 139q-64 -139 -238 -139q-137 0 -225 88q-76 76 -76 184q0 117 77 194q98 99 272 99h102q9 179 66 283q95 176 327 176q230 0 326 -175q57 -104 66 -284h92q159 0 256 -75q103 -78 103 -217q0 -110 -77 -185q-89 -87 -220 -87q-52 0 -93 11
q-48 13 -48 39q0 17 27 26q18 6 32 6q21 0 40 -6t43 -6q82 0 133 74q41 59 41 130q0 78 -45 135q-66 84 -192 84h-92q-4 -206 -69 -322q-96 -172 -323 -172zM1193 541q-10 171 -60 263q-68 126 -209 126q-142 0 -210 -127q-53 -97 -60 -262h539zM380 46q64 0 113 54
q55 59 55 165q0 31 -4 55q-11 63 -13 150h-102q-103 0 -165 -62q-61 -61 -61 -157q0 -93 60 -153q52 -52 117 -52zM924 46q139 0 207 123q38 67 49.5 146t13.5 155h-541q6 -199 64 -302q69 -122 207 -122zM1005 -626q-175 0 -292 73q-149 95 -149 276q0 159 121 241
q14 10 38 10q18 0 31 -6q19 -9 19 -21q0 -8 -11 -16q-98 -68 -98 -208q0 -161 124 -241q87 -55 217 -55q110 0 180 37q65 35 65 92q0 72 -124 72q-28 0 -56.5 -1t-56.5 -1q-100 0 -153 20q-96 35 -96 130q0 92 85 145q88 53 211 53q184 0 283 -98q6 -6 6 -13q0 -16 -25 -24
q-12 -3 -25 -3q-29 0 -43 14q-71 71 -196 71q-99 0 -158 -52q-39 -34 -39 -81q0 -69 124 -69q26 0 53 1t54 1q99 0 152 -17q105 -34 105 -133q0 -95 -97 -145q-95 -52 -249 -52zM1325 -882q-181 0 -181 188t181 188q180 0 180 -188t-180 -188zM1325 -832q102 0 102 138
q0 139 -102 139q-103 0 -103 -139q0 -138 103 -138z" />
    <glyph glyph-name="k1t1r3u2" horiz-adv-x="1847" 
d="M924 -24q-187 0 -305 139q-64 -139 -238 -139q-137 0 -225 88q-76 76 -76 184q0 117 77 194q98 99 272 99h102q9 179 66 283q95 176 327 176q230 0 326 -175q57 -104 66 -284h92q159 0 256 -75q103 -78 103 -217q0 -110 -77 -185q-89 -87 -220 -87q-52 0 -93 11
q-48 13 -48 39q0 17 27 26q18 6 32 6q21 0 40 -6t43 -6q82 0 133 74q41 59 41 130q0 78 -45 135q-66 84 -192 84h-92q-4 -206 -69 -322q-96 -172 -323 -172zM1193 541q-10 171 -60 263q-68 126 -209 126q-142 0 -210 -127q-53 -97 -60 -262h539zM380 46q64 0 113 54
q55 59 55 165q0 31 -4 55q-11 63 -13 150h-102q-103 0 -165 -62q-61 -61 -61 -157q0 -93 60 -153q52 -52 117 -52zM924 46q139 0 207 123q38 67 49.5 146t13.5 155h-541q6 -199 64 -302q69 -122 207 -122zM1005 -626q-175 0 -292 73q-149 95 -149 276q0 159 121 241
q14 10 38 10q18 0 31 -6q19 -9 19 -21q0 -8 -11 -16q-98 -68 -98 -208q0 -161 124 -241q87 -55 217 -55q110 0 180 37q65 35 65 92q0 72 -124 72q-28 0 -56.5 -1t-56.5 -1q-100 0 -153 20q-96 35 -96 130q0 92 85 145q88 53 211 53q184 0 283 -98q6 -6 6 -13q0 -16 -25 -24
q-12 -3 -25 -3q-29 0 -43 14q-71 71 -196 71q-99 0 -158 -52q-39 -34 -39 -81q0 -69 124 -69q26 0 53 1t54 1q99 0 152 -17q105 -34 105 -133q0 -95 -97 -145q-95 -52 -249 -52zM1350 -1006q-85 0 -150 34q-12 6 -12 16q0 8 9 14q11 7 28 7q16 0 26 -6q43 -22 99 -22
q222 0 222 226q0 142 -118 185q52 -56 52 -137q0 -182 -180 -182t-180 181q0 109 84 161q45 29 134 29q277 0 277 -237q0 -269 -291 -269zM1326 -826q103 0 103 138q0 139 -103 139q-102 0 -102 -139q0 -138 102 -138z" />
    <glyph glyph-name="k1nh" horiz-adv-x="1847" 
d="M924 -24q-187 0 -305 139q-64 -139 -238 -139q-137 0 -225 88q-76 76 -76 184q0 117 77 194q98 99 272 99h102q9 179 66 283q95 176 327 176q230 0 326 -175q57 -104 66 -284h92q159 0 256 -75q103 -78 103 -217q0 -110 -77 -185q-89 -87 -220 -87q-52 0 -93 11
q-48 13 -48 39q0 17 27 26q18 6 32 6q21 0 40 -6t43 -6q82 0 133 74q41 59 41 130q0 78 -45 135q-66 84 -192 84h-92q-4 -206 -69 -322q-96 -172 -323 -172zM1193 541q-10 171 -60 263q-68 126 -209 126q-142 0 -210 -127q-53 -97 -60 -262h539zM380 46q64 0 113 54
q55 59 55 165q0 31 -4 55q-11 63 -13 150h-102q-103 0 -165 -62q-61 -61 -61 -157q0 -93 60 -153q52 -52 117 -52zM924 46q139 0 207 123q38 67 49.5 146t13.5 155h-541q6 -199 64 -302q69 -122 207 -122zM1405 -636q-20 0 -37 11q-11 7 -11 16q0 13 20 21q134 56 134 253
q0 68 -21 120q-51 126 -171 126q-140 0 -140 -161v-359q0 -26 -49 -26t-49 26v359q0 160 -127 160q-128 0 -128 -160v-359q0 -27 -49 -27t-49 27v345q0 175 -191 175q-127 0 -189 -123q-30 -60 -30 -123q50 70 139 70t144 -58q47 -49 47 -121q0 -94 -63 -146
q-55 -45 -138 -45q-76 0 -130 44q-96 76 -96 239q0 89 37 160q80 156 281 156q155 0 233 -78q69 78 182 78q108 0 175 -77q69 77 190 77q187 0 259 -152q31 -63 31 -148q0 -220 -169 -292q-16 -8 -35 -8zM450 -582q104 0 104 132q0 128 -104 128q-105 0 -105 -130t105 -130z
" />
    </font>
</defs>
</svg>
